<?xml version="1.0" encoding="utf-8" standalone="no"?>
<!DOCTYPE svg PUBLIC "-//W3C//DTD SVG 1.1//EN"
  "http://www.w3.org/Graphics/SVG/1.1/DTD/svg11.dtd">
<svg height="293.109429pt" version="1.1" viewBox="0 0 384.340625 293.109429" width="384.340625pt" xmlns="http://www.w3.org/2000/svg" xmlns:xlink="http://www.w3.org/1999/xlink">
 <metadata>
  <rdf:RDF xmlns:cc="http://creativecommons.org/ns#" xmlns:dc="http://purl.org/dc/elements/1.1/" xmlns:rdf="http://www.w3.org/1999/02/22-rdf-syntax-ns#">
   <cc:Work>
    <dc:type rdf:resource="http://purl.org/dc/dcmitype/StillImage"/>
    <dc:date>2021-11-17T15:40:04.033878</dc:date>
    <dc:format>image/svg+xml</dc:format>
    <dc:creator>
     <cc:Agent>
      <dc:title>Matplotlib v3.4.3, https://matplotlib.org/</dc:title>
     </cc:Agent>
    </dc:creator>
   </cc:Work>
  </rdf:RDF>
 </metadata>
 <defs>
  <style type="text/css">*{stroke-linecap:butt;stroke-linejoin:round;}</style>
 </defs>
 <g id="figure_1">
  <g id="patch_1">
   <path d="M 0 293.109429 
L 384.340625 293.109429 
L 384.340625 0 
L 0 0 
z
" style="fill:none;"/>
  </g>
  <g id="axes_1">
   <g id="patch_2">
    <path d="M 42.340625 225.302429 
L 377.140625 225.302429 
L 377.140625 7.862429 
L 42.340625 7.862429 
z
" style="fill:#ffffff;"/>
   </g>
   <g id="patch_3">
    <path clip-path="url(#p5a1b92b1b7)" d="M 57.558807 225.302429 
L 91.376989 225.302429 
L 91.376989 18.216714 
L 57.558807 18.216714 
z
"/>
   </g>
   <g id="patch_4">
    <path clip-path="url(#p5a1b92b1b7)" d="M 125.19517 225.302429 
L 159.013352 225.302429 
L 159.013352 47.800388 
L 125.19517 47.800388 
z
"/>
   </g>
   <g id="patch_5">
    <path clip-path="url(#p5a1b92b1b7)" d="M 192.831534 225.302429 
L 226.649716 225.302429 
L 226.649716 62.592224 
L 192.831534 62.592224 
z
"/>
   </g>
   <g id="patch_6">
    <path clip-path="url(#p5a1b92b1b7)" d="M 260.467898 225.302429 
L 294.28608 225.302429 
L 294.28608 203.114673 
L 260.467898 203.114673 
z
"/>
   </g>
   <g id="patch_7">
    <path clip-path="url(#p5a1b92b1b7)" d="M 328.104261 225.302429 
L 361.922443 225.302429 
L 361.922443 180.926918 
L 328.104261 180.926918 
z
"/>
   </g>
   <g id="matplotlib.axis_1">
    <g id="xtick_1">
     <g id="line2d_1">
      <defs>
       <path d="M 0 0 
L 0 3.5 
" id="mcb0b4fdf5e" style="stroke:#000000;stroke-width:0.8;"/>
      </defs>
      <g>
       <use style="stroke:#000000;stroke-width:0.8;" x="74.467898" xlink:href="#mcb0b4fdf5e" y="225.302429"/>
      </g>
     </g>
     <g id="text_1">
      <!-- DC -->
      <g transform="translate(69.467898 239.177429)scale(0.1 -0.1)">
       <defs>
        <path d="M 2925 2250 
Q 2925 1100 2437 612 
Q 1950 125 1125 125 
L 275 125 
L 275 4400 
L 1125 4400 
Q 2050 4400 2487 3900 
Q 2925 3400 2925 2250 
z
M 2325 2250 
Q 2325 3175 2025 3550 
Q 1725 3925 1125 3925 
L 850 3925 
L 850 600 
L 1125 600 
Q 1725 600 2025 962 
Q 2325 1325 2325 2250 
z
" id="SimHei-44" transform="scale(0.015625)"/>
        <path d="M 2975 1825 
Q 2950 875 2575 475 
Q 2200 75 1675 75 
Q 1075 75 650 562 
Q 225 1050 225 2125 
Q 225 3300 637 3875 
Q 1050 4450 1700 4450 
Q 2250 4450 2612 4037 
Q 2975 3625 2950 2875 
L 2400 2875 
Q 2400 3425 2225 3700 
Q 2050 3975 1700 3975 
Q 1300 3975 1062 3562 
Q 825 3150 825 2175 
Q 825 1275 1062 912 
Q 1300 550 1675 550 
Q 1950 550 2175 812 
Q 2400 1075 2400 1825 
L 2975 1825 
z
" id="SimHei-43" transform="scale(0.015625)"/>
       </defs>
       <use xlink:href="#SimHei-44"/>
       <use x="50" xlink:href="#SimHei-43"/>
      </g>
     </g>
    </g>
    <g id="xtick_2">
     <g id="line2d_2">
      <g>
       <use style="stroke:#000000;stroke-width:0.8;" x="142.104261" xlink:href="#mcb0b4fdf5e" y="225.302429"/>
      </g>
     </g>
     <g id="text_2">
      <!-- OS -->
      <g transform="translate(137.104261 239.177429)scale(0.1 -0.1)">
       <defs>
        <path d="M 2950 2275 
Q 2950 1100 2587 587 
Q 2225 75 1575 75 
Q 925 75 550 587 
Q 175 1100 175 2275 
Q 175 3450 550 3950 
Q 925 4450 1575 4450 
Q 2225 4450 2587 3950 
Q 2950 3450 2950 2275 
z
M 2350 2275 
Q 2350 3325 2125 3650 
Q 1900 3975 1575 3975 
Q 1250 3975 1012 3650 
Q 775 3325 775 2275 
Q 775 1225 1012 887 
Q 1250 550 1575 550 
Q 1900 550 2125 887 
Q 2350 1225 2350 2275 
z
" id="SimHei-4f" transform="scale(0.015625)"/>
        <path d="M 2900 1325 
Q 2900 750 2537 412 
Q 2175 75 1550 75 
Q 925 75 575 425 
Q 225 775 225 1300 
L 225 1475 
L 800 1475 
L 800 1325 
Q 800 950 1025 750 
Q 1250 550 1550 550 
Q 1950 550 2137 762 
Q 2325 975 2325 1275 
Q 2325 1525 2100 1737 
Q 1875 1950 1450 2125 
Q 850 2350 587 2625 
Q 325 2900 325 3275 
Q 325 3800 687 4125 
Q 1050 4450 1550 4450 
Q 2200 4450 2487 4062 
Q 2775 3675 2775 3225 
L 2200 3225 
Q 2225 3500 2050 3725 
Q 1875 3950 1550 3950 
Q 1250 3950 1075 3787 
Q 900 3625 900 3350 
Q 900 3125 1037 2962 
Q 1175 2800 1750 2575 
Q 2300 2350 2600 2037 
Q 2900 1725 2900 1325 
z
" id="SimHei-53" transform="scale(0.015625)"/>
       </defs>
       <use xlink:href="#SimHei-4f"/>
       <use x="50" xlink:href="#SimHei-53"/>
      </g>
     </g>
    </g>
    <g id="xtick_3">
     <g id="line2d_3">
      <g>
       <use style="stroke:#000000;stroke-width:0.8;" x="209.740625" xlink:href="#mcb0b4fdf5e" y="225.302429"/>
      </g>
     </g>
     <g id="text_3">
      <!-- IS -->
      <g transform="translate(204.740625 239.177429)scale(0.1 -0.1)">
       <defs>
        <path d="M 1850 125 
L 1275 125 
L 1275 4400 
L 1850 4400 
L 1850 125 
z
" id="SimHei-49" transform="scale(0.015625)"/>
       </defs>
       <use xlink:href="#SimHei-49"/>
       <use x="50" xlink:href="#SimHei-53"/>
      </g>
     </g>
    </g>
    <g id="xtick_4">
     <g id="line2d_4">
      <g>
       <use style="stroke:#000000;stroke-width:0.8;" x="277.376989" xlink:href="#mcb0b4fdf5e" y="225.302429"/>
      </g>
     </g>
     <g id="text_4">
      <!-- BC -->
      <g transform="translate(272.376989 239.177429)scale(0.1 -0.1)">
       <defs>
        <path d="M 2950 1400 
Q 2950 675 2550 400 
Q 2150 125 1525 125 
L 275 125 
L 275 4400 
L 1575 4400 
Q 2200 4400 2512 4075 
Q 2825 3750 2825 3300 
Q 2825 2850 2612 2637 
Q 2400 2425 2175 2350 
Q 2475 2275 2712 2037 
Q 2950 1800 2950 1400 
z
M 2250 3300 
Q 2250 3625 2062 3775 
Q 1875 3925 1600 3925 
L 850 3925 
L 850 2600 
L 1575 2600 
Q 1850 2600 2050 2762 
Q 2250 2925 2250 3300 
z
M 2350 1400 
Q 2350 1800 2087 1962 
Q 1825 2125 1500 2125 
L 850 2125 
L 850 600 
L 1425 600 
Q 1875 600 2112 775 
Q 2350 950 2350 1400 
z
" id="SimHei-42" transform="scale(0.015625)"/>
       </defs>
       <use xlink:href="#SimHei-42"/>
       <use x="50" xlink:href="#SimHei-43"/>
      </g>
     </g>
    </g>
    <g id="xtick_5">
     <g id="line2d_5">
      <g>
       <use style="stroke:#000000;stroke-width:0.8;" x="345.013352" xlink:href="#mcb0b4fdf5e" y="225.302429"/>
      </g>
     </g>
     <g id="text_5">
      <!-- CC -->
      <g transform="translate(340.013352 239.177429)scale(0.1 -0.1)">
       <use xlink:href="#SimHei-43"/>
       <use x="50" xlink:href="#SimHei-43"/>
      </g>
     </g>
    </g>
    <g id="text_6">
     <!-- 条件属性 -->
     <g transform="translate(189.740625 252.474304)scale(0.1 -0.1)">
      <defs>
       <path d="M 2700 5075 
Q 2600 5000 2400 4700 
L 5225 4700 
Q 4975 4300 4625 3875 
Q 4275 3450 3750 3050 
Q 4100 2850 4750 2687 
Q 5400 2525 6200 2525 
Q 5950 2275 5925 2000 
Q 5000 2100 4387 2300 
Q 3775 2500 3275 2825 
Q 2500 2375 1837 2175 
Q 1175 1975 575 1850 
Q 500 2125 275 2300 
Q 1250 2400 1912 2625 
Q 2575 2850 2825 3075 
Q 2400 3425 1925 3975 
Q 1600 3550 1150 3075 
Q 925 3300 725 3350 
Q 1225 3775 1625 4350 
Q 2025 4925 2125 5300 
Q 2525 5125 2700 5075 
z
M 2950 1775 
Q 2950 2000 2925 2400 
L 3475 2400 
Q 3450 1975 3450 1775 
L 4500 1775 
Q 5025 1775 5550 1800 
L 5550 1325 
Q 5025 1350 4525 1350 
L 3450 1350 
L 3450 -50 
Q 3475 -575 2450 -625 
Q 2375 -375 2225 -75 
Q 2975 -150 2950 200 
L 2950 1350 
L 1850 1350 
Q 1350 1350 825 1325 
L 825 1800 
Q 1350 1775 1850 1775 
L 2950 1775 
z
M 3300 3300 
Q 4025 3775 4325 4275 
L 2250 4275 
Q 2700 3675 3300 3300 
z
M 4200 1000 
Q 4950 575 5800 0 
Q 5650 -175 5500 -400 
Q 5150 -150 4787 100 
Q 4425 350 3925 600 
Q 4075 775 4200 1000 
z
M 2375 700 
Q 2275 600 1800 250 
Q 1325 -100 850 -400 
Q 700 -200 500 -50 
Q 825 100 1287 437 
Q 1750 775 1950 1050 
L 2375 700 
z
" id="SimHei-6761" transform="scale(0.015625)"/>
       <path d="M 3275 4475 
Q 3150 4375 2925 3775 
L 3900 3775 
L 3900 4275 
Q 3900 4900 3875 5125 
L 4400 5125 
Q 4375 4925 4375 4300 
L 4375 3775 
L 5125 3775 
Q 5450 3775 5725 3800 
L 5725 3325 
Q 5450 3350 5125 3350 
L 4375 3350 
L 4375 2000 
L 5200 2000 
Q 5575 2000 6100 2025 
L 6100 1550 
Q 5675 1575 5175 1575 
L 4375 1575 
L 4375 275 
Q 4375 -100 4400 -550 
L 3875 -550 
Q 3900 -100 3900 275 
L 3900 1575 
L 2925 1575 
Q 2500 1575 1925 1550 
L 1925 2025 
Q 2475 2000 2825 2000 
L 3900 2000 
L 3900 3350 
L 2775 3350 
Q 2700 3150 2350 2425 
Q 2275 2500 1900 2650 
Q 2150 3025 2350 3500 
Q 2550 3975 2700 4700 
Q 2900 4575 3275 4475 
z
M 1150 3200 
Q 900 2825 550 2375 
Q 425 2625 200 2750 
Q 650 3200 1025 3850 
Q 1400 4500 1650 5250 
Q 1950 5050 2175 4975 
Q 2000 4825 1625 4025 
L 1625 625 
Q 1625 -175 1650 -575 
L 1125 -575 
Q 1150 -225 1150 600 
L 1150 3200 
z
" id="SimHei-4ef6" transform="scale(0.015625)"/>
       <path d="M 5550 3100 
Q 4450 3050 3825 3025 
L 3825 2675 
L 5375 2675 
Q 5350 2400 5350 2125 
Q 5350 1850 5375 1575 
L 3825 1575 
L 3825 1250 
L 5875 1250 
Q 5850 850 5850 525 
L 5850 -150 
Q 5825 -375 5687 -462 
Q 5550 -550 5000 -650 
Q 4950 -400 4775 -150 
Q 5100 -150 5262 -137 
Q 5425 -125 5400 125 
L 5400 900 
L 3825 900 
L 3825 450 
Q 4200 475 4425 500 
Q 4350 625 4300 700 
Q 4525 775 4650 875 
Q 4925 475 5125 125 
Q 4950 50 4725 -75 
Q 4675 25 4600 150 
Q 4375 150 3800 87 
Q 3225 25 2600 -75 
Q 2575 125 2450 375 
Q 3000 375 3400 425 
L 3400 900 
L 2200 900 
L 2200 -550 
L 1750 -550 
Q 1775 -200 1775 325 
Q 1775 850 1750 1250 
L 3400 1250 
L 3400 1575 
L 2000 1575 
Q 2025 1875 2025 2125 
Q 2025 2400 2000 2675 
L 3400 2675 
L 3400 3000 
Q 2475 2950 1950 2925 
Q 1900 3150 1775 3350 
Q 2700 3350 3612 3400 
Q 4525 3450 5250 3575 
Q 5375 3325 5550 3100 
z
M 5525 5000 
Q 5500 4600 5500 4300 
Q 5500 4025 5525 3750 
L 1475 3750 
Q 1475 3050 1462 2487 
Q 1450 1925 1375 1437 
Q 1300 950 1162 512 
Q 1025 75 750 -450 
Q 525 -325 250 -225 
Q 675 450 837 1100 
Q 1000 1750 1012 2487 
Q 1025 3225 1025 3675 
Q 1025 4125 1000 5000 
L 5525 5000 
z
M 5050 4100 
L 5050 4600 
L 1475 4600 
L 1475 4100 
L 5050 4100 
z
M 4950 1925 
L 4950 2350 
L 3825 2350 
L 3825 1925 
L 4950 1925 
z
M 3400 1925 
L 3400 2350 
L 2425 2350 
L 2425 1925 
L 3400 1925 
z
" id="SimHei-5c5e" transform="scale(0.015625)"/>
       <path d="M 3450 4525 
Q 3325 4075 3275 3750 
L 4050 3750 
L 4050 4275 
Q 4050 4700 4025 5100 
L 4550 5100 
Q 4525 4700 4525 4275 
L 4525 3750 
L 5025 3750 
Q 5350 3750 5800 3775 
L 5800 3300 
Q 5350 3325 5025 3325 
L 4525 3325 
L 4525 2000 
L 4975 2000 
Q 5350 2000 5725 2025 
L 5725 1550 
Q 5350 1575 4975 1575 
L 4525 1575 
L 4525 25 
L 5200 25 
Q 5625 25 6025 50 
L 6025 -400 
Q 5625 -375 5200 -375 
L 3275 -375 
Q 2825 -375 2400 -400 
L 2400 50 
Q 2825 25 3250 25 
L 4050 25 
L 4050 1575 
L 3625 1575 
Q 3300 1575 2875 1550 
L 2875 2025 
Q 3200 2000 3625 2000 
L 4050 2000 
L 4050 3325 
L 3175 3325 
Q 3100 2950 2775 2225 
Q 2500 2375 2325 2400 
Q 2675 3125 2775 3650 
Q 2875 4175 2950 4650 
Q 3200 4575 3450 4525 
z
M 1700 5150 
Q 1675 4650 1675 4175 
L 1675 425 
Q 1675 -100 1700 -625 
L 1175 -625 
Q 1200 -100 1200 425 
L 1200 4175 
Q 1200 4700 1175 5150 
L 1700 5150 
z
M 975 3725 
Q 825 2675 700 2150 
Q 450 2200 250 2250 
Q 425 2900 525 3800 
Q 725 3775 975 3725 
z
M 2125 4025 
Q 2325 3625 2525 3000 
Q 2300 2925 2125 2825 
Q 1950 3375 1750 3850 
Q 1950 3950 2125 4025 
z
" id="SimHei-6027" transform="scale(0.015625)"/>
      </defs>
      <use xlink:href="#SimHei-6761"/>
      <use x="100" xlink:href="#SimHei-4ef6"/>
      <use x="200" xlink:href="#SimHei-5c5e"/>
      <use x="300" xlink:href="#SimHei-6027"/>
     </g>
    </g>
   </g>
   <g id="matplotlib.axis_2">
    <g id="ytick_1">
     <g id="line2d_6">
      <defs>
       <path d="M 0 0 
L -3.5 0 
" id="m8c993b615d" style="stroke:#000000;stroke-width:0.8;"/>
      </defs>
      <g>
       <use style="stroke:#000000;stroke-width:0.8;" x="42.340625" xlink:href="#m8c993b615d" y="225.302429"/>
      </g>
     </g>
     <g id="text_7">
      <!-- 0.0 -->
      <g transform="translate(20.340625 228.739929)scale(0.1 -0.1)">
       <defs>
        <path d="M 225 2537 
Q 250 3200 412 3587 
Q 575 3975 875 4225 
Q 1175 4475 1612 4475 
Q 2050 4475 2375 4112 
Q 2700 3750 2800 3200 
Q 2900 2650 2862 1937 
Q 2825 1225 2612 775 
Q 2400 325 1975 150 
Q 1550 -25 1125 187 
Q 700 400 525 750 
Q 350 1100 275 1487 
Q 200 1875 225 2537 
z
M 750 2687 
Q 675 2000 800 1462 
Q 925 925 1212 700 
Q 1500 475 1800 612 
Q 2100 750 2237 1162 
Q 2375 1575 2375 2062 
Q 2375 2550 2337 2950 
Q 2300 3350 2112 3675 
Q 1925 4000 1612 4012 
Q 1300 4025 1062 3700 
Q 825 3375 750 2687 
z
" id="SimHei-30" transform="scale(0.015625)"/>
        <path d="M 1075 125 
L 500 125 
L 500 675 
L 1075 675 
L 1075 125 
z
" id="SimHei-2e" transform="scale(0.015625)"/>
       </defs>
       <use xlink:href="#SimHei-30"/>
       <use x="50" xlink:href="#SimHei-2e"/>
       <use x="100" xlink:href="#SimHei-30"/>
      </g>
     </g>
    </g>
    <g id="ytick_2">
     <g id="line2d_7">
      <g>
       <use style="stroke:#000000;stroke-width:0.8;" x="42.340625" xlink:href="#m8c993b615d" y="183.885286"/>
      </g>
     </g>
     <g id="text_8">
      <!-- 0.2 -->
      <g transform="translate(20.340625 187.322786)scale(0.1 -0.1)">
       <defs>
        <path d="M 300 250 
Q 325 625 650 925 
Q 975 1225 1475 1862 
Q 1975 2500 2125 2850 
Q 2275 3200 2237 3450 
Q 2200 3700 2000 3862 
Q 1800 4025 1537 4000 
Q 1275 3975 1037 3800 
Q 800 3625 675 3275 
L 200 3350 
Q 400 3925 712 4187 
Q 1025 4450 1450 4475 
Q 1700 4500 1900 4462 
Q 2100 4425 2312 4287 
Q 2525 4150 2662 3875 
Q 2800 3600 2762 3212 
Q 2725 2825 2375 2287 
Q 2025 1750 1025 600 
L 2825 600 
L 2825 150 
L 300 150 
L 300 250 
z
" id="SimHei-32" transform="scale(0.015625)"/>
       </defs>
       <use xlink:href="#SimHei-30"/>
       <use x="50" xlink:href="#SimHei-2e"/>
       <use x="100" xlink:href="#SimHei-32"/>
      </g>
     </g>
    </g>
    <g id="ytick_3">
     <g id="line2d_8">
      <g>
       <use style="stroke:#000000;stroke-width:0.8;" x="42.340625" xlink:href="#m8c993b615d" y="142.468143"/>
      </g>
     </g>
     <g id="text_9">
      <!-- 0.4 -->
      <g transform="translate(20.340625 145.905643)scale(0.1 -0.1)">
       <defs>
        <path d="M 2000 1100 
L 75 1100 
L 75 1525 
L 2100 4450 
L 2475 4450 
L 2475 1525 
L 3075 1525 
L 3075 1100 
L 2475 1100 
L 2475 150 
L 2000 150 
L 2000 1100 
z
M 2000 1525 
L 2000 3500 
L 600 1525 
L 2000 1525 
z
" id="SimHei-34" transform="scale(0.015625)"/>
       </defs>
       <use xlink:href="#SimHei-30"/>
       <use x="50" xlink:href="#SimHei-2e"/>
       <use x="100" xlink:href="#SimHei-34"/>
      </g>
     </g>
    </g>
    <g id="ytick_4">
     <g id="line2d_9">
      <g>
       <use style="stroke:#000000;stroke-width:0.8;" x="42.340625" xlink:href="#m8c993b615d" y="101.051"/>
      </g>
     </g>
     <g id="text_10">
      <!-- 0.6 -->
      <g transform="translate(20.340625 104.4885)scale(0.1 -0.1)">
       <defs>
        <path d="M 250 1612 
Q 275 1975 387 2225 
Q 500 2475 725 2850 
L 1750 4450 
L 2325 4450 
L 1275 2800 
Q 1950 2975 2350 2750 
Q 2750 2525 2887 2237 
Q 3025 1950 3037 1612 
Q 3050 1275 2937 950 
Q 2825 625 2537 362 
Q 2250 100 1737 75 
Q 1225 50 862 262 
Q 500 475 362 862 
Q 225 1250 250 1612 
z
M 1025 787 
Q 1250 550 1625 525 
Q 2000 500 2250 775 
Q 2500 1050 2500 1575 
Q 2500 2100 2187 2300 
Q 1875 2500 1487 2450 
Q 1100 2400 925 2075 
Q 750 1750 775 1387 
Q 800 1025 1025 787 
z
" id="SimHei-36" transform="scale(0.015625)"/>
       </defs>
       <use xlink:href="#SimHei-30"/>
       <use x="50" xlink:href="#SimHei-2e"/>
       <use x="100" xlink:href="#SimHei-36"/>
      </g>
     </g>
    </g>
    <g id="ytick_5">
     <g id="line2d_10">
      <g>
       <use style="stroke:#000000;stroke-width:0.8;" x="42.340625" xlink:href="#m8c993b615d" y="59.633857"/>
      </g>
     </g>
     <g id="text_11">
      <!-- 0.8 -->
      <g transform="translate(20.340625 63.071357)scale(0.1 -0.1)">
       <defs>
        <path d="M 175 1375 
Q 175 1675 325 1962 
Q 475 2250 825 2425 
Q 525 2600 425 2812 
Q 325 3025 312 3300 
Q 300 3575 387 3775 
Q 475 3975 650 4150 
Q 825 4325 1037 4387 
Q 1250 4450 1500 4450 
Q 1750 4450 1950 4400 
Q 2150 4350 2375 4187 
Q 2600 4025 2700 3725 
Q 2800 3425 2687 3025 
Q 2575 2625 2100 2400 
Q 2525 2275 2700 2012 
Q 2875 1750 2875 1375 
Q 2875 1000 2762 775 
Q 2650 550 2512 400 
Q 2375 250 2137 162 
Q 1900 75 1537 75 
Q 1175 75 912 162 
Q 650 250 475 425 
Q 300 600 237 837 
Q 175 1075 175 1375 
z
M 687 1400 
Q 675 1100 787 875 
Q 900 650 1200 587 
Q 1500 525 1825 600 
Q 2150 675 2275 950 
Q 2400 1225 2362 1500 
Q 2325 1775 2050 1962 
Q 1775 2150 1450 2125 
Q 1125 2100 912 1900 
Q 700 1700 687 1400 
z
M 775 3350 
Q 775 3100 950 2875 
Q 1125 2650 1500 2650 
Q 1875 2650 2062 2875 
Q 2250 3100 2237 3412 
Q 2225 3725 2012 3875 
Q 1800 4025 1437 4000 
Q 1075 3975 925 3787 
Q 775 3600 775 3350 
z
" id="SimHei-38" transform="scale(0.015625)"/>
       </defs>
       <use xlink:href="#SimHei-30"/>
       <use x="50" xlink:href="#SimHei-2e"/>
       <use x="100" xlink:href="#SimHei-38"/>
      </g>
     </g>
    </g>
    <g id="ytick_6">
     <g id="line2d_11">
      <g>
       <use style="stroke:#000000;stroke-width:0.8;" x="42.340625" xlink:href="#m8c993b615d" y="18.216714"/>
      </g>
     </g>
     <g id="text_12">
      <!-- 1.0 -->
      <g transform="translate(20.340625 21.654214)scale(0.1 -0.1)">
       <defs>
        <path d="M 1400 3600 
Q 1075 3275 575 2975 
L 575 3450 
Q 1200 3875 1600 4450 
L 1900 4450 
L 1900 150 
L 1400 150 
L 1400 3600 
z
" id="SimHei-31" transform="scale(0.015625)"/>
       </defs>
       <use xlink:href="#SimHei-31"/>
       <use x="50" xlink:href="#SimHei-2e"/>
       <use x="100" xlink:href="#SimHei-30"/>
      </g>
     </g>
    </g>
    <g id="text_13">
     <!-- 概率 -->
     <g transform="translate(15.090625 126.582429)rotate(-90)scale(0.1 -0.1)">
      <defs>
       <path d="M 3100 1150 
Q 3000 1350 2900 1475 
Q 3075 1600 3275 1725 
Q 3425 1475 3537 1262 
Q 3650 1050 3825 750 
Q 3675 625 3425 450 
Q 3375 600 3275 800 
Q 3075 625 2775 412 
Q 2475 200 2250 -50 
Q 2075 200 1925 350 
Q 2100 525 2125 875 
L 2125 4000 
Q 2125 4425 2100 4700 
L 3575 4700 
Q 3550 4325 3550 3475 
Q 3550 2650 3575 2200 
L 2550 2200 
L 2550 750 
Q 2725 850 3100 1150 
z
M 3325 -700 
Q 3200 -500 2950 -325 
Q 3400 -75 3850 637 
Q 4300 1350 4500 2350 
L 3800 2350 
Q 3825 2725 3825 3075 
Q 3825 3425 3800 3750 
L 4275 3750 
Q 4225 3550 4225 3250 
L 4225 2725 
L 4600 2725 
Q 4675 3500 4675 4400 
L 4425 4400 
Q 4075 4400 3800 4375 
L 3800 4800 
Q 4100 4775 4425 4775 
L 5150 4775 
Q 5625 4775 5850 4800 
L 5850 4375 
Q 5650 4400 5100 4400 
Q 5100 3700 5025 2725 
L 5375 2725 
Q 5600 2725 5925 2750 
L 5925 2325 
Q 5600 2350 5425 2350 
L 4950 2350 
Q 4625 1075 4287 462 
Q 3950 -150 3325 -700 
z
M 1000 4425 
Q 1000 4750 975 5050 
L 1475 5050 
Q 1425 4725 1425 4300 
L 1425 3800 
Q 1625 3800 1925 3825 
L 1925 3400 
Q 1600 3425 1425 3425 
L 1425 2650 
Q 1550 2725 1700 2825 
Q 1900 2350 2075 1875 
Q 1850 1825 1700 1700 
Q 1600 2050 1425 2450 
L 1425 300 
Q 1425 -125 1450 -575 
L 975 -575 
Q 1000 -50 1000 300 
L 1000 2025 
Q 825 1450 550 950 
Q 450 1150 175 1350 
Q 500 1825 662 2275 
Q 825 2725 950 3425 
Q 500 3425 350 3400 
L 350 3825 
Q 550 3800 1000 3800 
L 1000 4425 
z
M 5300 1725 
Q 5275 1050 5275 225 
Q 5275 -50 5412 -75 
Q 5550 -100 5625 -87 
Q 5700 -75 5737 37 
Q 5775 150 5775 475 
Q 6000 350 6250 300 
Q 6150 -225 6050 -350 
Q 5950 -475 5650 -475 
L 5350 -475 
Q 4800 -450 4850 50 
Q 4850 925 4850 1725 
L 5300 1725 
z
M 3125 2575 
L 3125 3275 
L 2550 3275 
L 2550 2575 
L 3125 2575 
z
M 3125 3650 
L 3125 4325 
L 2550 4325 
L 2550 3650 
L 3125 3650 
z
" id="SimHei-6982" transform="scale(0.015625)"/>
       <path d="M 3325 5150 
Q 3425 4900 3550 4525 
L 4800 4525 
Q 5250 4525 5800 4550 
L 5800 4125 
Q 5250 4175 4775 4175 
L 2800 4175 
Q 2975 4050 3300 3900 
Q 3075 3750 2875 3537 
Q 2675 3325 2475 3125 
L 3275 3125 
Q 3575 3425 3775 3775 
Q 4000 3600 4275 3425 
Q 3950 3250 3600 2875 
Q 3250 2500 2625 2000 
L 3850 2100 
Q 3725 2250 3600 2425 
Q 3750 2475 4000 2650 
Q 4250 2350 4700 1700 
Q 4475 1625 4225 1450 
Q 4175 1600 4025 1775 
Q 3700 1750 3425 1750 
L 3425 1050 
L 5150 1050 
Q 5675 1050 6100 1075 
L 6100 650 
Q 5700 675 5125 675 
L 3425 675 
L 3425 175 
Q 3425 -300 3450 -625 
L 2900 -625 
Q 2925 -300 2925 175 
L 2925 675 
L 1325 675 
Q 825 675 325 650 
L 325 1075 
Q 825 1050 1350 1050 
L 2925 1050 
L 2925 1700 
Q 2700 1675 2475 1637 
Q 2250 1600 2025 1525 
Q 1950 1775 1850 2000 
Q 2075 2025 2325 2200 
Q 2575 2375 2975 2800 
Q 2300 2725 2025 2625 
Q 1975 2875 1850 3175 
Q 2075 3175 2325 3487 
Q 2575 3800 2750 4175 
L 1700 4175 
Q 1150 4175 650 4125 
L 650 4550 
Q 1150 4525 1550 4525 
L 2975 4525 
Q 2900 4825 2800 5025 
Q 3025 5075 3325 5150 
z
M 1625 2575 
Q 1725 2400 1825 2200 
Q 1575 2050 1325 1862 
Q 1075 1675 800 1425 
Q 625 1675 475 1875 
Q 800 2025 1100 2212 
Q 1400 2400 1625 2575 
z
M 4850 2650 
Q 5125 2475 5337 2337 
Q 5550 2200 5875 1950 
Q 5675 1800 5500 1600 
Q 5300 1775 5062 1975 
Q 4825 2175 4575 2325 
Q 4725 2475 4850 2650 
z
M 5725 3525 
Q 5550 3450 5300 3262 
Q 5050 3075 4800 2825 
Q 4625 3050 4475 3175 
Q 4700 3325 4875 3487 
Q 5050 3650 5300 3925 
Q 5525 3700 5725 3525 
z
M 1050 3850 
Q 1425 3600 1775 3275 
Q 1575 3100 1425 2925 
Q 1075 3300 675 3525 
Q 875 3700 1050 3850 
z
" id="SimHei-7387" transform="scale(0.015625)"/>
      </defs>
      <use xlink:href="#SimHei-6982"/>
      <use x="100" xlink:href="#SimHei-7387"/>
     </g>
    </g>
   </g>
   <g id="patch_8">
    <path d="M 42.340625 225.302429 
L 42.340625 7.862429 
" style="fill:none;stroke:#000000;stroke-linecap:square;stroke-linejoin:miter;stroke-width:0.8;"/>
   </g>
   <g id="patch_9">
    <path d="M 42.340625 225.302429 
L 377.140625 225.302429 
" style="fill:none;stroke:#000000;stroke-linecap:square;stroke-linejoin:miter;stroke-width:0.8;"/>
   </g>
   <g id="text_14">
    <!-- 1.00 -->
    <g transform="translate(64.467898 14.075)scale(0.1 -0.1)">
     <use xlink:href="#SimHei-31"/>
     <use x="50" xlink:href="#SimHei-2e"/>
     <use x="100" xlink:href="#SimHei-30"/>
     <use x="150" xlink:href="#SimHei-30"/>
    </g>
   </g>
   <g id="text_15">
    <!-- 0.86 -->
    <g transform="translate(132.104261 43.658673)scale(0.1 -0.1)">
     <use xlink:href="#SimHei-30"/>
     <use x="50" xlink:href="#SimHei-2e"/>
     <use x="100" xlink:href="#SimHei-38"/>
     <use x="150" xlink:href="#SimHei-36"/>
    </g>
   </g>
   <g id="text_16">
    <!-- 0.79 -->
    <g transform="translate(199.740625 58.45051)scale(0.1 -0.1)">
     <defs>
      <path d="M 850 150 
Q 1300 2050 2425 3925 
L 275 3925 
L 275 4375 
L 2950 4375 
L 2950 3950 
Q 1775 2050 1400 150 
L 850 150 
z
" id="SimHei-37" transform="scale(0.015625)"/>
      <path d="M 800 75 
Q 1350 1000 1700 1750 
Q 1075 1650 662 1912 
Q 250 2175 162 2625 
Q 75 3075 175 3437 
Q 275 3800 487 4037 
Q 700 4275 1000 4375 
Q 1300 4475 1537 4475 
Q 1775 4475 2025 4375 
Q 2275 4275 2475 4075 
Q 2675 3875 2750 3662 
Q 2825 3450 2825 3112 
Q 2825 2775 2575 2250 
Q 2325 1725 1350 75 
L 800 75 
z
M 662 2875 
Q 700 2550 937 2337 
Q 1175 2125 1450 2150 
Q 1725 2175 1887 2300 
Q 2050 2425 2200 2725 
Q 2300 3100 2250 3362 
Q 2200 3625 1987 3800 
Q 1775 3975 1525 3975 
Q 1375 4000 1137 3900 
Q 900 3800 762 3500 
Q 625 3200 662 2875 
z
" id="SimHei-39" transform="scale(0.015625)"/>
     </defs>
     <use xlink:href="#SimHei-30"/>
     <use x="50" xlink:href="#SimHei-2e"/>
     <use x="100" xlink:href="#SimHei-37"/>
     <use x="150" xlink:href="#SimHei-39"/>
    </g>
   </g>
   <g id="text_17">
    <!-- 0.11 -->
    <g transform="translate(267.376989 198.972959)scale(0.1 -0.1)">
     <use xlink:href="#SimHei-30"/>
     <use x="50" xlink:href="#SimHei-2e"/>
     <use x="100" xlink:href="#SimHei-31"/>
     <use x="150" xlink:href="#SimHei-31"/>
    </g>
   </g>
   <g id="text_18">
    <!-- 0.21 -->
    <g transform="translate(335.013352 176.785204)scale(0.1 -0.1)">
     <use xlink:href="#SimHei-30"/>
     <use x="50" xlink:href="#SimHei-2e"/>
     <use x="100" xlink:href="#SimHei-32"/>
     <use x="150" xlink:href="#SimHei-31"/>
    </g>
   </g>
   <g id="text_19">
    <!-- 图3 条件属性在决策路径中的概率分布 -->
    <g transform="translate(116.240625 284.534429)scale(0.11 -0.11)">
     <defs>
      <path d="M 5800 4975 
Q 5775 4350 5775 3600 
L 5775 925 
Q 5775 150 5800 -600 
L 5300 -600 
L 5300 -275 
L 1125 -275 
L 1125 -650 
L 625 -650 
Q 650 125 650 950 
L 650 3600 
Q 650 4325 625 4975 
L 5800 4975 
z
M 5300 150 
L 5300 4575 
L 1125 4575 
L 1125 150 
L 5300 150 
z
M 3225 4250 
Q 3075 4100 2950 3925 
L 4625 3925 
Q 4525 3700 4300 3375 
Q 4075 3050 3600 2600 
Q 4350 2225 5075 2150 
Q 4900 1925 4775 1675 
Q 3850 1950 3225 2350 
Q 2500 1875 1675 1650 
Q 1600 1875 1400 2075 
Q 2200 2200 2875 2600 
Q 2525 2925 2375 3150 
Q 2150 2900 1900 2650 
Q 1725 2850 1525 2950 
Q 1950 3300 2250 3737 
Q 2550 4175 2675 4475 
Q 2925 4350 3225 4250 
z
M 2450 1275 
Q 3550 950 4100 725 
Q 3975 525 3850 300 
Q 2825 725 2275 850 
Q 2375 1050 2450 1275 
z
M 2925 2050 
Q 3775 1700 4075 1600 
Q 3950 1400 3850 1150 
Q 3000 1550 2700 1650 
Q 2825 1825 2925 2050 
z
M 2625 3450 
Q 3000 3025 3275 2850 
Q 3600 3100 3875 3525 
L 2675 3525 
L 2625 3450 
z
" id="SimHei-56fe" transform="scale(0.015625)"/>
      <path d="M 250 1225 
L 700 1300 
Q 800 975 1025 762 
Q 1250 550 1587 562 
Q 1925 575 2125 837 
Q 2325 1100 2300 1437 
Q 2275 1775 2037 1962 
Q 1800 2150 1275 2225 
L 1275 2550 
Q 1800 2600 2037 2825 
Q 2275 3050 2250 3412 
Q 2225 3775 1925 3937 
Q 1625 4100 1287 3975 
Q 950 3850 750 3275 
L 300 3350 
Q 450 3800 712 4100 
Q 975 4400 1425 4450 
Q 1875 4500 2212 4337 
Q 2550 4175 2687 3837 
Q 2825 3500 2725 3100 
Q 2625 2700 2150 2400 
Q 2500 2250 2687 1950 
Q 2875 1650 2812 1162 
Q 2750 675 2375 375 
Q 2000 75 1525 87 
Q 1050 100 700 387 
Q 350 675 250 1225 
z
" id="SimHei-33" transform="scale(0.015625)"/>
      <path id="SimHei-20" transform="scale(0.015625)"/>
      <path d="M 2425 4200 
Q 2525 4525 2600 4762 
Q 2675 5000 2700 5250 
Q 3050 5175 3325 5100 
Q 3200 4850 3150 4712 
Q 3100 4575 2975 4200 
L 5000 4200 
Q 5525 4200 5950 4225 
L 5950 3750 
Q 5525 3775 5000 3775 
L 2825 3775 
Q 2675 3425 2437 3000 
Q 2200 2575 1825 2075 
L 1825 325 
Q 1825 -175 1850 -650 
L 1325 -650 
Q 1350 -175 1350 325 
L 1350 1625 
Q 950 1250 625 1000 
Q 450 1225 200 1375 
Q 500 1550 800 1800 
Q 1100 2050 1350 2375 
Q 1350 2600 1325 2825 
L 1725 2825 
Q 1900 3025 2037 3275 
Q 2175 3525 2275 3775 
L 1675 3775 
Q 1075 3775 625 3750 
L 625 4225 
Q 1100 4200 1675 4200 
L 2425 4200 
z
M 3700 2250 
L 3700 2600 
Q 3700 3100 3675 3400 
L 4225 3400 
Q 4200 3100 4200 2600 
L 4200 2250 
L 4775 2250 
Q 5225 2250 5600 2275 
L 5600 1800 
Q 5225 1825 4775 1825 
L 4200 1825 
L 4200 150 
L 5150 150 
Q 5625 150 6000 175 
L 6000 -275 
Q 5625 -250 5150 -250 
L 3125 -250 
Q 2475 -250 2100 -275 
L 2100 175 
Q 2475 150 3125 150 
L 3700 150 
L 3700 1825 
L 3225 1825 
Q 2775 1825 2350 1800 
L 2350 2275 
Q 2775 2250 3225 2250 
L 3700 2250 
z
" id="SimHei-5728" transform="scale(0.015625)"/>
      <path d="M 3400 3700 
Q 2675 3700 2225 3675 
L 2225 4150 
Q 2675 4125 3400 4125 
Q 3400 4825 3375 5200 
Q 3650 5175 3950 5150 
Q 3900 4800 3900 4125 
L 5375 4125 
Q 5350 3725 5350 2300 
Q 5750 2300 6050 2325 
L 6050 1850 
Q 5675 1875 5300 1875 
L 4025 1875 
Q 4750 325 6200 50 
Q 5925 -150 5825 -525 
Q 4275 0 3700 1500 
Q 3150 150 1800 -650 
Q 1650 -400 1375 -250 
Q 2850 500 3300 1875 
L 2900 1875 
Q 2450 1875 2000 1850 
L 2000 2325 
Q 2450 2300 2900 2300 
L 3350 2300 
Q 3400 3125 3400 3700 
z
M 4850 2300 
L 4850 3700 
L 3900 3700 
Q 3875 2850 3850 2300 
L 4850 2300 
z
M 1825 2150 
Q 1550 1675 1250 1087 
Q 950 500 800 150 
Q 575 350 250 525 
Q 525 850 850 1400 
Q 1175 1950 1375 2500 
Q 1550 2300 1825 2150 
z
M 750 4725 
Q 1025 4425 1275 4125 
Q 1525 3825 1800 3500 
Q 1600 3350 1375 3125 
Q 1150 3450 350 4350 
Q 550 4525 750 4725 
z
" id="SimHei-51b3" transform="scale(0.015625)"/>
      <path d="M 4600 750 
Q 4525 1000 4325 1275 
Q 4625 1275 4787 1300 
Q 4950 1325 4950 1500 
L 4950 1950 
L 3425 1950 
L 3425 1575 
Q 3625 1250 3950 987 
Q 4275 725 4625 537 
Q 4975 350 5325 237 
Q 5675 125 6150 50 
Q 5850 -200 5725 -525 
Q 5375 -400 5050 -237 
Q 4725 -75 4437 100 
Q 4150 275 3887 487 
Q 3625 700 3425 950 
L 3425 275 
Q 3425 -75 3450 -675 
L 2950 -675 
Q 2975 -75 2975 275 
L 2975 1150 
Q 2700 750 2275 375 
Q 1850 0 1575 -175 
Q 1300 -350 825 -650 
Q 725 -475 350 -225 
Q 675 -100 975 50 
Q 1275 200 1650 462 
Q 2025 725 2387 1112 
Q 2750 1500 2950 1950 
L 1500 1950 
L 1500 825 
L 1000 825 
Q 1025 1325 1025 1675 
Q 1025 2025 1000 2325 
L 2975 2325 
L 2975 2825 
L 1425 2825 
Q 1000 2825 550 2800 
L 550 3250 
Q 1000 3225 1400 3225 
L 2975 3225 
Q 2975 3475 2950 3650 
L 3450 3650 
Q 3425 3450 3425 3225 
L 5175 3225 
Q 5500 3225 5925 3250 
L 5925 2800 
Q 5525 2825 5200 2825 
L 3425 2825 
L 3425 2325 
L 5425 2325 
Q 5400 2025 5400 1725 
Q 5400 1450 5375 1225 
Q 5350 1000 5137 900 
Q 4925 800 4600 750 
z
M 4525 5050 
Q 4300 4850 4200 4675 
L 5175 4675 
Q 5600 4675 6075 4700 
L 6075 4250 
Q 5600 4275 4875 4275 
Q 4950 4025 5050 3675 
Q 4775 3625 4550 3550 
Q 4500 3975 4400 4275 
L 3950 4275 
Q 3750 4000 3525 3700 
Q 3300 3850 3075 3925 
Q 3375 4225 3612 4612 
Q 3850 5000 3950 5300 
Q 4175 5150 4525 5050 
z
M 1950 5075 
Q 1700 4850 1550 4675 
L 2275 4675 
Q 2625 4675 3125 4700 
L 3125 4250 
Q 2625 4275 2200 4275 
Q 2275 4000 2375 3650 
Q 2150 3600 1925 3500 
Q 1850 3850 1750 4275 
L 1300 4275 
Q 1025 3950 650 3600 
Q 475 3750 225 3900 
Q 625 4175 925 4562 
Q 1225 4950 1425 5300 
Q 1675 5175 1950 5075 
z
" id="SimHei-7b56" transform="scale(0.015625)"/>
      <path d="M 2900 425 
Q 1225 -75 475 -350 
Q 425 -150 275 125 
Q 525 150 700 225 
L 700 1800 
Q 700 2000 675 2325 
L 1150 2325 
Q 1125 2100 1125 1675 
L 1125 325 
Q 1300 375 1550 450 
L 1550 2975 
L 725 2975 
Q 750 3225 750 3850 
Q 750 4500 725 4750 
L 2650 4750 
Q 2625 4475 2625 3850 
Q 2625 3250 2650 2975 
L 1975 2975 
L 1975 2075 
Q 2275 2075 2600 2100 
L 2600 1650 
Q 2275 1675 1975 1675 
L 1975 550 
Q 2200 600 2900 875 
Q 2875 675 2900 425 
z
M 4225 5025 
Q 4075 4850 3925 4550 
L 5750 4550 
Q 5575 4125 5287 3650 
Q 5000 3175 4750 2850 
Q 5325 2400 6200 2200 
Q 6000 1950 5900 1750 
Q 5600 1875 5200 2087 
Q 4800 2300 4475 2550 
Q 4150 2300 3762 2100 
Q 3375 1900 2925 1700 
Q 2825 1925 2650 2125 
Q 2975 2200 3400 2375 
Q 3825 2550 4150 2825 
Q 3900 3075 3425 3650 
Q 3250 3350 3100 3150 
Q 2950 3300 2725 3425 
Q 3000 3675 3275 4187 
Q 3550 4700 3700 5225 
Q 3975 5050 4225 5025 
z
M 5525 1800 
Q 5500 1475 5500 650 
Q 5500 -150 5525 -525 
L 5050 -525 
L 5050 -50 
L 3625 -50 
L 3625 -550 
L 3175 -550 
Q 3200 -125 3200 650 
Q 3200 1450 3175 1800 
L 5525 1800 
z
M 5050 325 
L 5050 1400 
L 3625 1400 
L 3625 325 
L 5050 325 
z
M 2200 3350 
L 2200 4375 
L 1175 4375 
L 1175 3350 
L 2200 3350 
z
M 3650 4000 
Q 3950 3550 4425 3125 
Q 4575 3275 4775 3612 
Q 4975 3950 5075 4175 
L 3750 4175 
L 3650 4000 
z
" id="SimHei-8def" transform="scale(0.015625)"/>
      <path d="M 4700 1875 
Q 5325 1875 5675 1900 
L 5675 1425 
Q 5350 1450 4725 1450 
L 4350 1450 
L 4350 100 
L 5375 100 
L 6075 150 
L 6075 -350 
Q 5725 -325 5375 -325 
L 2900 -325 
Q 2450 -325 2075 -350 
L 2075 125 
Q 2450 100 2900 100 
L 3875 100 
L 3875 1450 
L 3550 1450 
Q 3100 1450 2575 1425 
L 2575 1900 
Q 3100 1875 3550 1875 
L 4700 1875 
z
M 5625 4700 
Q 5400 4325 5162 4037 
Q 4925 3750 4625 3425 
Q 5475 2950 6050 2550 
Q 5825 2350 5675 2175 
Q 4825 2850 4300 3150 
Q 3900 2850 3550 2650 
Q 3200 2450 2525 2100 
Q 2450 2275 2175 2525 
Q 2775 2700 3537 3162 
Q 4300 3625 4775 4300 
L 3475 4300 
Q 3025 4300 2625 4275 
L 2625 4725 
Q 3000 4700 3450 4700 
L 5625 4700 
z
M 2550 3600 
Q 2300 3375 1725 2625 
L 1725 575 
Q 1725 50 1750 -600 
L 1250 -600 
Q 1275 50 1275 600 
L 1275 2150 
Q 925 1825 600 1550 
Q 450 1725 275 1900 
Q 850 2275 1337 2837 
Q 1825 3400 2100 3950 
Q 2300 3775 2550 3600 
z
M 2275 4850 
Q 2100 4650 1637 4150 
Q 1175 3650 750 3275 
Q 600 3450 375 3625 
Q 825 3925 1212 4337 
Q 1600 4750 1850 5175 
Q 2050 5000 2275 4850 
z
" id="SimHei-5f84" transform="scale(0.015625)"/>
      <path d="M 3475 5200 
Q 3450 4500 3450 3875 
L 5625 3875 
Q 5600 3375 5600 2500 
Q 5600 1650 5625 1225 
L 5075 1225 
L 5075 1600 
L 3450 1600 
L 3450 525 
Q 3450 225 3475 -600 
L 2875 -600 
Q 2925 -150 2925 450 
L 2925 1600 
L 1300 1600 
L 1300 1225 
L 750 1225 
Q 775 1600 775 2500 
Q 775 3425 750 3875 
L 2925 3875 
Q 2925 4550 2900 5200 
L 3475 5200 
z
M 5075 2000 
L 5075 3475 
L 3450 3475 
L 3450 2000 
L 5075 2000 
z
M 2925 2000 
L 2925 3475 
L 1300 3475 
L 1300 2000 
L 2925 2000 
z
" id="SimHei-4e2d" transform="scale(0.015625)"/>
      <path d="M 2100 4975 
Q 1975 4750 1750 3950 
L 2875 3950 
Q 2850 3525 2850 2875 
L 2850 675 
Q 2850 300 2875 -400 
L 2375 -400 
L 2375 100 
L 1100 100 
L 1100 -450 
L 600 -450 
Q 625 350 625 550 
L 625 2850 
Q 625 3525 600 3950 
L 1325 3950 
Q 1450 4525 1525 5150 
Q 1875 5025 2100 4975 
z
M 5825 3075 
Q 5800 1550 5700 175 
Q 5650 -275 5225 -425 
Q 4800 -575 4275 -625 
Q 4250 -350 4050 -50 
Q 4550 -75 4837 -25 
Q 5125 25 5200 200 
Q 5275 375 5312 1225 
Q 5350 2075 5375 3600 
L 3925 3600 
Q 3725 3125 3350 2475 
Q 3175 2650 2925 2750 
Q 3150 3050 3350 3475 
Q 3550 3900 3700 4400 
Q 3850 4900 3875 5175 
Q 4225 5025 4475 4950 
Q 4350 4750 4262 4512 
Q 4175 4275 4075 4050 
L 5850 4050 
Q 5825 3525 5825 3075 
z
M 2375 525 
L 2375 1850 
L 1100 1850 
L 1100 525 
L 2375 525 
z
M 2375 2275 
L 2375 3525 
L 1100 3525 
L 1100 2275 
L 2375 2275 
z
M 4350 2050 
Q 4500 1750 4700 1275 
Q 4525 1200 4225 1025 
Q 4050 1500 3900 1837 
Q 3750 2175 3600 2400 
Q 3775 2500 4050 2650 
L 4350 2050 
z
" id="SimHei-7684" transform="scale(0.015625)"/>
      <path d="M 1000 -650 
Q 825 -375 575 -225 
Q 975 -75 1300 137 
Q 1625 350 1875 662 
Q 2125 975 2250 1350 
Q 2375 1725 2425 2275 
Q 1850 2275 1500 2250 
L 1500 2775 
Q 1900 2750 2525 2750 
L 5025 2750 
Q 4975 2375 4950 2100 
L 4750 250 
Q 4700 -200 4350 -350 
Q 4000 -500 3575 -525 
Q 3550 -275 3325 50 
Q 3850 25 4037 87 
Q 4225 150 4275 525 
L 4450 2275 
L 2950 2275 
Q 2875 1625 2737 1187 
Q 2600 750 2350 425 
Q 2100 100 1750 -175 
Q 1400 -450 1000 -650 
z
M 3950 5175 
Q 4125 4650 4662 3975 
Q 5200 3300 6175 2800 
Q 5975 2625 5775 2275 
Q 5325 2600 4987 2887 
Q 4650 3175 4425 3425 
Q 4200 3675 3925 4137 
Q 3650 4600 3475 5000 
Q 3750 5075 3950 5175 
z
M 2700 4825 
Q 2475 4425 2325 4125 
Q 2175 3825 2025 3587 
Q 1875 3350 1575 2950 
Q 1275 2550 850 2125 
Q 625 2350 400 2475 
Q 900 2925 1187 3300 
Q 1475 3675 1737 4112 
Q 2000 4550 2200 5075 
Q 2400 4925 2700 4825 
z
" id="SimHei-5206" transform="scale(0.015625)"/>
      <path d="M 2375 4225 
Q 2650 4775 2775 5300 
Q 3125 5175 3400 5075 
Q 3275 4975 2950 4225 
L 4800 4225 
Q 5550 4225 6025 4250 
L 6025 3800 
L 2725 3800 
Q 2325 3100 1975 2675 
L 3275 2675 
Q 3275 3225 3250 3575 
L 3775 3575 
Q 3750 3225 3750 2675 
L 5500 2675 
Q 5475 2225 5475 1775 
L 5475 750 
Q 5475 275 5212 150 
Q 4950 25 4450 -25 
Q 4400 325 4225 550 
Q 4800 550 4912 625 
Q 5025 700 5000 1025 
L 5000 2250 
L 3750 2250 
L 3750 550 
Q 3750 25 3775 -600 
L 3250 -600 
Q 3275 25 3275 550 
L 3275 2250 
L 2100 2250 
L 2100 0 
L 1600 0 
Q 1625 525 1625 1025 
L 1625 2225 
Q 1300 1850 650 1275 
Q 475 1475 200 1650 
Q 750 2025 1262 2562 
Q 1775 3100 2150 3800 
L 1550 3800 
Q 925 3800 400 3775 
L 400 4250 
Q 925 4225 1550 4225 
L 2375 4225 
z
" id="SimHei-5e03" transform="scale(0.015625)"/>
     </defs>
     <use xlink:href="#SimHei-56fe"/>
     <use x="100" xlink:href="#SimHei-33"/>
     <use x="150" xlink:href="#SimHei-20"/>
     <use x="200" xlink:href="#SimHei-6761"/>
     <use x="300" xlink:href="#SimHei-4ef6"/>
     <use x="400" xlink:href="#SimHei-5c5e"/>
     <use x="500" xlink:href="#SimHei-6027"/>
     <use x="600" xlink:href="#SimHei-5728"/>
     <use x="700" xlink:href="#SimHei-51b3"/>
     <use x="800" xlink:href="#SimHei-7b56"/>
     <use x="900" xlink:href="#SimHei-8def"/>
     <use x="1000" xlink:href="#SimHei-5f84"/>
     <use x="1100" xlink:href="#SimHei-4e2d"/>
     <use x="1200" xlink:href="#SimHei-7684"/>
     <use x="1300" xlink:href="#SimHei-6982"/>
     <use x="1400" xlink:href="#SimHei-7387"/>
     <use x="1500" xlink:href="#SimHei-5206"/>
     <use x="1600" xlink:href="#SimHei-5e03"/>
    </g>
   </g>
  </g>
 </g>
 <defs>
  <clipPath id="p5a1b92b1b7">
   <rect height="217.44" width="334.8" x="42.340625" y="7.862429"/>
  </clipPath>
 </defs>
</svg>
