<?xml version="1.0" encoding="utf-8" standalone="no"?>
<!DOCTYPE svg PUBLIC "-//W3C//DTD SVG 1.1//EN"
  "http://www.w3.org/Graphics/SVG/1.1/DTD/svg11.dtd">
<svg xmlns:xlink="http://www.w3.org/1999/xlink" width="380.3625pt" height="248.418054pt" viewBox="0 0 380.3625 248.418054" xmlns="http://www.w3.org/2000/svg" version="1.1">
 <metadata>
  <rdf:RDF xmlns:dc="http://purl.org/dc/elements/1.1/" xmlns:cc="http://creativecommons.org/ns#" xmlns:rdf="http://www.w3.org/1999/02/22-rdf-syntax-ns#">
   <cc:Work>
    <dc:type rdf:resource="http://purl.org/dc/dcmitype/StillImage"/>
    <dc:date>2022-01-19T17:29:18.482371</dc:date>
    <dc:format>image/svg+xml</dc:format>
    <dc:creator>
     <cc:Agent>
      <dc:title>Matplotlib v3.5.1, https://matplotlib.org/</dc:title>
     </cc:Agent>
    </dc:creator>
   </cc:Work>
  </rdf:RDF>
 </metadata>
 <defs>
  <style type="text/css">*{stroke-linejoin: round; stroke-linecap: butt}</style>
 </defs>
 <g id="figure_1">
  <g id="patch_1">
   <path d="M 0 248.418054 
L 380.3625 248.418054 
L 380.3625 0 
L 0 0 
L 0 248.418054 
z
" style="fill: none"/>
  </g>
  <g id="axes_1">
   <g id="patch_2">
    <path d="M 38.3625 225.627429 
L 373.1625 225.627429 
L 373.1625 8.187429 
L 38.3625 8.187429 
z
" style="fill: #ffffff"/>
   </g>
   <g id="patch_3">
    <path d="M 53.580682 225.627429 
L 87.398864 225.627429 
L 87.398864 18.541714 
L 53.580682 18.541714 
z
" clip-path="url(#pcc87fbd1bc)" style="fill: #012e6b"/>
   </g>
   <g id="patch_4">
    <path d="M 121.217045 225.627429 
L 155.035227 225.627429 
L 155.035227 85.10498 
L 121.217045 85.10498 
z
" clip-path="url(#pcc87fbd1bc)" style="fill: #012e6b"/>
   </g>
   <g id="patch_5">
    <path d="M 188.853409 225.627429 
L 222.671591 225.627429 
L 222.671591 44.427429 
L 188.853409 44.427429 
z
" clip-path="url(#pcc87fbd1bc)" style="fill: #012e6b"/>
   </g>
   <g id="patch_6">
    <path d="M 256.489773 225.627429 
L 290.307955 225.627429 
L 290.307955 144.272327 
L 256.489773 144.272327 
z
" clip-path="url(#pcc87fbd1bc)" style="fill: #012e6b"/>
   </g>
   <g id="patch_7">
    <path d="M 324.126136 225.627429 
L 357.944318 225.627429 
L 357.944318 203.439673 
L 324.126136 203.439673 
z
" clip-path="url(#pcc87fbd1bc)" style="fill: #012e6b"/>
   </g>
   <g id="matplotlib.axis_1">
    <g id="xtick_1">
     <g id="line2d_1">
      <defs>
       <path id="me48265a1ca" d="M 0 0 
L 0 3.5 
" style="stroke: #000000; stroke-width: 0.8"/>
      </defs>
      <g>
       <use xlink:href="#me48265a1ca" x="70.489773" y="225.627429" style="stroke: #000000; stroke-width: 0.8"/>
      </g>
     </g>
     <g id="text_1">
      <!-- DC -->
      <g transform="translate(63.435085 239.827429)scale(0.1 -0.1)">
       <defs>
        <path id="STSongti-SC-Black-44" d="M 781 3802 
Q 781 3955 742 4016 
Q 704 4077 595 4102 
L 224 4179 
L 224 4390 
Q 429 4384 713 4393 
Q 998 4403 1299 4416 
Q 1600 4429 1891 4438 
Q 2182 4448 2406 4448 
Q 2906 4448 3338 4323 
Q 3770 4198 4086 3948 
Q 4403 3699 4585 3324 
Q 4768 2950 4768 2445 
Q 4768 1997 4589 1613 
Q 4410 1229 4106 950 
Q 3802 672 3398 518 
Q 2995 365 2541 378 
L 1504 403 
L 160 403 
L 160 602 
L 595 710 
Q 698 730 739 794 
Q 781 858 781 1037 
L 781 3802 
z
M 1555 1190 
Q 1555 1088 1603 989 
Q 1651 890 1753 810 
Q 1856 730 2016 682 
Q 2176 634 2400 634 
Q 2803 634 3081 771 
Q 3360 909 3533 1152 
Q 3706 1395 3782 1731 
Q 3859 2067 3859 2470 
Q 3859 3277 3417 3728 
Q 2976 4179 2176 4179 
Q 2029 4179 1936 4176 
Q 1843 4173 1785 4163 
Q 1728 4154 1696 4141 
Q 1664 4128 1645 4109 
Q 1555 4038 1555 3802 
L 1555 1190 
z
" transform="scale(0.015625)"/>
        <path id="STSongti-SC-Black-43" d="M 3910 1459 
Q 3891 1363 3872 1232 
Q 3853 1101 3827 960 
Q 3802 819 3773 684 
Q 3744 550 3712 442 
Q 3507 358 3200 320 
Q 2893 282 2445 282 
Q 1997 282 1590 416 
Q 1184 550 873 806 
Q 563 1062 377 1436 
Q 192 1811 192 2298 
Q 192 2784 358 3181 
Q 525 3578 816 3859 
Q 1107 4141 1500 4294 
Q 1894 4448 2349 4448 
Q 2720 4448 2989 4406 
Q 3258 4365 3430 4314 
Q 3635 4256 3770 4186 
Q 3776 4109 3782 3971 
Q 3789 3834 3792 3680 
Q 3795 3526 3792 3385 
Q 3789 3245 3789 3162 
L 3603 3162 
Q 3584 3347 3517 3529 
Q 3450 3712 3318 3859 
Q 3187 4006 2985 4096 
Q 2784 4186 2496 4186 
Q 2176 4186 1917 4083 
Q 1658 3981 1475 3769 
Q 1293 3558 1190 3228 
Q 1088 2899 1088 2445 
Q 1088 1933 1206 1574 
Q 1325 1216 1526 989 
Q 1728 762 2003 656 
Q 2278 550 2598 550 
Q 2816 550 2989 614 
Q 3162 678 3299 793 
Q 3437 909 3549 1078 
Q 3661 1248 3763 1459 
L 3910 1459 
z
" transform="scale(0.015625)"/>
       </defs>
       <use xlink:href="#STSongti-SC-Black-44"/>
       <use xlink:href="#STSongti-SC-Black-43" x="77.499985"/>
      </g>
     </g>
    </g>
    <g id="xtick_2">
     <g id="line2d_2">
      <g>
       <use xlink:href="#me48265a1ca" x="138.126136" y="225.627429" style="stroke: #000000; stroke-width: 0.8"/>
      </g>
     </g>
     <g id="text_2">
      <!-- OS -->
      <g transform="translate(131.96598 239.827429)scale(0.1 -0.1)">
       <defs>
        <path id="STSongti-SC-Black-4f" d="M 2458 294 
Q 1984 294 1571 438 
Q 1158 582 851 848 
Q 544 1114 368 1491 
Q 192 1869 192 2330 
Q 192 2803 374 3193 
Q 557 3584 870 3859 
Q 1184 4134 1603 4284 
Q 2022 4435 2496 4435 
Q 2976 4435 3382 4275 
Q 3789 4115 4089 3836 
Q 4390 3558 4560 3177 
Q 4730 2797 4730 2349 
Q 4730 1901 4566 1523 
Q 4403 1146 4105 874 
Q 3808 602 3389 448 
Q 2970 294 2458 294 
z
M 1120 2298 
Q 1120 1971 1213 1654 
Q 1306 1338 1485 1088 
Q 1664 838 1917 684 
Q 2170 531 2496 531 
Q 3123 531 3468 982 
Q 3814 1434 3814 2310 
Q 3814 2688 3731 3027 
Q 3648 3366 3478 3619 
Q 3309 3872 3053 4022 
Q 2797 4173 2458 4173 
Q 2112 4173 1859 4013 
Q 1606 3853 1443 3590 
Q 1280 3328 1200 2992 
Q 1120 2656 1120 2298 
z
" transform="scale(0.015625)"/>
        <path id="STSongti-SC-Black-53" d="M 2355 3373 
Q 2266 3795 2051 3980 
Q 1837 4166 1466 4166 
Q 1197 4166 992 4025 
Q 787 3885 787 3635 
Q 787 3482 854 3373 
Q 922 3264 1043 3184 
Q 1165 3104 1331 3033 
Q 1498 2963 1696 2880 
Q 1990 2758 2198 2640 
Q 2406 2522 2540 2371 
Q 2675 2221 2739 2025 
Q 2803 1830 2803 1549 
Q 2803 1254 2694 1020 
Q 2586 787 2384 624 
Q 2182 461 1904 371 
Q 1626 282 1293 282 
Q 672 282 160 582 
L 230 1600 
L 371 1600 
Q 384 1389 470 1206 
Q 557 1024 697 886 
Q 838 749 1017 672 
Q 1197 595 1402 595 
Q 1562 595 1712 636 
Q 1862 678 1974 758 
Q 2086 838 2153 956 
Q 2221 1075 2221 1229 
Q 2221 1427 2150 1558 
Q 2080 1690 1942 1786 
Q 1805 1882 1603 1962 
Q 1402 2042 1146 2150 
Q 858 2272 672 2406 
Q 486 2541 380 2688 
Q 275 2835 233 2998 
Q 192 3162 192 3334 
Q 192 3635 313 3846 
Q 435 4058 633 4192 
Q 832 4326 1078 4387 
Q 1325 4448 1568 4448 
Q 2125 4448 2496 4166 
L 2470 3373 
L 2355 3373 
z
" transform="scale(0.015625)"/>
       </defs>
       <use xlink:href="#STSongti-SC-Black-4f"/>
       <use xlink:href="#STSongti-SC-Black-53" x="76.899994"/>
      </g>
     </g>
    </g>
    <g id="xtick_3">
     <g id="line2d_3">
      <g>
       <use xlink:href="#me48265a1ca" x="205.7625" y="225.627429" style="stroke: #000000; stroke-width: 0.8"/>
      </g>
     </g>
     <g id="text_3">
      <!-- IS -->
      <g transform="translate(201.677344 239.827429)scale(0.1 -0.1)">
       <defs>
        <path id="STSongti-SC-Black-49" d="M 723 794 
L 723 3974 
Q 723 4083 688 4128 
Q 653 4173 563 4179 
L 160 4237 
L 160 4403 
Q 224 4384 1504 4384 
Q 1882 4384 2106 4403 
L 2106 4230 
L 1702 4173 
Q 1613 4166 1577 4128 
Q 1542 4090 1542 3974 
L 1542 794 
Q 1542 678 1574 646 
Q 1606 614 1702 608 
L 2106 576 
L 2106 358 
Q 1978 371 1738 377 
Q 1498 384 1133 384 
Q 768 384 528 377 
Q 288 371 160 358 
L 160 576 
L 563 608 
Q 659 621 691 653 
Q 723 685 723 794 
z
" transform="scale(0.015625)"/>
       </defs>
       <use xlink:href="#STSongti-SC-Black-49"/>
       <use xlink:href="#STSongti-SC-Black-53" x="35.399994"/>
      </g>
     </g>
    </g>
    <g id="xtick_4">
     <g id="line2d_4">
      <g>
       <use xlink:href="#me48265a1ca" x="273.398864" y="225.627429" style="stroke: #000000; stroke-width: 0.8"/>
      </g>
     </g>
     <g id="text_4">
      <!-- BC -->
      <g transform="translate(267.029332 239.827429)scale(0.1 -0.1)">
       <defs>
        <path id="STSongti-SC-Black-42" d="M 160 4173 
L 160 4365 
L 538 4384 
Q 1139 4416 1523 4432 
Q 1907 4448 2010 4448 
Q 2285 4448 2563 4406 
Q 2842 4365 3062 4262 
Q 3283 4160 3420 3984 
Q 3558 3808 3558 3539 
Q 3558 3386 3491 3248 
Q 3424 3110 3309 3001 
Q 3194 2893 3037 2813 
Q 2880 2733 2701 2694 
Q 2963 2656 3187 2582 
Q 3411 2509 3574 2381 
Q 3738 2253 3830 2061 
Q 3923 1869 3923 1594 
Q 3923 1325 3776 1101 
Q 3629 877 3376 717 
Q 3123 557 2790 467 
Q 2458 378 2086 378 
Q 1734 378 1388 381 
Q 1043 384 691 384 
L 173 384 
L 173 582 
L 493 659 
Q 608 691 662 755 
Q 717 819 717 1005 
L 717 3923 
Q 717 3974 713 4006 
Q 710 4038 681 4064 
Q 653 4090 595 4106 
Q 538 4122 429 4134 
L 160 4173 
z
M 1510 2714 
Q 1562 2701 1670 2697 
Q 1779 2694 1990 2694 
Q 2349 2694 2531 2905 
Q 2714 3117 2714 3520 
Q 2714 3686 2656 3811 
Q 2598 3936 2499 4022 
Q 2400 4109 2269 4153 
Q 2138 4198 1997 4198 
Q 1741 4198 1510 4141 
L 1510 2714 
z
M 1510 2432 
L 1510 1101 
Q 1510 858 1689 736 
Q 1869 614 2189 614 
Q 2573 614 2793 854 
Q 3014 1094 3014 1491 
Q 3014 1978 2758 2218 
Q 2502 2458 2003 2458 
Q 1894 2458 1766 2451 
Q 1638 2445 1510 2432 
z
" transform="scale(0.015625)"/>
       </defs>
       <use xlink:href="#STSongti-SC-Black-42"/>
       <use xlink:href="#STSongti-SC-Black-43" x="63.799988"/>
      </g>
     </g>
    </g>
    <g id="xtick_5">
     <g id="line2d_5">
      <g>
       <use xlink:href="#me48265a1ca" x="341.035227" y="225.627429" style="stroke: #000000; stroke-width: 0.8"/>
      </g>
     </g>
     <g id="text_5">
      <!-- CC -->
      <g transform="translate(334.675852 239.827429)scale(0.1 -0.1)">
       <use xlink:href="#STSongti-SC-Black-43"/>
       <use xlink:href="#STSongti-SC-Black-43" x="63.599991"/>
      </g>
     </g>
    </g>
   </g>
   <g id="matplotlib.axis_2">
    <g id="ytick_1">
     <g id="line2d_6">
      <defs>
       <path id="m378e06ed21" d="M 0 0 
L -3.5 0 
" style="stroke: #000000; stroke-width: 0.8"/>
      </defs>
      <g>
       <use xlink:href="#m378e06ed21" x="38.3625" y="225.627429" style="stroke: #000000; stroke-width: 0.8"/>
      </g>
     </g>
     <g id="text_6">
      <!-- 0.0 -->
      <g transform="translate(19.790625 229.227429)scale(0.1 -0.1)">
       <defs>
        <path id="STSongti-SC-Black-30" d="M 1517 4448 
Q 1792 4448 2045 4285 
Q 2298 4122 2486 3840 
Q 2675 3558 2787 3177 
Q 2899 2797 2899 2362 
Q 2899 1933 2790 1555 
Q 2682 1178 2493 893 
Q 2304 608 2054 445 
Q 1805 282 1523 282 
Q 1248 282 995 442 
Q 742 602 550 880 
Q 358 1158 246 1539 
Q 134 1920 134 2355 
Q 134 2797 246 3181 
Q 358 3565 547 3846 
Q 736 4128 985 4288 
Q 1235 4448 1517 4448 
z
M 1517 518 
Q 1869 518 1997 966 
Q 2125 1414 2125 2362 
Q 2125 3309 1993 3760 
Q 1862 4211 1517 4211 
Q 1171 4211 1040 3763 
Q 909 3315 909 2362 
Q 909 518 1517 518 
z
" transform="scale(0.015625)"/>
        <path id="STSongti-SC-Black-2e" d="M 704 294 
Q 538 294 422 409 
Q 307 525 307 691 
Q 307 858 422 973 
Q 538 1088 704 1088 
Q 870 1088 985 973 
Q 1101 858 1101 691 
Q 1101 525 985 409 
Q 870 294 704 294 
z
" transform="scale(0.015625)"/>
       </defs>
       <use xlink:href="#STSongti-SC-Black-30"/>
       <use xlink:href="#STSongti-SC-Black-2e" x="46.899994"/>
       <use xlink:href="#STSongti-SC-Black-30" x="68.799988"/>
      </g>
     </g>
    </g>
    <g id="ytick_2">
     <g id="line2d_7">
      <g>
       <use xlink:href="#m378e06ed21" x="38.3625" y="184.210286" style="stroke: #000000; stroke-width: 0.8"/>
      </g>
     </g>
     <g id="text_7">
      <!-- 0.2 -->
      <g transform="translate(19.790625 187.810286)scale(0.1 -0.1)">
       <defs>
        <path id="STSongti-SC-Black-32" d="M 2726 365 
Q 2496 371 2227 377 
Q 1958 384 1542 384 
Q 1120 384 777 381 
Q 435 378 211 365 
Q 230 518 262 659 
Q 294 800 377 957 
Q 461 1114 605 1299 
Q 749 1485 992 1734 
L 1229 1978 
Q 1478 2227 1625 2412 
Q 1773 2598 1849 2748 
Q 1926 2899 1945 3033 
Q 1965 3168 1965 3322 
Q 1965 3622 1779 3801 
Q 1594 3981 1280 3981 
Q 954 3981 746 3769 
Q 538 3558 461 3162 
L 262 3238 
Q 352 3827 694 4137 
Q 1037 4448 1549 4448 
Q 1779 4448 1984 4384 
Q 2189 4320 2342 4195 
Q 2496 4070 2589 3888 
Q 2682 3706 2682 3469 
Q 2682 3219 2592 3008 
Q 2502 2797 2348 2608 
Q 2195 2419 1993 2246 
Q 1792 2074 1574 1907 
L 1382 1754 
Q 1216 1619 1030 1427 
Q 845 1235 685 979 
L 2074 979 
Q 2234 979 2317 1011 
Q 2400 1043 2448 1116 
Q 2496 1190 2531 1302 
Q 2566 1414 2624 1568 
L 2822 1568 
L 2726 365 
z
" transform="scale(0.015625)"/>
       </defs>
       <use xlink:href="#STSongti-SC-Black-30"/>
       <use xlink:href="#STSongti-SC-Black-2e" x="46.899994"/>
       <use xlink:href="#STSongti-SC-Black-32" x="68.799988"/>
      </g>
     </g>
    </g>
    <g id="ytick_3">
     <g id="line2d_8">
      <g>
       <use xlink:href="#m378e06ed21" x="38.3625" y="142.793143" style="stroke: #000000; stroke-width: 0.8"/>
      </g>
     </g>
     <g id="text_8">
      <!-- 0.4 -->
      <g transform="translate(19.790625 146.393143)scale(0.1 -0.1)">
       <defs>
        <path id="STSongti-SC-Black-34" d="M 2086 4448 
L 2387 4448 
L 2387 1843 
L 2918 1843 
L 2918 1434 
L 2387 1434 
L 2387 282 
L 1670 282 
L 1670 1434 
L 122 1434 
L 122 1760 
L 966 2912 
Q 1254 3296 1529 3680 
Q 1805 4064 2086 4448 
z
M 1670 1843 
L 1670 3469 
Q 1453 3168 1289 2944 
Q 1126 2720 992 2537 
Q 858 2355 739 2188 
Q 621 2022 493 1843 
L 1670 1843 
z
" transform="scale(0.015625)"/>
       </defs>
       <use xlink:href="#STSongti-SC-Black-30"/>
       <use xlink:href="#STSongti-SC-Black-2e" x="46.899994"/>
       <use xlink:href="#STSongti-SC-Black-34" x="68.799988"/>
      </g>
     </g>
    </g>
    <g id="ytick_4">
     <g id="line2d_9">
      <g>
       <use xlink:href="#m378e06ed21" x="38.3625" y="101.376" style="stroke: #000000; stroke-width: 0.8"/>
      </g>
     </g>
     <g id="text_9">
      <!-- 0.6 -->
      <g transform="translate(19.790625 104.976)scale(0.1 -0.1)">
       <defs>
        <path id="STSongti-SC-Black-36" d="M 2458 4467 
L 2509 4346 
Q 2138 4141 1846 3926 
Q 1555 3712 1356 3430 
Q 1158 3149 1056 2761 
Q 954 2374 954 1824 
Q 954 1645 973 1414 
Q 992 1184 1053 976 
Q 1114 768 1235 627 
Q 1357 486 1562 486 
Q 1824 486 1987 739 
Q 2150 992 2150 1562 
Q 2150 2042 1996 2282 
Q 1843 2522 1555 2522 
Q 1434 2522 1318 2470 
L 1267 2637 
Q 1370 2682 1482 2704 
Q 1594 2726 1747 2726 
Q 2278 2726 2560 2425 
Q 2842 2125 2842 1626 
Q 2842 1318 2736 1072 
Q 2630 826 2451 650 
Q 2272 474 2035 378 
Q 1798 282 1530 282 
Q 1190 282 944 403 
Q 698 525 534 739 
Q 371 954 294 1242 
Q 218 1530 218 1862 
Q 218 2426 394 2864 
Q 570 3302 874 3622 
Q 1178 3942 1587 4150 
Q 1997 4358 2458 4467 
z
" transform="scale(0.015625)"/>
       </defs>
       <use xlink:href="#STSongti-SC-Black-30"/>
       <use xlink:href="#STSongti-SC-Black-2e" x="46.899994"/>
       <use xlink:href="#STSongti-SC-Black-36" x="68.799988"/>
      </g>
     </g>
    </g>
    <g id="ytick_5">
     <g id="line2d_10">
      <g>
       <use xlink:href="#m378e06ed21" x="38.3625" y="59.958857" style="stroke: #000000; stroke-width: 0.8"/>
      </g>
     </g>
     <g id="text_10">
      <!-- 0.8 -->
      <g transform="translate(19.790625 63.558857)scale(0.1 -0.1)">
       <defs>
        <path id="STSongti-SC-Black-38" d="M 1069 2368 
Q 282 2758 282 3424 
Q 282 3622 368 3804 
Q 454 3987 617 4131 
Q 781 4275 1005 4361 
Q 1229 4448 1510 4448 
Q 1760 4448 1968 4377 
Q 2176 4307 2326 4185 
Q 2477 4064 2560 3901 
Q 2643 3738 2643 3552 
Q 2643 3366 2588 3232 
Q 2534 3098 2438 2992 
Q 2342 2886 2201 2793 
Q 2061 2701 1888 2598 
Q 2202 2445 2381 2297 
Q 2560 2150 2646 2006 
Q 2733 1862 2752 1718 
Q 2771 1574 2771 1434 
Q 2771 1190 2665 979 
Q 2560 768 2384 614 
Q 2208 461 1971 371 
Q 1734 282 1466 282 
Q 1184 282 950 362 
Q 717 442 550 576 
Q 384 710 294 892 
Q 205 1075 205 1280 
Q 205 1434 246 1584 
Q 288 1734 390 1875 
Q 493 2016 659 2137 
Q 826 2259 1069 2368 
z
M 1683 2707 
Q 1920 2854 2022 3046 
Q 2125 3238 2125 3526 
Q 2125 3827 1968 4019 
Q 1811 4211 1472 4211 
Q 1158 4211 1011 4035 
Q 864 3859 864 3597 
Q 864 3334 1046 3126 
Q 1229 2918 1683 2707 
z
M 1254 2266 
Q 1107 2176 1011 2077 
Q 915 1978 860 1866 
Q 806 1754 784 1622 
Q 762 1491 762 1331 
Q 762 941 976 710 
Q 1190 480 1517 480 
Q 2163 480 2163 1235 
Q 2163 1414 2108 1555 
Q 2054 1696 1942 1817 
Q 1830 1939 1657 2048 
Q 1485 2157 1254 2266 
z
" transform="scale(0.015625)"/>
       </defs>
       <use xlink:href="#STSongti-SC-Black-30"/>
       <use xlink:href="#STSongti-SC-Black-2e" x="46.899994"/>
       <use xlink:href="#STSongti-SC-Black-38" x="68.799988"/>
      </g>
     </g>
    </g>
    <g id="ytick_6">
     <g id="line2d_11">
      <g>
       <use xlink:href="#m378e06ed21" x="38.3625" y="18.541714" style="stroke: #000000; stroke-width: 0.8"/>
      </g>
     </g>
     <g id="text_11">
      <!-- 1.0 -->
      <g transform="translate(19.790625 22.141714)scale(0.1 -0.1)">
       <defs>
        <path id="STSongti-SC-Black-31" d="M 2464 365 
Q 2298 371 2045 377 
Q 1792 384 1523 384 
Q 1254 384 1001 377 
Q 749 371 582 365 
L 582 550 
L 979 608 
Q 1203 659 1203 858 
L 1203 3840 
L 442 3347 
L 333 3546 
Q 442 3616 608 3718 
Q 774 3821 960 3942 
Q 1146 4064 1331 4192 
Q 1517 4320 1670 4448 
L 1882 4448 
L 1882 858 
Q 1882 634 2106 602 
L 2464 550 
L 2464 365 
z
" transform="scale(0.015625)"/>
       </defs>
       <use xlink:href="#STSongti-SC-Black-31"/>
       <use xlink:href="#STSongti-SC-Black-2e" x="46.899994"/>
       <use xlink:href="#STSongti-SC-Black-30" x="68.799988"/>
      </g>
     </g>
    </g>
    <g id="text_12">
     <!-- P -->
     <g transform="translate(14.4 119.852741)rotate(-90)scale(0.1 -0.1)">
      <defs>
       <path id="STSongti-SC-Black-50" d="M 160 4384 
Q 474 4384 685 4387 
Q 896 4390 1005 4397 
L 1933 4448 
Q 2054 4454 2102 4454 
Q 2150 4454 2176 4454 
Q 2477 4454 2739 4387 
Q 3002 4320 3194 4176 
Q 3386 4032 3498 3808 
Q 3610 3584 3610 3277 
Q 3610 2995 3498 2784 
Q 3386 2573 3203 2429 
Q 3021 2285 2787 2214 
Q 2554 2144 2317 2144 
Q 2131 2144 1990 2195 
Q 1850 2246 1728 2368 
L 1741 2426 
Q 1824 2394 1920 2384 
Q 2016 2374 2086 2374 
Q 2246 2374 2377 2419 
Q 2509 2464 2605 2563 
Q 2701 2662 2755 2828 
Q 2810 2995 2810 3245 
Q 2810 3667 2598 3932 
Q 2387 4198 1952 4198 
Q 1862 4198 1801 4195 
Q 1741 4192 1690 4186 
Q 1638 4179 1603 4169 
Q 1568 4160 1536 4147 
L 1536 864 
Q 1536 768 1577 701 
Q 1619 634 1760 608 
L 2144 538 
L 2144 358 
Q 1875 371 1635 377 
Q 1395 384 1222 384 
Q 1024 384 816 377 
Q 608 371 288 365 
L 288 544 
L 646 614 
Q 742 634 774 685 
Q 806 736 806 858 
L 806 3744 
Q 806 3987 656 4070 
Q 506 4154 160 4192 
L 160 4384 
z
" transform="scale(0.015625)"/>
      </defs>
      <use xlink:href="#STSongti-SC-Black-50"/>
     </g>
    </g>
   </g>
   <g id="patch_8">
    <path d="M 38.3625 225.627429 
L 38.3625 8.187429 
" style="fill: none; stroke: #000000; stroke-width: 0.8; stroke-linejoin: miter; stroke-linecap: square"/>
   </g>
   <g id="patch_9">
    <path d="M 38.3625 225.627429 
L 373.1625 225.627429 
" style="fill: none; stroke: #000000; stroke-width: 0.8; stroke-linejoin: miter; stroke-linecap: square"/>
   </g>
   <g id="text_13">
    <!-- 1.00 -->
    <g transform="translate(62.358523 14.4)scale(0.1 -0.1)">
     <use xlink:href="#STSongti-SC-Black-31"/>
     <use xlink:href="#STSongti-SC-Black-2e" x="46.899994"/>
     <use xlink:href="#STSongti-SC-Black-30" x="68.799988"/>
     <use xlink:href="#STSongti-SC-Black-30" x="115.699982"/>
    </g>
   </g>
   <g id="text_14">
    <!-- 0.68 -->
    <g transform="translate(129.994886 80.963265)scale(0.1 -0.1)">
     <use xlink:href="#STSongti-SC-Black-30"/>
     <use xlink:href="#STSongti-SC-Black-2e" x="46.899994"/>
     <use xlink:href="#STSongti-SC-Black-36" x="68.799988"/>
     <use xlink:href="#STSongti-SC-Black-38" x="115.699982"/>
    </g>
   </g>
   <g id="text_15">
    <!-- 0.88 -->
    <g transform="translate(197.63125 40.285714)scale(0.1 -0.1)">
     <use xlink:href="#STSongti-SC-Black-30"/>
     <use xlink:href="#STSongti-SC-Black-2e" x="46.899994"/>
     <use xlink:href="#STSongti-SC-Black-38" x="68.799988"/>
     <use xlink:href="#STSongti-SC-Black-38" x="115.699982"/>
    </g>
   </g>
   <g id="text_16">
    <!-- 0.39 -->
    <g transform="translate(265.267614 140.130612)scale(0.1 -0.1)">
     <defs>
      <path id="STSongti-SC-Black-33" d="M 576 3430 
L 474 3526 
Q 550 3731 646 3900 
Q 742 4070 876 4192 
Q 1011 4314 1193 4381 
Q 1376 4448 1619 4448 
Q 1779 4448 1939 4409 
Q 2099 4371 2224 4288 
Q 2349 4205 2425 4083 
Q 2502 3962 2502 3789 
Q 2502 3539 2281 3289 
Q 2061 3040 1683 2822 
Q 1939 2842 2153 2771 
Q 2368 2701 2518 2560 
Q 2669 2419 2752 2214 
Q 2835 2010 2835 1760 
Q 2835 1446 2707 1174 
Q 2579 902 2355 704 
Q 2131 506 1833 394 
Q 1536 282 1203 282 
Q 762 282 518 403 
Q 275 525 275 717 
Q 275 787 323 854 
Q 371 922 457 950 
Q 544 979 653 950 
Q 762 922 890 800 
Q 986 704 1053 640 
Q 1120 576 1174 541 
Q 1229 506 1277 490 
Q 1325 474 1389 474 
Q 1581 474 1725 570 
Q 1869 666 1965 826 
Q 2061 986 2105 1184 
Q 2150 1382 2150 1587 
Q 2150 1997 1955 2198 
Q 1760 2400 1498 2400 
Q 1331 2400 1206 2345 
Q 1082 2291 954 2182 
L 845 2330 
Q 909 2387 979 2444 
Q 1050 2502 1126 2560 
Q 1478 2822 1676 3030 
Q 1875 3238 1875 3437 
Q 1875 3686 1731 3824 
Q 1587 3962 1306 3962 
Q 1101 3962 902 3843 
Q 704 3725 576 3430 
z
" transform="scale(0.015625)"/>
      <path id="STSongti-SC-Black-39" d="M 1658 2022 
Q 1485 1939 1299 1939 
Q 1069 1939 864 2009 
Q 659 2080 505 2221 
Q 352 2362 265 2579 
Q 179 2797 179 3091 
Q 179 3386 281 3635 
Q 384 3885 560 4067 
Q 736 4250 969 4349 
Q 1203 4448 1466 4448 
Q 1747 4448 1984 4339 
Q 2221 4230 2390 4022 
Q 2560 3814 2656 3520 
Q 2752 3226 2752 2861 
Q 2752 2374 2582 1932 
Q 2413 1491 2118 1142 
Q 1824 794 1417 560 
Q 1011 326 544 262 
L 518 403 
Q 915 506 1187 742 
Q 1459 979 1628 1308 
Q 1798 1638 1872 2051 
Q 1946 2464 1946 2918 
Q 1946 3194 1930 3446 
Q 1914 3699 1866 3891 
Q 1818 4083 1722 4195 
Q 1626 4307 1466 4307 
Q 1318 4307 1219 4204 
Q 1120 4102 1059 3939 
Q 998 3776 972 3571 
Q 947 3366 947 3162 
Q 947 2989 982 2806 
Q 1018 2624 1088 2477 
Q 1158 2330 1260 2234 
Q 1363 2138 1498 2138 
Q 1587 2138 1638 2157 
L 1658 2022 
z
" transform="scale(0.015625)"/>
     </defs>
     <use xlink:href="#STSongti-SC-Black-30"/>
     <use xlink:href="#STSongti-SC-Black-2e" x="46.899994"/>
     <use xlink:href="#STSongti-SC-Black-33" x="68.799988"/>
     <use xlink:href="#STSongti-SC-Black-39" x="115.699982"/>
    </g>
   </g>
   <g id="text_17">
    <!-- 0.11 -->
    <g transform="translate(332.903977 199.297959)scale(0.1 -0.1)">
     <use xlink:href="#STSongti-SC-Black-30"/>
     <use xlink:href="#STSongti-SC-Black-2e" x="46.899994"/>
     <use xlink:href="#STSongti-SC-Black-31" x="68.799988"/>
     <use xlink:href="#STSongti-SC-Black-31" x="115.699982"/>
    </g>
   </g>
  </g>
 </g>
 <defs>
  <clipPath id="pcc87fbd1bc">
   <rect x="38.3625" y="8.187429" width="334.8" height="217.44"/>
  </clipPath>
 </defs>
</svg>
