<?xml version="1.0" encoding="utf-8" standalone="no"?>
<!DOCTYPE svg PUBLIC "-//W3C//DTD SVG 1.1//EN"
  "http://www.w3.org/Graphics/SVG/1.1/DTD/svg11.dtd">
<svg height="293.905912pt" version="1.1" viewBox="0 0 386.64 293.905912" width="386.64pt" xmlns="http://www.w3.org/2000/svg" xmlns:xlink="http://www.w3.org/1999/xlink">
 <metadata>
  <rdf:RDF xmlns:cc="http://creativecommons.org/ns#" xmlns:dc="http://purl.org/dc/elements/1.1/" xmlns:rdf="http://www.w3.org/1999/02/22-rdf-syntax-ns#">
   <cc:Work>
    <dc:type rdf:resource="http://purl.org/dc/dcmitype/StillImage"/>
    <dc:date>2021-11-17T16:40:30.470115</dc:date>
    <dc:format>image/svg+xml</dc:format>
    <dc:creator>
     <cc:Agent>
      <dc:title>Matplotlib v3.4.3, https://matplotlib.org/</dc:title>
     </cc:Agent>
    </dc:creator>
   </cc:Work>
  </rdf:RDF>
 </metadata>
 <defs>
  <style type="text/css">*{stroke-linecap:butt;stroke-linejoin:round;}</style>
 </defs>
 <g id="figure_1">
  <g id="patch_1">
   <path d="M 0 293.905912 
L 386.64 293.905912 
L 386.64 0 
L 0 0 
z
" style="fill:none;"/>
  </g>
  <g id="axes_1">
   <g id="patch_2">
    <path d="M 44.64 226.098912 
L 379.44 226.098912 
L 379.44 8.658912 
L 44.64 8.658912 
z
" style="fill:#ffffff;"/>
   </g>
   <g id="patch_3">
    <path clip-path="url(#p4f57acd7e1)" d="M 59.858182 226.098912 
L 87.527603 226.098912 
L 87.527603 225.103308 
L 59.858182 225.103308 
z
"/>
   </g>
   <g id="patch_4">
    <path clip-path="url(#p4f57acd7e1)" d="M 115.197025 226.098912 
L 142.866446 226.098912 
L 142.866446 223.112099 
L 115.197025 223.112099 
z
"/>
   </g>
   <g id="patch_5">
    <path clip-path="url(#p4f57acd7e1)" d="M 170.535868 226.098912 
L 198.205289 226.098912 
L 198.205289 223.112099 
L 170.535868 223.112099 
z
"/>
   </g>
   <g id="patch_6">
    <path clip-path="url(#p4f57acd7e1)" d="M 225.874711 226.098912 
L 253.544132 226.098912 
L 253.544132 212.160451 
L 225.874711 212.160451 
z
"/>
   </g>
   <g id="patch_7">
    <path clip-path="url(#p4f57acd7e1)" d="M 281.213554 226.098912 
L 308.882975 226.098912 
L 308.882975 207.182429 
L 281.213554 207.182429 
z
"/>
   </g>
   <g id="patch_8">
    <path clip-path="url(#p4f57acd7e1)" d="M 336.552397 226.098912 
L 364.221818 226.098912 
L 364.221818 19.013198 
L 336.552397 19.013198 
z
"/>
   </g>
   <g id="matplotlib.axis_1">
    <g id="xtick_1">
     <g id="line2d_1">
      <defs>
       <path d="M 0 0 
L 0 3.5 
" id="m4cfe577a35" style="stroke:#000000;stroke-width:0.8;"/>
      </defs>
      <g>
       <use style="stroke:#000000;stroke-width:0.8;" x="73.692893" xlink:href="#m4cfe577a35" y="226.098912"/>
      </g>
     </g>
     <g id="text_1">
      <!-- 1 -->
      <g transform="translate(71.192893 239.973912)scale(0.1 -0.1)">
       <defs>
        <path d="M 1400 3600 
Q 1075 3275 575 2975 
L 575 3450 
Q 1200 3875 1600 4450 
L 1900 4450 
L 1900 150 
L 1400 150 
L 1400 3600 
z
" id="SimHei-31" transform="scale(0.015625)"/>
       </defs>
       <use xlink:href="#SimHei-31"/>
      </g>
     </g>
    </g>
    <g id="xtick_2">
     <g id="line2d_2">
      <g>
       <use style="stroke:#000000;stroke-width:0.8;" x="129.031736" xlink:href="#m4cfe577a35" y="226.098912"/>
      </g>
     </g>
     <g id="text_2">
      <!-- 2 -->
      <g transform="translate(126.531736 239.973912)scale(0.1 -0.1)">
       <defs>
        <path d="M 300 250 
Q 325 625 650 925 
Q 975 1225 1475 1862 
Q 1975 2500 2125 2850 
Q 2275 3200 2237 3450 
Q 2200 3700 2000 3862 
Q 1800 4025 1537 4000 
Q 1275 3975 1037 3800 
Q 800 3625 675 3275 
L 200 3350 
Q 400 3925 712 4187 
Q 1025 4450 1450 4475 
Q 1700 4500 1900 4462 
Q 2100 4425 2312 4287 
Q 2525 4150 2662 3875 
Q 2800 3600 2762 3212 
Q 2725 2825 2375 2287 
Q 2025 1750 1025 600 
L 2825 600 
L 2825 150 
L 300 150 
L 300 250 
z
" id="SimHei-32" transform="scale(0.015625)"/>
       </defs>
       <use xlink:href="#SimHei-32"/>
      </g>
     </g>
    </g>
    <g id="xtick_3">
     <g id="line2d_3">
      <g>
       <use style="stroke:#000000;stroke-width:0.8;" x="184.370579" xlink:href="#m4cfe577a35" y="226.098912"/>
      </g>
     </g>
     <g id="text_3">
      <!-- 3 -->
      <g transform="translate(181.870579 239.973912)scale(0.1 -0.1)">
       <defs>
        <path d="M 250 1225 
L 700 1300 
Q 800 975 1025 762 
Q 1250 550 1587 562 
Q 1925 575 2125 837 
Q 2325 1100 2300 1437 
Q 2275 1775 2037 1962 
Q 1800 2150 1275 2225 
L 1275 2550 
Q 1800 2600 2037 2825 
Q 2275 3050 2250 3412 
Q 2225 3775 1925 3937 
Q 1625 4100 1287 3975 
Q 950 3850 750 3275 
L 300 3350 
Q 450 3800 712 4100 
Q 975 4400 1425 4450 
Q 1875 4500 2212 4337 
Q 2550 4175 2687 3837 
Q 2825 3500 2725 3100 
Q 2625 2700 2150 2400 
Q 2500 2250 2687 1950 
Q 2875 1650 2812 1162 
Q 2750 675 2375 375 
Q 2000 75 1525 87 
Q 1050 100 700 387 
Q 350 675 250 1225 
z
" id="SimHei-33" transform="scale(0.015625)"/>
       </defs>
       <use xlink:href="#SimHei-33"/>
      </g>
     </g>
    </g>
    <g id="xtick_4">
     <g id="line2d_4">
      <g>
       <use style="stroke:#000000;stroke-width:0.8;" x="239.709421" xlink:href="#m4cfe577a35" y="226.098912"/>
      </g>
     </g>
     <g id="text_4">
      <!-- 4 -->
      <g transform="translate(237.209421 239.973912)scale(0.1 -0.1)">
       <defs>
        <path d="M 2000 1100 
L 75 1100 
L 75 1525 
L 2100 4450 
L 2475 4450 
L 2475 1525 
L 3075 1525 
L 3075 1100 
L 2475 1100 
L 2475 150 
L 2000 150 
L 2000 1100 
z
M 2000 1525 
L 2000 3500 
L 600 1525 
L 2000 1525 
z
" id="SimHei-34" transform="scale(0.015625)"/>
       </defs>
       <use xlink:href="#SimHei-34"/>
      </g>
     </g>
    </g>
    <g id="xtick_5">
     <g id="line2d_5">
      <g>
       <use style="stroke:#000000;stroke-width:0.8;" x="295.048264" xlink:href="#m4cfe577a35" y="226.098912"/>
      </g>
     </g>
     <g id="text_5">
      <!-- 5 -->
      <g transform="translate(292.548264 239.973912)scale(0.1 -0.1)">
       <defs>
        <path d="M 550 1325 
Q 725 650 1150 575 
Q 1575 500 1837 662 
Q 2100 825 2212 1087 
Q 2325 1350 2312 1675 
Q 2300 2000 2137 2225 
Q 1975 2450 1725 2525 
Q 1475 2600 1162 2525 
Q 850 2450 650 2175 
L 225 2225 
Q 275 2375 700 4375 
L 2675 4375 
L 2675 3925 
L 1075 3925 
Q 950 3250 825 2850 
Q 1200 3025 1525 3012 
Q 1850 3000 2150 2862 
Q 2450 2725 2587 2487 
Q 2725 2250 2787 2012 
Q 2850 1775 2837 1500 
Q 2825 1225 2725 937 
Q 2625 650 2425 462 
Q 2225 275 1937 162 
Q 1650 50 1275 75 
Q 900 100 562 350 
Q 225 600 100 1200 
L 550 1325 
z
" id="SimHei-35" transform="scale(0.015625)"/>
       </defs>
       <use xlink:href="#SimHei-35"/>
      </g>
     </g>
    </g>
    <g id="xtick_6">
     <g id="line2d_6">
      <g>
       <use style="stroke:#000000;stroke-width:0.8;" x="350.387107" xlink:href="#m4cfe577a35" y="226.098912"/>
      </g>
     </g>
     <g id="text_6">
      <!-- 6 -->
      <g transform="translate(347.887107 239.973912)scale(0.1 -0.1)">
       <defs>
        <path d="M 250 1612 
Q 275 1975 387 2225 
Q 500 2475 725 2850 
L 1750 4450 
L 2325 4450 
L 1275 2800 
Q 1950 2975 2350 2750 
Q 2750 2525 2887 2237 
Q 3025 1950 3037 1612 
Q 3050 1275 2937 950 
Q 2825 625 2537 362 
Q 2250 100 1737 75 
Q 1225 50 862 262 
Q 500 475 362 862 
Q 225 1250 250 1612 
z
M 1025 787 
Q 1250 550 1625 525 
Q 2000 500 2250 775 
Q 2500 1050 2500 1575 
Q 2500 2100 2187 2300 
Q 1875 2500 1487 2450 
Q 1100 2400 925 2075 
Q 750 1750 775 1387 
Q 800 1025 1025 787 
z
" id="SimHei-36" transform="scale(0.015625)"/>
       </defs>
       <use xlink:href="#SimHei-36"/>
      </g>
     </g>
    </g>
    <g id="text_7">
     <!-- $j$ -->
     <g transform="translate(210.5 253.583912)scale(0.11 -0.11)">
      <defs>
       <path d="M 928 3500 
L 1503 3500 
L 813 -63 
L 809 -78 
Q 694 -675 544 -897 
Q 403 -1106 132 -1218 
Q -138 -1331 -506 -1331 
L -722 -1331 
L -628 -844 
L -481 -844 
Q -144 -844 -1 -703 
Q 141 -563 238 -63 
L 928 3500 
z
M 1197 4863 
L 1772 4863 
L 1631 4134 
L 1056 4134 
L 1197 4863 
z
" id="DejaVuSans-Oblique-6a" transform="scale(0.015625)"/>
      </defs>
      <use transform="translate(0 0.015625)" xlink:href="#DejaVuSans-Oblique-6a"/>
     </g>
    </g>
   </g>
   <g id="matplotlib.axis_2">
    <g id="ytick_1">
     <g id="line2d_7">
      <defs>
       <path d="M 0 0 
L -3.5 0 
" id="m3f07bbe546" style="stroke:#000000;stroke-width:0.8;"/>
      </defs>
      <g>
       <use style="stroke:#000000;stroke-width:0.8;" x="44.64" xlink:href="#m3f07bbe546" y="226.098912"/>
      </g>
     </g>
     <g id="text_8">
      <!-- 0.0 -->
      <g transform="translate(22.64 229.536412)scale(0.1 -0.1)">
       <defs>
        <path d="M 225 2537 
Q 250 3200 412 3587 
Q 575 3975 875 4225 
Q 1175 4475 1612 4475 
Q 2050 4475 2375 4112 
Q 2700 3750 2800 3200 
Q 2900 2650 2862 1937 
Q 2825 1225 2612 775 
Q 2400 325 1975 150 
Q 1550 -25 1125 187 
Q 700 400 525 750 
Q 350 1100 275 1487 
Q 200 1875 225 2537 
z
M 750 2687 
Q 675 2000 800 1462 
Q 925 925 1212 700 
Q 1500 475 1800 612 
Q 2100 750 2237 1162 
Q 2375 1575 2375 2062 
Q 2375 2550 2337 2950 
Q 2300 3350 2112 3675 
Q 1925 4000 1612 4012 
Q 1300 4025 1062 3700 
Q 825 3375 750 2687 
z
" id="SimHei-30" transform="scale(0.015625)"/>
        <path d="M 1075 125 
L 500 125 
L 500 675 
L 1075 675 
L 1075 125 
z
" id="SimHei-2e" transform="scale(0.015625)"/>
       </defs>
       <use xlink:href="#SimHei-30"/>
       <use x="50" xlink:href="#SimHei-2e"/>
       <use x="100" xlink:href="#SimHei-30"/>
      </g>
     </g>
    </g>
    <g id="ytick_2">
     <g id="line2d_8">
      <g>
       <use style="stroke:#000000;stroke-width:0.8;" x="44.64" xlink:href="#m3f07bbe546" y="201.407923"/>
      </g>
     </g>
     <g id="text_9">
      <!-- 0.1 -->
      <g transform="translate(22.64 204.845423)scale(0.1 -0.1)">
       <use xlink:href="#SimHei-30"/>
       <use x="50" xlink:href="#SimHei-2e"/>
       <use x="100" xlink:href="#SimHei-31"/>
      </g>
     </g>
    </g>
    <g id="ytick_3">
     <g id="line2d_9">
      <g>
       <use style="stroke:#000000;stroke-width:0.8;" x="44.64" xlink:href="#m3f07bbe546" y="176.716934"/>
      </g>
     </g>
     <g id="text_10">
      <!-- 0.2 -->
      <g transform="translate(22.64 180.154434)scale(0.1 -0.1)">
       <use xlink:href="#SimHei-30"/>
       <use x="50" xlink:href="#SimHei-2e"/>
       <use x="100" xlink:href="#SimHei-32"/>
      </g>
     </g>
    </g>
    <g id="ytick_4">
     <g id="line2d_10">
      <g>
       <use style="stroke:#000000;stroke-width:0.8;" x="44.64" xlink:href="#m3f07bbe546" y="152.025945"/>
      </g>
     </g>
     <g id="text_11">
      <!-- 0.3 -->
      <g transform="translate(22.64 155.463445)scale(0.1 -0.1)">
       <use xlink:href="#SimHei-30"/>
       <use x="50" xlink:href="#SimHei-2e"/>
       <use x="100" xlink:href="#SimHei-33"/>
      </g>
     </g>
    </g>
    <g id="ytick_5">
     <g id="line2d_11">
      <g>
       <use style="stroke:#000000;stroke-width:0.8;" x="44.64" xlink:href="#m3f07bbe546" y="127.334956"/>
      </g>
     </g>
     <g id="text_12">
      <!-- 0.4 -->
      <g transform="translate(22.64 130.772456)scale(0.1 -0.1)">
       <use xlink:href="#SimHei-30"/>
       <use x="50" xlink:href="#SimHei-2e"/>
       <use x="100" xlink:href="#SimHei-34"/>
      </g>
     </g>
    </g>
    <g id="ytick_6">
     <g id="line2d_12">
      <g>
       <use style="stroke:#000000;stroke-width:0.8;" x="44.64" xlink:href="#m3f07bbe546" y="102.643967"/>
      </g>
     </g>
     <g id="text_13">
      <!-- 0.5 -->
      <g transform="translate(22.64 106.081467)scale(0.1 -0.1)">
       <use xlink:href="#SimHei-30"/>
       <use x="50" xlink:href="#SimHei-2e"/>
       <use x="100" xlink:href="#SimHei-35"/>
      </g>
     </g>
    </g>
    <g id="ytick_7">
     <g id="line2d_13">
      <g>
       <use style="stroke:#000000;stroke-width:0.8;" x="44.64" xlink:href="#m3f07bbe546" y="77.952978"/>
      </g>
     </g>
     <g id="text_14">
      <!-- 0.6 -->
      <g transform="translate(22.64 81.390478)scale(0.1 -0.1)">
       <use xlink:href="#SimHei-30"/>
       <use x="50" xlink:href="#SimHei-2e"/>
       <use x="100" xlink:href="#SimHei-36"/>
      </g>
     </g>
    </g>
    <g id="ytick_8">
     <g id="line2d_14">
      <g>
       <use style="stroke:#000000;stroke-width:0.8;" x="44.64" xlink:href="#m3f07bbe546" y="53.261989"/>
      </g>
     </g>
     <g id="text_15">
      <!-- 0.7 -->
      <g transform="translate(22.64 56.699489)scale(0.1 -0.1)">
       <defs>
        <path d="M 850 150 
Q 1300 2050 2425 3925 
L 275 3925 
L 275 4375 
L 2950 4375 
L 2950 3950 
Q 1775 2050 1400 150 
L 850 150 
z
" id="SimHei-37" transform="scale(0.015625)"/>
       </defs>
       <use xlink:href="#SimHei-30"/>
       <use x="50" xlink:href="#SimHei-2e"/>
       <use x="100" xlink:href="#SimHei-37"/>
      </g>
     </g>
    </g>
    <g id="ytick_9">
     <g id="line2d_15">
      <g>
       <use style="stroke:#000000;stroke-width:0.8;" x="44.64" xlink:href="#m3f07bbe546" y="28.571"/>
      </g>
     </g>
     <g id="text_16">
      <!-- 0.8 -->
      <g transform="translate(22.64 32.0085)scale(0.1 -0.1)">
       <defs>
        <path d="M 175 1375 
Q 175 1675 325 1962 
Q 475 2250 825 2425 
Q 525 2600 425 2812 
Q 325 3025 312 3300 
Q 300 3575 387 3775 
Q 475 3975 650 4150 
Q 825 4325 1037 4387 
Q 1250 4450 1500 4450 
Q 1750 4450 1950 4400 
Q 2150 4350 2375 4187 
Q 2600 4025 2700 3725 
Q 2800 3425 2687 3025 
Q 2575 2625 2100 2400 
Q 2525 2275 2700 2012 
Q 2875 1750 2875 1375 
Q 2875 1000 2762 775 
Q 2650 550 2512 400 
Q 2375 250 2137 162 
Q 1900 75 1537 75 
Q 1175 75 912 162 
Q 650 250 475 425 
Q 300 600 237 837 
Q 175 1075 175 1375 
z
M 687 1400 
Q 675 1100 787 875 
Q 900 650 1200 587 
Q 1500 525 1825 600 
Q 2150 675 2275 950 
Q 2400 1225 2362 1500 
Q 2325 1775 2050 1962 
Q 1775 2150 1450 2125 
Q 1125 2100 912 1900 
Q 700 1700 687 1400 
z
M 775 3350 
Q 775 3100 950 2875 
Q 1125 2650 1500 2650 
Q 1875 2650 2062 2875 
Q 2250 3100 2237 3412 
Q 2225 3725 2012 3875 
Q 1800 4025 1437 4000 
Q 1075 3975 925 3787 
Q 775 3600 775 3350 
z
" id="SimHei-38" transform="scale(0.015625)"/>
       </defs>
       <use xlink:href="#SimHei-30"/>
       <use x="50" xlink:href="#SimHei-2e"/>
       <use x="100" xlink:href="#SimHei-38"/>
      </g>
     </g>
    </g>
    <g id="text_17">
     <!-- $P_j$ -->
     <g transform="translate(15.23 121.943912)rotate(-90)scale(0.11 -0.11)">
      <defs>
       <path d="M 1081 4666 
L 2541 4666 
Q 3178 4666 3512 4369 
Q 3847 4072 3847 3500 
Q 3847 2731 3353 2303 
Q 2859 1875 1966 1875 
L 1172 1875 
L 806 0 
L 172 0 
L 1081 4666 
z
M 1613 4147 
L 1275 2394 
L 2069 2394 
Q 2606 2394 2893 2669 
Q 3181 2944 3181 3456 
Q 3181 3784 2986 3965 
Q 2791 4147 2438 4147 
L 1613 4147 
z
" id="DejaVuSans-Oblique-50" transform="scale(0.015625)"/>
      </defs>
      <use transform="translate(0 0.09375)" xlink:href="#DejaVuSans-Oblique-50"/>
      <use transform="translate(60.302734 -16.3125)scale(0.7)" xlink:href="#DejaVuSans-Oblique-6a"/>
     </g>
    </g>
   </g>
   <g id="patch_9">
    <path d="M 44.64 226.098912 
L 44.64 8.658912 
" style="fill:none;stroke:#000000;stroke-linecap:square;stroke-linejoin:miter;stroke-width:0.8;"/>
   </g>
   <g id="patch_10">
    <path d="M 44.64 226.098912 
L 379.44 226.098912 
" style="fill:none;stroke:#000000;stroke-linecap:square;stroke-linejoin:miter;stroke-width:0.8;"/>
   </g>
   <g id="text_18">
    <!-- 0.004 -->
    <g transform="translate(61.192893 220.16511)scale(0.1 -0.1)">
     <use xlink:href="#SimHei-30"/>
     <use x="50" xlink:href="#SimHei-2e"/>
     <use x="100" xlink:href="#SimHei-30"/>
     <use x="150" xlink:href="#SimHei-30"/>
     <use x="200" xlink:href="#SimHei-34"/>
    </g>
   </g>
   <g id="text_19">
    <!-- 0.012 -->
    <g transform="translate(116.531736 218.173901)scale(0.1 -0.1)">
     <use xlink:href="#SimHei-30"/>
     <use x="50" xlink:href="#SimHei-2e"/>
     <use x="100" xlink:href="#SimHei-30"/>
     <use x="150" xlink:href="#SimHei-31"/>
     <use x="200" xlink:href="#SimHei-32"/>
    </g>
   </g>
   <g id="text_20">
    <!-- 0.012 -->
    <g transform="translate(171.870579 218.173901)scale(0.1 -0.1)">
     <use xlink:href="#SimHei-30"/>
     <use x="50" xlink:href="#SimHei-2e"/>
     <use x="100" xlink:href="#SimHei-30"/>
     <use x="150" xlink:href="#SimHei-31"/>
     <use x="200" xlink:href="#SimHei-32"/>
    </g>
   </g>
   <g id="text_21">
    <!-- 0.056 -->
    <g transform="translate(227.209421 207.222253)scale(0.1 -0.1)">
     <use xlink:href="#SimHei-30"/>
     <use x="50" xlink:href="#SimHei-2e"/>
     <use x="100" xlink:href="#SimHei-30"/>
     <use x="150" xlink:href="#SimHei-35"/>
     <use x="200" xlink:href="#SimHei-36"/>
    </g>
   </g>
   <g id="text_22">
    <!-- 0.077 -->
    <g transform="translate(282.548264 202.244231)scale(0.1 -0.1)">
     <use xlink:href="#SimHei-30"/>
     <use x="50" xlink:href="#SimHei-2e"/>
     <use x="100" xlink:href="#SimHei-30"/>
     <use x="150" xlink:href="#SimHei-37"/>
     <use x="200" xlink:href="#SimHei-37"/>
    </g>
   </g>
   <g id="text_23">
    <!-- 0.839 -->
    <g transform="translate(337.887107 14.075)scale(0.1 -0.1)">
     <defs>
      <path d="M 800 75 
Q 1350 1000 1700 1750 
Q 1075 1650 662 1912 
Q 250 2175 162 2625 
Q 75 3075 175 3437 
Q 275 3800 487 4037 
Q 700 4275 1000 4375 
Q 1300 4475 1537 4475 
Q 1775 4475 2025 4375 
Q 2275 4275 2475 4075 
Q 2675 3875 2750 3662 
Q 2825 3450 2825 3112 
Q 2825 2775 2575 2250 
Q 2325 1725 1350 75 
L 800 75 
z
M 662 2875 
Q 700 2550 937 2337 
Q 1175 2125 1450 2150 
Q 1725 2175 1887 2300 
Q 2050 2425 2200 2725 
Q 2300 3100 2250 3362 
Q 2200 3625 1987 3800 
Q 1775 3975 1525 3975 
Q 1375 4000 1137 3900 
Q 900 3800 762 3500 
Q 625 3200 662 2875 
z
" id="SimHei-39" transform="scale(0.015625)"/>
     </defs>
     <use xlink:href="#SimHei-30"/>
     <use x="50" xlink:href="#SimHei-2e"/>
     <use x="100" xlink:href="#SimHei-38"/>
     <use x="150" xlink:href="#SimHei-33"/>
     <use x="200" xlink:href="#SimHei-39"/>
    </g>
   </g>
   <g id="text_24">
    <!-- 图5 线路脆弱性层次风险 -->
    <g transform="translate(151.54 285.330912)scale(0.11 -0.11)">
     <defs>
      <path d="M 5800 4975 
Q 5775 4350 5775 3600 
L 5775 925 
Q 5775 150 5800 -600 
L 5300 -600 
L 5300 -275 
L 1125 -275 
L 1125 -650 
L 625 -650 
Q 650 125 650 950 
L 650 3600 
Q 650 4325 625 4975 
L 5800 4975 
z
M 5300 150 
L 5300 4575 
L 1125 4575 
L 1125 150 
L 5300 150 
z
M 3225 4250 
Q 3075 4100 2950 3925 
L 4625 3925 
Q 4525 3700 4300 3375 
Q 4075 3050 3600 2600 
Q 4350 2225 5075 2150 
Q 4900 1925 4775 1675 
Q 3850 1950 3225 2350 
Q 2500 1875 1675 1650 
Q 1600 1875 1400 2075 
Q 2200 2200 2875 2600 
Q 2525 2925 2375 3150 
Q 2150 2900 1900 2650 
Q 1725 2850 1525 2950 
Q 1950 3300 2250 3737 
Q 2550 4175 2675 4475 
Q 2925 4350 3225 4250 
z
M 2450 1275 
Q 3550 950 4100 725 
Q 3975 525 3850 300 
Q 2825 725 2275 850 
Q 2375 1050 2450 1275 
z
M 2925 2050 
Q 3775 1700 4075 1600 
Q 3950 1400 3850 1150 
Q 3000 1550 2700 1650 
Q 2825 1825 2925 2050 
z
M 2625 3450 
Q 3000 3025 3275 2850 
Q 3600 3100 3875 3525 
L 2675 3525 
L 2625 3450 
z
" id="SimHei-56fe" transform="scale(0.015625)"/>
      <path id="SimHei-20" transform="scale(0.015625)"/>
      <path d="M 3450 4300 
Q 3450 4675 3375 5125 
Q 3700 5100 4050 5050 
Q 3975 4900 3950 4562 
Q 3925 4225 3950 3600 
L 4800 3750 
Q 5225 3850 5650 3975 
L 5750 3500 
Q 5325 3450 4875 3375 
L 3975 3200 
Q 3975 2800 4025 2500 
L 5000 2675 
Q 5500 2775 5950 2925 
L 6025 2450 
Q 5575 2375 5075 2275 
L 4100 2100 
Q 4150 1600 4350 1175 
Q 4575 1350 4787 1575 
Q 5000 1800 5175 2075 
Q 5550 1775 5750 1675 
Q 5425 1525 5237 1337 
Q 5050 1150 4625 750 
Q 4925 250 5162 112 
Q 5400 -25 5500 100 
Q 5600 225 5675 625 
Q 5900 450 6200 350 
Q 5775 -750 5275 -537 
Q 4775 -325 4225 450 
Q 3875 175 3537 -62 
Q 3200 -300 2700 -550 
Q 2575 -300 2325 -100 
Q 2825 75 3175 275 
Q 3525 475 3975 850 
Q 3750 1350 3650 2025 
Q 2900 1900 2600 1800 
L 2525 2275 
Q 2825 2275 3550 2425 
Q 3500 2825 3500 3100 
Q 2825 2950 2575 2875 
L 2475 3350 
Q 2725 3350 3450 3500 
L 3450 4300 
z
M 1950 4875 
Q 1700 4650 1462 4237 
Q 1225 3825 825 3225 
Q 1425 3250 1650 3250 
Q 1875 3625 2050 4075 
Q 2300 3900 2600 3800 
Q 2350 3550 2087 3125 
Q 1825 2700 1175 1675 
Q 1850 1725 2375 1775 
Q 2300 1525 2300 1350 
Q 2125 1350 1525 1287 
Q 925 1225 550 1125 
Q 525 1375 400 1650 
Q 700 1725 950 2050 
Q 1200 2375 1475 2875 
Q 650 2825 425 2675 
Q 350 2950 200 3225 
Q 525 3450 825 3962 
Q 1125 4475 1375 5150 
Q 1625 4975 1950 4875 
z
M 2575 875 
Q 2550 600 2575 450 
Q 1950 325 1450 200 
Q 950 75 525 -75 
Q 450 200 250 475 
Q 950 550 1325 612 
Q 1700 675 2575 875 
z
M 4850 4025 
Q 4675 4300 4375 4675 
L 4775 4875 
Q 4875 4750 5275 4275 
Q 5025 4175 4850 4025 
z
" id="SimHei-7ebf" transform="scale(0.015625)"/>
      <path d="M 2900 425 
Q 1225 -75 475 -350 
Q 425 -150 275 125 
Q 525 150 700 225 
L 700 1800 
Q 700 2000 675 2325 
L 1150 2325 
Q 1125 2100 1125 1675 
L 1125 325 
Q 1300 375 1550 450 
L 1550 2975 
L 725 2975 
Q 750 3225 750 3850 
Q 750 4500 725 4750 
L 2650 4750 
Q 2625 4475 2625 3850 
Q 2625 3250 2650 2975 
L 1975 2975 
L 1975 2075 
Q 2275 2075 2600 2100 
L 2600 1650 
Q 2275 1675 1975 1675 
L 1975 550 
Q 2200 600 2900 875 
Q 2875 675 2900 425 
z
M 4225 5025 
Q 4075 4850 3925 4550 
L 5750 4550 
Q 5575 4125 5287 3650 
Q 5000 3175 4750 2850 
Q 5325 2400 6200 2200 
Q 6000 1950 5900 1750 
Q 5600 1875 5200 2087 
Q 4800 2300 4475 2550 
Q 4150 2300 3762 2100 
Q 3375 1900 2925 1700 
Q 2825 1925 2650 2125 
Q 2975 2200 3400 2375 
Q 3825 2550 4150 2825 
Q 3900 3075 3425 3650 
Q 3250 3350 3100 3150 
Q 2950 3300 2725 3425 
Q 3000 3675 3275 4187 
Q 3550 4700 3700 5225 
Q 3975 5050 4225 5025 
z
M 5525 1800 
Q 5500 1475 5500 650 
Q 5500 -150 5525 -525 
L 5050 -525 
L 5050 -50 
L 3625 -50 
L 3625 -550 
L 3175 -550 
Q 3200 -125 3200 650 
Q 3200 1450 3175 1800 
L 5525 1800 
z
M 5050 325 
L 5050 1400 
L 3625 1400 
L 3625 325 
L 5050 325 
z
M 2200 3350 
L 2200 4375 
L 1175 4375 
L 1175 3350 
L 2200 3350 
z
M 3650 4000 
Q 3950 3550 4425 3125 
Q 4575 3275 4775 3612 
Q 4975 3950 5075 4175 
L 3750 4175 
L 3650 4000 
z
" id="SimHei-8def" transform="scale(0.015625)"/>
      <path d="M 2325 4825 
Q 2300 4400 2300 3950 
L 2300 325 
Q 2300 0 2137 -112 
Q 1975 -225 1475 -325 
Q 1425 -25 1275 275 
Q 1650 250 1750 262 
Q 1850 275 1850 500 
L 1850 1600 
L 1100 1600 
Q 1050 1025 925 450 
Q 800 -125 650 -475 
Q 425 -250 200 -150 
Q 450 275 550 762 
Q 650 1250 687 1762 
Q 725 2275 725 3250 
Q 725 4250 700 4825 
L 2325 4825 
z
M 4150 4975 
Q 4000 4850 3775 4550 
L 5325 4550 
Q 5250 4300 5137 4062 
Q 5025 3825 4875 3375 
L 5375 3375 
Q 5700 3375 6075 3400 
L 6075 2950 
Q 5700 2975 5400 2975 
L 3325 2975 
Q 3325 2050 3300 1500 
Q 3275 950 3162 487 
Q 3050 25 2675 -650 
Q 2475 -500 2175 -400 
Q 2600 150 2725 625 
Q 2850 1100 2862 1575 
Q 2875 2050 2875 2500 
Q 2875 2900 2850 3300 
L 2800 3250 
Q 2625 3400 2425 3550 
Q 2750 3875 3100 4375 
Q 3450 4875 3650 5300 
Q 3875 5150 4150 4975 
z
M 5700 2500 
Q 5675 2200 5662 1925 
Q 5650 1650 5612 1337 
Q 5575 1025 5337 925 
Q 5100 825 4750 750 
Q 4675 1050 4550 1275 
Q 5150 1275 5175 1450 
Q 5200 1625 5225 2100 
L 4225 2100 
L 4225 275 
Q 4225 -75 4550 -75 
L 5250 -75 
Q 5500 -75 5562 62 
Q 5625 200 5650 525 
Q 5875 350 6125 300 
Q 6000 -150 5887 -312 
Q 5775 -475 5425 -475 
L 4325 -475 
Q 3775 -425 3775 200 
L 3775 1750 
Q 3775 2125 3750 2500 
L 5700 2500 
z
M 3575 4150 
Q 3350 3850 2925 3375 
L 4375 3375 
Q 4525 3775 4650 4150 
L 3575 4150 
z
M 1850 3375 
L 1850 4425 
L 1150 4425 
L 1150 3375 
L 1850 3375 
z
M 1850 2000 
L 1850 2975 
L 1150 2975 
L 1150 2000 
L 1850 2000 
z
" id="SimHei-8106" transform="scale(0.015625)"/>
      <path d="M 4475 -100 
Q 4975 -75 5112 -25 
Q 5250 25 5262 137 
Q 5275 250 5300 1025 
Q 4100 600 3475 275 
Q 3425 525 3200 775 
Q 3675 875 4187 1050 
Q 4700 1225 5300 1450 
L 5300 2325 
L 3475 2325 
Q 3500 2775 3525 3137 
Q 3550 3500 3550 3875 
L 5300 3875 
L 5300 4600 
L 4325 4600 
Q 3975 4600 3450 4575 
L 3450 5000 
Q 3975 4975 4325 4975 
L 5750 4975 
Q 5725 4625 5725 4225 
Q 5725 3850 5750 3450 
L 4000 3450 
L 3950 2700 
L 5800 2700 
Q 5750 2150 5725 1187 
Q 5700 225 5675 -12 
Q 5650 -250 5475 -387 
Q 5300 -525 4675 -625 
Q 4650 -325 4475 -100 
z
M 1650 -100 
Q 2225 -75 2350 12 
Q 2475 100 2475 950 
Q 1250 450 750 150 
Q 625 425 450 600 
Q 850 750 1300 912 
Q 1750 1075 2475 1400 
L 2475 2325 
L 750 2325 
Q 800 2875 812 3200 
Q 825 3525 875 3875 
L 2475 3875 
L 2475 4600 
L 1600 4600 
Q 1075 4600 750 4550 
L 750 5000 
Q 1075 4975 1550 4975 
L 2950 4975 
Q 2925 4625 2925 4225 
Q 2925 3850 2950 3450 
L 1275 3450 
L 1225 2700 
L 2950 2700 
Q 2925 2125 2912 1100 
Q 2900 75 2850 -100 
Q 2800 -275 2612 -375 
Q 2425 -475 1875 -625 
Q 1800 -350 1650 -100 
z
M 3600 1925 
Q 3800 2025 3975 2175 
Q 4250 1850 4600 1425 
Q 4375 1350 4200 1175 
Q 3925 1650 3600 1925 
z
M 1200 2175 
Q 1475 1900 1825 1475 
Q 1650 1350 1500 1200 
Q 1125 1650 900 1900 
Q 1075 2050 1200 2175 
z
" id="SimHei-5f31" transform="scale(0.015625)"/>
      <path d="M 3450 4525 
Q 3325 4075 3275 3750 
L 4050 3750 
L 4050 4275 
Q 4050 4700 4025 5100 
L 4550 5100 
Q 4525 4700 4525 4275 
L 4525 3750 
L 5025 3750 
Q 5350 3750 5800 3775 
L 5800 3300 
Q 5350 3325 5025 3325 
L 4525 3325 
L 4525 2000 
L 4975 2000 
Q 5350 2000 5725 2025 
L 5725 1550 
Q 5350 1575 4975 1575 
L 4525 1575 
L 4525 25 
L 5200 25 
Q 5625 25 6025 50 
L 6025 -400 
Q 5625 -375 5200 -375 
L 3275 -375 
Q 2825 -375 2400 -400 
L 2400 50 
Q 2825 25 3250 25 
L 4050 25 
L 4050 1575 
L 3625 1575 
Q 3300 1575 2875 1550 
L 2875 2025 
Q 3200 2000 3625 2000 
L 4050 2000 
L 4050 3325 
L 3175 3325 
Q 3100 2950 2775 2225 
Q 2500 2375 2325 2400 
Q 2675 3125 2775 3650 
Q 2875 4175 2950 4650 
Q 3200 4575 3450 4525 
z
M 1700 5150 
Q 1675 4650 1675 4175 
L 1675 425 
Q 1675 -100 1700 -625 
L 1175 -625 
Q 1200 -100 1200 425 
L 1200 4175 
Q 1200 4700 1175 5150 
L 1700 5150 
z
M 975 3725 
Q 825 2675 700 2150 
Q 450 2200 250 2250 
Q 425 2900 525 3800 
Q 725 3775 975 3725 
z
M 2125 4025 
Q 2325 3625 2525 3000 
Q 2300 2925 2125 2825 
Q 1950 3375 1750 3850 
Q 1950 3950 2125 4025 
z
" id="SimHei-6027" transform="scale(0.015625)"/>
      <path d="M 5425 5025 
Q 5400 4500 5400 4175 
Q 5400 3875 5425 3425 
L 1475 3425 
Q 1475 2325 1375 1400 
Q 1275 475 725 -650 
Q 525 -500 275 -375 
Q 575 50 725 587 
Q 875 1125 950 1850 
Q 1025 2575 1025 3400 
Q 1025 4250 1000 5025 
L 5425 5025 
z
M 5075 1575 
Q 5450 1575 5900 1600 
L 5900 1125 
Q 5450 1150 5075 1150 
L 3525 1150 
Q 3100 425 2625 -25 
Q 3475 0 4825 50 
Q 4600 300 4300 600 
Q 4500 775 4675 925 
Q 5325 300 5900 -350 
Q 5725 -500 5475 -700 
Q 5325 -525 5150 -325 
Q 4325 -350 3412 -425 
Q 2500 -500 2150 -600 
Q 2050 -300 1925 -50 
Q 2175 25 2475 375 
Q 2775 725 2950 1150 
L 2425 1150 
Q 2125 1150 1600 1125 
L 1600 1600 
Q 2125 1575 2500 1575 
L 5075 1575 
z
M 4975 3850 
L 4975 4600 
L 1475 4600 
L 1475 3850 
L 4975 3850 
z
M 4475 2750 
Q 4975 2750 5400 2775 
L 5400 2300 
Q 5075 2325 4525 2325 
L 2925 2325 
Q 2525 2325 2075 2300 
L 2075 2775 
Q 2525 2750 2925 2750 
L 4475 2750 
z
" id="SimHei-5c42" transform="scale(0.015625)"/>
      <path d="M 4150 3025 
Q 4000 2550 4050 2187 
Q 4100 1825 4275 1450 
Q 4450 1075 4800 750 
Q 5150 425 5475 212 
Q 5800 0 6150 -150 
Q 5875 -350 5750 -625 
Q 5250 -325 4887 -25 
Q 4525 275 4275 612 
Q 4025 950 3825 1425 
Q 3525 625 2950 125 
Q 2375 -375 1850 -650 
Q 1675 -400 1475 -225 
Q 2025 0 2487 362 
Q 2950 725 3162 1100 
Q 3375 1475 3450 1825 
Q 3525 2175 3537 2400 
Q 3550 2625 3525 3125 
Q 3825 3050 4150 3025 
z
M 3700 4975 
Q 3625 4900 3475 4575 
Q 3325 4250 3250 4075 
L 5775 4075 
Q 5650 3725 5550 3362 
Q 5450 3000 5275 2500 
Q 5000 2575 4775 2600 
Q 5025 3350 5100 3650 
L 3100 3650 
Q 2975 3400 2812 3100 
Q 2650 2800 2425 2450 
Q 2275 2600 1975 2700 
Q 2300 3050 2625 3762 
Q 2950 4475 3125 5200 
Q 3450 5025 3700 4975 
z
M 2025 2000 
Q 1825 1675 1475 1087 
Q 1125 500 725 -200 
Q 500 -25 250 175 
Q 725 725 1037 1262 
Q 1350 1800 1575 2325 
Q 1750 2175 2025 2000 
z
M 900 4750 
Q 1725 3725 1950 3375 
Q 1750 3250 1500 3050 
Q 1250 3525 500 4425 
Q 700 4575 900 4750 
z
" id="SimHei-6b21" transform="scale(0.015625)"/>
      <path d="M 5100 4950 
Q 5050 3950 5062 3137 
Q 5075 2325 5087 1825 
Q 5100 1325 5262 712 
Q 5425 100 5525 150 
Q 5625 200 5700 775 
Q 5925 550 6200 450 
Q 5950 -475 5687 -562 
Q 5425 -650 5175 -337 
Q 4925 -25 4787 575 
Q 4650 1175 4625 1862 
Q 4600 2550 4600 4500 
L 1500 4500 
Q 1500 2475 1437 1825 
Q 1375 1175 1187 525 
Q 1000 -125 625 -675 
Q 400 -425 275 -275 
Q 600 150 775 737 
Q 950 1325 1000 2062 
Q 1050 2800 1050 3675 
Q 1050 4550 1025 4950 
L 5100 4950 
z
M 4225 3625 
Q 4075 3425 3875 2950 
Q 3675 2475 3475 2100 
Q 4025 1200 4350 525 
Q 4100 400 3925 275 
Q 3750 700 3225 1625 
Q 2950 1250 2650 925 
Q 2350 600 1950 250 
Q 1750 525 1600 625 
Q 2000 875 2375 1287 
Q 2750 1700 2950 2025 
Q 2450 2825 1850 3450 
Q 2075 3600 2200 3750 
Q 2700 3175 3200 2475 
Q 3475 3000 3725 3925 
L 4225 3625 
z
" id="SimHei-98ce" transform="scale(0.015625)"/>
      <path d="M 2325 4875 
Q 2175 4525 2025 3975 
Q 1875 3425 1675 2850 
Q 2025 2350 2137 1987 
Q 2250 1625 2250 1300 
Q 2250 975 2000 800 
Q 1750 625 1400 550 
Q 1325 850 1175 1075 
Q 1650 1075 1712 1250 
Q 1775 1425 1712 1775 
Q 1650 2125 1225 2750 
Q 1600 3925 1700 4475 
L 1000 4475 
L 1000 -650 
L 525 -650 
Q 550 0 550 550 
L 550 3750 
Q 550 4250 525 4875 
L 2325 4875 
z
M 4225 4875 
Q 4675 4100 5112 3737 
Q 5550 3375 6200 3050 
Q 5950 2875 5825 2600 
Q 5425 2800 4975 3175 
L 4975 2750 
Q 4675 2775 4350 2775 
L 3675 2775 
Q 3275 2775 2925 2750 
L 2925 3025 
Q 2650 2725 2350 2425 
Q 2200 2675 1925 2825 
Q 2350 3075 2875 3725 
Q 3400 4375 3700 5250 
Q 4050 5100 4350 5025 
L 4225 4875 
z
M 5500 2100 
Q 5350 1850 5150 1262 
Q 4950 675 4775 25 
Q 5425 25 5950 50 
L 5950 -400 
Q 5525 -375 5100 -375 
L 3100 -375 
Q 2475 -375 2100 -400 
L 2100 50 
Q 2550 25 3125 25 
L 4325 25 
Q 4600 875 4712 1387 
Q 4825 1900 4850 2275 
Q 5125 2175 5500 2100 
z
M 4950 3200 
Q 4450 3675 3950 4550 
Q 3550 3825 3050 3200 
L 4950 3200 
z
M 3950 2250 
Q 4125 1625 4275 775 
Q 4050 775 3800 725 
Q 3625 1750 3500 2150 
Q 3750 2175 3950 2250 
z
M 2950 2075 
Q 3125 1425 3350 525 
Q 3125 500 2925 400 
Q 2825 975 2525 1925 
Q 2750 2000 2950 2075 
z
" id="SimHei-9669" transform="scale(0.015625)"/>
     </defs>
     <use xlink:href="#SimHei-56fe"/>
     <use x="100" xlink:href="#SimHei-35"/>
     <use x="150" xlink:href="#SimHei-20"/>
     <use x="200" xlink:href="#SimHei-7ebf"/>
     <use x="300" xlink:href="#SimHei-8def"/>
     <use x="400" xlink:href="#SimHei-8106"/>
     <use x="500" xlink:href="#SimHei-5f31"/>
     <use x="600" xlink:href="#SimHei-6027"/>
     <use x="700" xlink:href="#SimHei-5c42"/>
     <use x="800" xlink:href="#SimHei-6b21"/>
     <use x="900" xlink:href="#SimHei-98ce"/>
     <use x="1000" xlink:href="#SimHei-9669"/>
    </g>
   </g>
  </g>
 </g>
 <defs>
  <clipPath id="p4f57acd7e1">
   <rect height="217.44" width="334.8" x="44.64" y="8.658912"/>
  </clipPath>
 </defs>
</svg>
