<?xml version="1.0" encoding="utf-8" standalone="no"?>
<!DOCTYPE svg PUBLIC "-//W3C//DTD SVG 1.1//EN"
  "http://www.w3.org/Graphics/SVG/1.1/DTD/svg11.dtd">
<svg height="404.6045pt" version="1.1" viewBox="0 0 635.954687 404.6045" width="635.954687pt" xmlns="http://www.w3.org/2000/svg" xmlns:xlink="http://www.w3.org/1999/xlink">
 <metadata>
  <rdf:RDF xmlns:cc="http://creativecommons.org/ns#" xmlns:dc="http://purl.org/dc/elements/1.1/" xmlns:rdf="http://www.w3.org/1999/02/22-rdf-syntax-ns#">
   <cc:Work>
    <dc:type rdf:resource="http://purl.org/dc/dcmitype/StillImage"/>
    <dc:date>2021-11-22T10:08:50.932030</dc:date>
    <dc:format>image/svg+xml</dc:format>
    <dc:creator>
     <cc:Agent>
      <dc:title>Matplotlib v3.4.3, https://matplotlib.org/</dc:title>
     </cc:Agent>
    </dc:creator>
   </cc:Work>
  </rdf:RDF>
 </metadata>
 <defs>
  <style type="text/css">*{stroke-linecap:butt;stroke-linejoin:round;}</style>
 </defs>
 <g id="figure_1">
  <g id="patch_1">
   <path d="M 0 404.6045 
L 635.954687 404.6045 
L 635.954687 0 
L 0 0 
z
" style="fill:none;"/>
  </g>
  <g id="axes_1">
   <g id="patch_2">
    <path d="M 58.254687 336.7975 
L 616.254688 336.7975 
L 616.254688 10.6375 
L 58.254687 10.6375 
z
" style="fill:#ffffff;"/>
   </g>
   <g id="PathCollection_1">
    <defs>
     <path d="M 0 -3 
L -0.673542 -0.927051 
L -2.85317 -0.927051 
L -1.089814 0.354102 
L -1.763356 2.427051 
L -0 1.145898 
L 1.763356 2.427051 
L 1.089814 0.354102 
L 2.85317 -0.927051 
L 0.673542 -0.927051 
z
" id="m45ff670d1b" style="stroke:#000000;stroke-width:0.5;"/>
    </defs>
    <g clip-path="url(#p857e12ef89)">
     <use style="stroke:#000000;stroke-width:0.5;" x="575.718507" xlink:href="#m45ff670d1b" y="336.048396"/>
     <use style="stroke:#000000;stroke-width:0.5;" x="358.148301" xlink:href="#m45ff670d1b" y="332.302874"/>
     <use style="stroke:#000000;stroke-width:0.5;" x="351.066844" xlink:href="#m45ff670d1b" y="332.302874"/>
     <use style="stroke:#000000;stroke-width:0.5;" x="313.272298" xlink:href="#m45ff670d1b" y="334.924739"/>
     <use style="stroke:#000000;stroke-width:0.5;" x="300.981123" xlink:href="#m45ff670d1b" y="335.673844"/>
     <use style="stroke:#000000;stroke-width:0.5;" x="288.055522" xlink:href="#m45ff670d1b" y="335.299291"/>
     <use style="stroke:#000000;stroke-width:0.5;" x="281.775596" xlink:href="#m45ff670d1b" y="335.673844"/>
     <use style="stroke:#000000;stroke-width:0.5;" x="263.987864" xlink:href="#m45ff670d1b" y="334.924739"/>
     <use style="stroke:#000000;stroke-width:0.5;" x="249.144898" xlink:href="#m45ff670d1b" y="333.801083"/>
     <use style="stroke:#000000;stroke-width:0.5;" x="229.323368" xlink:href="#m45ff670d1b" y="334.550187"/>
     <use style="stroke:#000000;stroke-width:0.5;" x="180.280866" xlink:href="#m45ff670d1b" y="335.299291"/>
     <use style="stroke:#000000;stroke-width:0.5;" x="160.807868" xlink:href="#m45ff670d1b" y="334.175635"/>
     <use style="stroke:#000000;stroke-width:0.5;" x="157.07677" xlink:href="#m45ff670d1b" y="334.175635"/>
     <use style="stroke:#000000;stroke-width:0.5;" x="150.255613" xlink:href="#m45ff670d1b" y="332.302874"/>
     <use style="stroke:#000000;stroke-width:0.5;" x="135.708977" xlink:href="#m45ff670d1b" y="332.677427"/>
     <use style="stroke:#000000;stroke-width:0.5;" x="134.907486" xlink:href="#m45ff670d1b" y="332.677427"/>
     <use style="stroke:#000000;stroke-width:0.5;" x="132.23623" xlink:href="#m45ff670d1b" y="331.179218"/>
     <use style="stroke:#000000;stroke-width:0.5;" x="124.45341" xlink:href="#m45ff670d1b" y="331.179218"/>
     <use style="stroke:#000000;stroke-width:0.5;" x="123.690088" xlink:href="#m45ff670d1b" y="331.179218"/>
     <use style="stroke:#000000;stroke-width:0.5;" x="119.911099" xlink:href="#m45ff670d1b" y="323.313623"/>
     <use style="stroke:#000000;stroke-width:0.5;" x="119.059378" xlink:href="#m45ff670d1b" y="323.313623"/>
     <use style="stroke:#000000;stroke-width:0.5;" x="115.634057" xlink:href="#m45ff670d1b" y="323.313623"/>
     <use style="stroke:#000000;stroke-width:0.5;" x="114.978312" xlink:href="#m45ff670d1b" y="323.313623"/>
     <use style="stroke:#000000;stroke-width:0.5;" x="112.894741" xlink:href="#m45ff670d1b" y="323.313623"/>
     <use style="stroke:#000000;stroke-width:0.5;" x="111.408417" xlink:href="#m45ff670d1b" y="323.313623"/>
     <use style="stroke:#000000;stroke-width:0.5;" x="106.113593" xlink:href="#m45ff670d1b" y="327.433697"/>
     <use style="stroke:#000000;stroke-width:0.5;" x="94.268573" xlink:href="#m45ff670d1b" y="315.82258"/>
     <use style="stroke:#000000;stroke-width:0.5;" x="92.405514" xlink:href="#m45ff670d1b" y="315.82258"/>
     <use style="stroke:#000000;stroke-width:0.5;" x="89.64694" xlink:href="#m45ff670d1b" y="315.82258"/>
     <use style="stroke:#000000;stroke-width:0.5;" x="84.946671" xlink:href="#m45ff670d1b" y="313.575268"/>
     <use style="stroke:#000000;stroke-width:0.5;" x="78.364264" xlink:href="#m45ff670d1b" y="313.575268"/>
     <use style="stroke:#000000;stroke-width:0.5;" x="76.32499" xlink:href="#m45ff670d1b" y="313.575268"/>
     <use style="stroke:#000000;stroke-width:0.5;" x="73.516778" xlink:href="#m45ff670d1b" y="313.575268"/>
     <use style="stroke:#000000;stroke-width:0.5;" x="70.163062" xlink:href="#m45ff670d1b" y="313.575268"/>
     <use style="stroke:#000000;stroke-width:0.5;" x="68.770846" xlink:href="#m45ff670d1b" y="313.575268"/>
     <use style="stroke:#000000;stroke-width:0.5;" x="66.280651" xlink:href="#m45ff670d1b" y="29.664749"/>
     <use style="stroke:#000000;stroke-width:0.5;" x="65.834717" xlink:href="#m45ff670d1b" y="29.664749"/>
     <use style="stroke:#000000;stroke-width:0.5;" x="65.095277" xlink:href="#m45ff670d1b" y="29.664749"/>
     <use style="stroke:#000000;stroke-width:0.5;" x="64.276671" xlink:href="#m45ff670d1b" y="29.664749"/>
     <use style="stroke:#000000;stroke-width:0.5;" x="63.780199" xlink:href="#m45ff670d1b" y="29.664749"/>
     <use style="stroke:#000000;stroke-width:0.5;" x="63.741471" xlink:href="#m45ff670d1b" y="29.664749"/>
     <use style="stroke:#000000;stroke-width:0.5;" x="63.246124" xlink:href="#m45ff670d1b" y="29.664749"/>
     <use style="stroke:#000000;stroke-width:0.5;" x="62.93537" xlink:href="#m45ff670d1b" y="29.664749"/>
     <use style="stroke:#000000;stroke-width:0.5;" x="62.829587" xlink:href="#m45ff670d1b" y="29.664749"/>
     <use style="stroke:#000000;stroke-width:0.5;" x="62.307217" xlink:href="#m45ff670d1b" y="29.664749"/>
     <use style="stroke:#000000;stroke-width:0.5;" x="61.274078" xlink:href="#m45ff670d1b" y="29.664749"/>
     <use style="stroke:#000000;stroke-width:0.5;" x="60.555346" xlink:href="#m45ff670d1b" y="29.664749"/>
     <use style="stroke:#000000;stroke-width:0.5;" x="60.452401" xlink:href="#m45ff670d1b" y="29.664749"/>
     <use style="stroke:#000000;stroke-width:0.5;" x="60.282924" xlink:href="#m45ff670d1b" y="29.664749"/>
     <use style="stroke:#000000;stroke-width:0.5;" x="59.808413" xlink:href="#m45ff670d1b" y="29.664749"/>
     <use style="stroke:#000000;stroke-width:0.5;" x="59.642883" xlink:href="#m45ff670d1b" y="29.664749"/>
     <use style="stroke:#000000;stroke-width:0.5;" x="59.551509" xlink:href="#m45ff670d1b" y="29.664749"/>
     <use style="stroke:#000000;stroke-width:0.5;" x="59.336631" xlink:href="#m45ff670d1b" y="29.664749"/>
     <use style="stroke:#000000;stroke-width:0.5;" x="59.113776" xlink:href="#m45ff670d1b" y="29.664749"/>
     <use style="stroke:#000000;stroke-width:0.5;" x="59.05769" xlink:href="#m45ff670d1b" y="29.664749"/>
     <use style="stroke:#000000;stroke-width:0.5;" x="58.991035" xlink:href="#m45ff670d1b" y="29.664749"/>
     <use style="stroke:#000000;stroke-width:0.5;" x="58.954521" xlink:href="#m45ff670d1b" y="29.664749"/>
     <use style="stroke:#000000;stroke-width:0.5;" x="58.939721" xlink:href="#m45ff670d1b" y="29.664749"/>
     <use style="stroke:#000000;stroke-width:0.5;" x="58.854604" xlink:href="#m45ff670d1b" y="29.664749"/>
     <use style="stroke:#000000;stroke-width:0.5;" x="58.804803" xlink:href="#m45ff670d1b" y="29.664749"/>
     <use style="stroke:#000000;stroke-width:0.5;" x="58.764127" xlink:href="#m45ff670d1b" y="29.664749"/>
     <use style="stroke:#000000;stroke-width:0.5;" x="58.693532" xlink:href="#m45ff670d1b" y="29.664749"/>
     <use style="stroke:#000000;stroke-width:0.5;" x="58.670625" xlink:href="#m45ff670d1b" y="29.664749"/>
     <use style="stroke:#000000;stroke-width:0.5;" x="58.641003" xlink:href="#m45ff670d1b" y="29.664749"/>
     <use style="stroke:#000000;stroke-width:0.5;" x="58.474209" xlink:href="#m45ff670d1b" y="29.664749"/>
     <use style="stroke:#000000;stroke-width:0.5;" x="58.466487" xlink:href="#m45ff670d1b" y="29.664749"/>
     <use style="stroke:#000000;stroke-width:0.5;" x="58.44433" xlink:href="#m45ff670d1b" y="29.664749"/>
     <use style="stroke:#000000;stroke-width:0.5;" x="58.44301" xlink:href="#m45ff670d1b" y="29.664749"/>
     <use style="stroke:#000000;stroke-width:0.5;" x="58.342883" xlink:href="#m45ff670d1b" y="29.664749"/>
     <use style="stroke:#000000;stroke-width:0.5;" x="58.339043" xlink:href="#m45ff670d1b" y="29.664749"/>
     <use style="stroke:#000000;stroke-width:0.5;" x="58.324309" xlink:href="#m45ff670d1b" y="29.664749"/>
     <use style="stroke:#000000;stroke-width:0.5;" x="58.322119" xlink:href="#m45ff670d1b" y="29.664749"/>
     <use style="stroke:#000000;stroke-width:0.5;" x="58.311797" xlink:href="#m45ff670d1b" y="29.664749"/>
     <use style="stroke:#000000;stroke-width:0.5;" x="58.286934" xlink:href="#m45ff670d1b" y="29.664749"/>
     <use style="stroke:#000000;stroke-width:0.5;" x="58.283651" xlink:href="#m45ff670d1b" y="29.664749"/>
     <use style="stroke:#000000;stroke-width:0.5;" x="58.276462" xlink:href="#m45ff670d1b" y="29.664749"/>
     <use style="stroke:#000000;stroke-width:0.5;" x="58.273829" xlink:href="#m45ff670d1b" y="29.664749"/>
     <use style="stroke:#000000;stroke-width:0.5;" x="58.265305" xlink:href="#m45ff670d1b" y="29.664749"/>
     <use style="stroke:#000000;stroke-width:0.5;" x="58.262378" xlink:href="#m45ff670d1b" y="29.664749"/>
     <use style="stroke:#000000;stroke-width:0.5;" x="58.262372" xlink:href="#m45ff670d1b" y="29.664749"/>
     <use style="stroke:#000000;stroke-width:0.5;" x="58.260947" xlink:href="#m45ff670d1b" y="29.664749"/>
     <use style="stroke:#000000;stroke-width:0.5;" x="58.257835" xlink:href="#m45ff670d1b" y="29.664749"/>
     <use style="stroke:#000000;stroke-width:0.5;" x="58.257327" xlink:href="#m45ff670d1b" y="29.664749"/>
     <use style="stroke:#000000;stroke-width:0.5;" x="58.257088" xlink:href="#m45ff670d1b" y="29.664749"/>
     <use style="stroke:#000000;stroke-width:0.5;" x="58.256501" xlink:href="#m45ff670d1b" y="29.664749"/>
     <use style="stroke:#000000;stroke-width:0.5;" x="58.255783" xlink:href="#m45ff670d1b" y="29.664749"/>
     <use style="stroke:#000000;stroke-width:0.5;" x="58.25557" xlink:href="#m45ff670d1b" y="29.664749"/>
     <use style="stroke:#000000;stroke-width:0.5;" x="58.255484" xlink:href="#m45ff670d1b" y="29.664749"/>
     <use style="stroke:#000000;stroke-width:0.5;" x="58.255478" xlink:href="#m45ff670d1b" y="29.664749"/>
     <use style="stroke:#000000;stroke-width:0.5;" x="58.255152" xlink:href="#m45ff670d1b" y="29.664749"/>
     <use style="stroke:#000000;stroke-width:0.5;" x="58.255141" xlink:href="#m45ff670d1b" y="29.664749"/>
     <use style="stroke:#000000;stroke-width:0.5;" x="58.255028" xlink:href="#m45ff670d1b" y="29.664749"/>
     <use style="stroke:#000000;stroke-width:0.5;" x="58.255013" xlink:href="#m45ff670d1b" y="29.664749"/>
     <use style="stroke:#000000;stroke-width:0.5;" x="58.254983" xlink:href="#m45ff670d1b" y="29.664749"/>
     <use style="stroke:#000000;stroke-width:0.5;" x="58.25489" xlink:href="#m45ff670d1b" y="29.664749"/>
     <use style="stroke:#000000;stroke-width:0.5;" x="58.254864" xlink:href="#m45ff670d1b" y="29.664749"/>
     <use style="stroke:#000000;stroke-width:0.5;" x="58.25485" xlink:href="#m45ff670d1b" y="29.664749"/>
     <use style="stroke:#000000;stroke-width:0.5;" x="58.254824" xlink:href="#m45ff670d1b" y="29.664749"/>
     <use style="stroke:#000000;stroke-width:0.5;" x="58.25472" xlink:href="#m45ff670d1b" y="29.664749"/>
     <use style="stroke:#000000;stroke-width:0.5;" x="58.254714" xlink:href="#m45ff670d1b" y="29.664749"/>
     <use style="stroke:#000000;stroke-width:0.5;" x="58.25471" xlink:href="#m45ff670d1b" y="29.664749"/>
     <use style="stroke:#000000;stroke-width:0.5;" x="58.254695" xlink:href="#m45ff670d1b" y="29.664749"/>
     <use style="stroke:#000000;stroke-width:0.5;" x="58.254694" xlink:href="#m45ff670d1b" y="29.664749"/>
     <use style="stroke:#000000;stroke-width:0.5;" x="58.25469" xlink:href="#m45ff670d1b" y="29.664749"/>
     <use style="stroke:#000000;stroke-width:0.5;" x="58.254689" xlink:href="#m45ff670d1b" y="29.664749"/>
     <use style="stroke:#000000;stroke-width:0.5;" x="58.254688" xlink:href="#m45ff670d1b" y="29.664749"/>
     <use style="stroke:#000000;stroke-width:0.5;" x="58.254688" xlink:href="#m45ff670d1b" y="29.664749"/>
     <use style="stroke:#000000;stroke-width:0.5;" x="58.254688" xlink:href="#m45ff670d1b" y="29.664749"/>
    </g>
   </g>
   <g id="matplotlib.axis_1">
    <g id="xtick_1">
     <g id="line2d_1">
      <defs>
       <path d="M 0 0 
L 0 3.5 
" id="m52574d8d59" style="stroke:#000000;stroke-width:0.8;"/>
      </defs>
      <g>
       <use style="stroke:#000000;stroke-width:0.8;" x="58.254687" xlink:href="#m52574d8d59" y="336.7975"/>
      </g>
     </g>
     <g id="text_1">
      <!-- 0.00 -->
      <g transform="translate(48.254687 350.6725)scale(0.1 -0.1)">
       <defs>
        <path d="M 225 2537 
Q 250 3200 412 3587 
Q 575 3975 875 4225 
Q 1175 4475 1612 4475 
Q 2050 4475 2375 4112 
Q 2700 3750 2800 3200 
Q 2900 2650 2862 1937 
Q 2825 1225 2612 775 
Q 2400 325 1975 150 
Q 1550 -25 1125 187 
Q 700 400 525 750 
Q 350 1100 275 1487 
Q 200 1875 225 2537 
z
M 750 2687 
Q 675 2000 800 1462 
Q 925 925 1212 700 
Q 1500 475 1800 612 
Q 2100 750 2237 1162 
Q 2375 1575 2375 2062 
Q 2375 2550 2337 2950 
Q 2300 3350 2112 3675 
Q 1925 4000 1612 4012 
Q 1300 4025 1062 3700 
Q 825 3375 750 2687 
z
" id="SimHei-30" transform="scale(0.015625)"/>
        <path d="M 1075 125 
L 500 125 
L 500 675 
L 1075 675 
L 1075 125 
z
" id="SimHei-2e" transform="scale(0.015625)"/>
       </defs>
       <use xlink:href="#SimHei-30"/>
       <use x="50" xlink:href="#SimHei-2e"/>
       <use x="100" xlink:href="#SimHei-30"/>
       <use x="150" xlink:href="#SimHei-30"/>
      </g>
     </g>
    </g>
    <g id="xtick_2">
     <g id="line2d_2">
      <g>
       <use style="stroke:#000000;stroke-width:0.8;" x="128.004687" xlink:href="#m52574d8d59" y="336.7975"/>
      </g>
     </g>
     <g id="text_2">
      <!-- 2.00 -->
      <g transform="translate(118.004687 350.6725)scale(0.1 -0.1)">
       <defs>
        <path d="M 300 250 
Q 325 625 650 925 
Q 975 1225 1475 1862 
Q 1975 2500 2125 2850 
Q 2275 3200 2237 3450 
Q 2200 3700 2000 3862 
Q 1800 4025 1537 4000 
Q 1275 3975 1037 3800 
Q 800 3625 675 3275 
L 200 3350 
Q 400 3925 712 4187 
Q 1025 4450 1450 4475 
Q 1700 4500 1900 4462 
Q 2100 4425 2312 4287 
Q 2525 4150 2662 3875 
Q 2800 3600 2762 3212 
Q 2725 2825 2375 2287 
Q 2025 1750 1025 600 
L 2825 600 
L 2825 150 
L 300 150 
L 300 250 
z
" id="SimHei-32" transform="scale(0.015625)"/>
       </defs>
       <use xlink:href="#SimHei-32"/>
       <use x="50" xlink:href="#SimHei-2e"/>
       <use x="100" xlink:href="#SimHei-30"/>
       <use x="150" xlink:href="#SimHei-30"/>
      </g>
     </g>
    </g>
    <g id="xtick_3">
     <g id="line2d_3">
      <g>
       <use style="stroke:#000000;stroke-width:0.8;" x="197.754687" xlink:href="#m52574d8d59" y="336.7975"/>
      </g>
     </g>
     <g id="text_3">
      <!-- 4.00 -->
      <g transform="translate(187.754687 350.6725)scale(0.1 -0.1)">
       <defs>
        <path d="M 2000 1100 
L 75 1100 
L 75 1525 
L 2100 4450 
L 2475 4450 
L 2475 1525 
L 3075 1525 
L 3075 1100 
L 2475 1100 
L 2475 150 
L 2000 150 
L 2000 1100 
z
M 2000 1525 
L 2000 3500 
L 600 1525 
L 2000 1525 
z
" id="SimHei-34" transform="scale(0.015625)"/>
       </defs>
       <use xlink:href="#SimHei-34"/>
       <use x="50" xlink:href="#SimHei-2e"/>
       <use x="100" xlink:href="#SimHei-30"/>
       <use x="150" xlink:href="#SimHei-30"/>
      </g>
     </g>
    </g>
    <g id="xtick_4">
     <g id="line2d_4">
      <g>
       <use style="stroke:#000000;stroke-width:0.8;" x="267.504687" xlink:href="#m52574d8d59" y="336.7975"/>
      </g>
     </g>
     <g id="text_4">
      <!-- 6.00 -->
      <g transform="translate(257.504687 350.6725)scale(0.1 -0.1)">
       <defs>
        <path d="M 250 1612 
Q 275 1975 387 2225 
Q 500 2475 725 2850 
L 1750 4450 
L 2325 4450 
L 1275 2800 
Q 1950 2975 2350 2750 
Q 2750 2525 2887 2237 
Q 3025 1950 3037 1612 
Q 3050 1275 2937 950 
Q 2825 625 2537 362 
Q 2250 100 1737 75 
Q 1225 50 862 262 
Q 500 475 362 862 
Q 225 1250 250 1612 
z
M 1025 787 
Q 1250 550 1625 525 
Q 2000 500 2250 775 
Q 2500 1050 2500 1575 
Q 2500 2100 2187 2300 
Q 1875 2500 1487 2450 
Q 1100 2400 925 2075 
Q 750 1750 775 1387 
Q 800 1025 1025 787 
z
" id="SimHei-36" transform="scale(0.015625)"/>
       </defs>
       <use xlink:href="#SimHei-36"/>
       <use x="50" xlink:href="#SimHei-2e"/>
       <use x="100" xlink:href="#SimHei-30"/>
       <use x="150" xlink:href="#SimHei-30"/>
      </g>
     </g>
    </g>
    <g id="xtick_5">
     <g id="line2d_5">
      <g>
       <use style="stroke:#000000;stroke-width:0.8;" x="337.254687" xlink:href="#m52574d8d59" y="336.7975"/>
      </g>
     </g>
     <g id="text_5">
      <!-- 8.00 -->
      <g transform="translate(327.254687 350.6725)scale(0.1 -0.1)">
       <defs>
        <path d="M 175 1375 
Q 175 1675 325 1962 
Q 475 2250 825 2425 
Q 525 2600 425 2812 
Q 325 3025 312 3300 
Q 300 3575 387 3775 
Q 475 3975 650 4150 
Q 825 4325 1037 4387 
Q 1250 4450 1500 4450 
Q 1750 4450 1950 4400 
Q 2150 4350 2375 4187 
Q 2600 4025 2700 3725 
Q 2800 3425 2687 3025 
Q 2575 2625 2100 2400 
Q 2525 2275 2700 2012 
Q 2875 1750 2875 1375 
Q 2875 1000 2762 775 
Q 2650 550 2512 400 
Q 2375 250 2137 162 
Q 1900 75 1537 75 
Q 1175 75 912 162 
Q 650 250 475 425 
Q 300 600 237 837 
Q 175 1075 175 1375 
z
M 687 1400 
Q 675 1100 787 875 
Q 900 650 1200 587 
Q 1500 525 1825 600 
Q 2150 675 2275 950 
Q 2400 1225 2362 1500 
Q 2325 1775 2050 1962 
Q 1775 2150 1450 2125 
Q 1125 2100 912 1900 
Q 700 1700 687 1400 
z
M 775 3350 
Q 775 3100 950 2875 
Q 1125 2650 1500 2650 
Q 1875 2650 2062 2875 
Q 2250 3100 2237 3412 
Q 2225 3725 2012 3875 
Q 1800 4025 1437 4000 
Q 1075 3975 925 3787 
Q 775 3600 775 3350 
z
" id="SimHei-38" transform="scale(0.015625)"/>
       </defs>
       <use xlink:href="#SimHei-38"/>
       <use x="50" xlink:href="#SimHei-2e"/>
       <use x="100" xlink:href="#SimHei-30"/>
       <use x="150" xlink:href="#SimHei-30"/>
      </g>
     </g>
    </g>
    <g id="xtick_6">
     <g id="line2d_6">
      <g>
       <use style="stroke:#000000;stroke-width:0.8;" x="407.004687" xlink:href="#m52574d8d59" y="336.7975"/>
      </g>
     </g>
     <g id="text_6">
      <!-- 10.00 -->
      <g transform="translate(394.504687 350.6725)scale(0.1 -0.1)">
       <defs>
        <path d="M 1400 3600 
Q 1075 3275 575 2975 
L 575 3450 
Q 1200 3875 1600 4450 
L 1900 4450 
L 1900 150 
L 1400 150 
L 1400 3600 
z
" id="SimHei-31" transform="scale(0.015625)"/>
       </defs>
       <use xlink:href="#SimHei-31"/>
       <use x="50" xlink:href="#SimHei-30"/>
       <use x="100" xlink:href="#SimHei-2e"/>
       <use x="150" xlink:href="#SimHei-30"/>
       <use x="200" xlink:href="#SimHei-30"/>
      </g>
     </g>
    </g>
    <g id="xtick_7">
     <g id="line2d_7">
      <g>
       <use style="stroke:#000000;stroke-width:0.8;" x="476.754687" xlink:href="#m52574d8d59" y="336.7975"/>
      </g>
     </g>
     <g id="text_7">
      <!-- 12.00 -->
      <g transform="translate(464.254687 350.6725)scale(0.1 -0.1)">
       <use xlink:href="#SimHei-31"/>
       <use x="50" xlink:href="#SimHei-32"/>
       <use x="100" xlink:href="#SimHei-2e"/>
       <use x="150" xlink:href="#SimHei-30"/>
       <use x="200" xlink:href="#SimHei-30"/>
      </g>
     </g>
    </g>
    <g id="xtick_8">
     <g id="line2d_8">
      <g>
       <use style="stroke:#000000;stroke-width:0.8;" x="546.504688" xlink:href="#m52574d8d59" y="336.7975"/>
      </g>
     </g>
     <g id="text_8">
      <!-- 14.00 -->
      <g transform="translate(534.004688 350.6725)scale(0.1 -0.1)">
       <use xlink:href="#SimHei-31"/>
       <use x="50" xlink:href="#SimHei-34"/>
       <use x="100" xlink:href="#SimHei-2e"/>
       <use x="150" xlink:href="#SimHei-30"/>
       <use x="200" xlink:href="#SimHei-30"/>
      </g>
     </g>
    </g>
    <g id="xtick_9">
     <g id="line2d_9">
      <g>
       <use style="stroke:#000000;stroke-width:0.8;" x="616.254688" xlink:href="#m52574d8d59" y="336.7975"/>
      </g>
     </g>
     <g id="text_9">
      <!-- 16.00 -->
      <g transform="translate(603.754688 350.6725)scale(0.1 -0.1)">
       <use xlink:href="#SimHei-31"/>
       <use x="50" xlink:href="#SimHei-36"/>
       <use x="100" xlink:href="#SimHei-2e"/>
       <use x="150" xlink:href="#SimHei-30"/>
       <use x="200" xlink:href="#SimHei-30"/>
      </g>
     </g>
    </g>
    <g id="xtick_10">
     <g id="line2d_10">
      <g>
       <use style="stroke:#000000;stroke-width:0.8;" x="96.042117" xlink:href="#m52574d8d59" y="336.7975"/>
      </g>
     </g>
     <g id="text_10">
      <!-- 1.08 -->
      <g transform="translate(86.042117 350.6725)scale(0.1 -0.1)">
       <use xlink:href="#SimHei-31"/>
       <use x="50" xlink:href="#SimHei-2e"/>
       <use x="100" xlink:href="#SimHei-30"/>
       <use x="150" xlink:href="#SimHei-38"/>
      </g>
     </g>
    </g>
    <g id="text_11">
     <!-- 脆弱性指标 -->
     <g transform="translate(309.754687 364.774062)scale(0.11 -0.11)">
      <defs>
       <path d="M 2325 4825 
Q 2300 4400 2300 3950 
L 2300 325 
Q 2300 0 2137 -112 
Q 1975 -225 1475 -325 
Q 1425 -25 1275 275 
Q 1650 250 1750 262 
Q 1850 275 1850 500 
L 1850 1600 
L 1100 1600 
Q 1050 1025 925 450 
Q 800 -125 650 -475 
Q 425 -250 200 -150 
Q 450 275 550 762 
Q 650 1250 687 1762 
Q 725 2275 725 3250 
Q 725 4250 700 4825 
L 2325 4825 
z
M 4150 4975 
Q 4000 4850 3775 4550 
L 5325 4550 
Q 5250 4300 5137 4062 
Q 5025 3825 4875 3375 
L 5375 3375 
Q 5700 3375 6075 3400 
L 6075 2950 
Q 5700 2975 5400 2975 
L 3325 2975 
Q 3325 2050 3300 1500 
Q 3275 950 3162 487 
Q 3050 25 2675 -650 
Q 2475 -500 2175 -400 
Q 2600 150 2725 625 
Q 2850 1100 2862 1575 
Q 2875 2050 2875 2500 
Q 2875 2900 2850 3300 
L 2800 3250 
Q 2625 3400 2425 3550 
Q 2750 3875 3100 4375 
Q 3450 4875 3650 5300 
Q 3875 5150 4150 4975 
z
M 5700 2500 
Q 5675 2200 5662 1925 
Q 5650 1650 5612 1337 
Q 5575 1025 5337 925 
Q 5100 825 4750 750 
Q 4675 1050 4550 1275 
Q 5150 1275 5175 1450 
Q 5200 1625 5225 2100 
L 4225 2100 
L 4225 275 
Q 4225 -75 4550 -75 
L 5250 -75 
Q 5500 -75 5562 62 
Q 5625 200 5650 525 
Q 5875 350 6125 300 
Q 6000 -150 5887 -312 
Q 5775 -475 5425 -475 
L 4325 -475 
Q 3775 -425 3775 200 
L 3775 1750 
Q 3775 2125 3750 2500 
L 5700 2500 
z
M 3575 4150 
Q 3350 3850 2925 3375 
L 4375 3375 
Q 4525 3775 4650 4150 
L 3575 4150 
z
M 1850 3375 
L 1850 4425 
L 1150 4425 
L 1150 3375 
L 1850 3375 
z
M 1850 2000 
L 1850 2975 
L 1150 2975 
L 1150 2000 
L 1850 2000 
z
" id="SimHei-8106" transform="scale(0.015625)"/>
       <path d="M 4475 -100 
Q 4975 -75 5112 -25 
Q 5250 25 5262 137 
Q 5275 250 5300 1025 
Q 4100 600 3475 275 
Q 3425 525 3200 775 
Q 3675 875 4187 1050 
Q 4700 1225 5300 1450 
L 5300 2325 
L 3475 2325 
Q 3500 2775 3525 3137 
Q 3550 3500 3550 3875 
L 5300 3875 
L 5300 4600 
L 4325 4600 
Q 3975 4600 3450 4575 
L 3450 5000 
Q 3975 4975 4325 4975 
L 5750 4975 
Q 5725 4625 5725 4225 
Q 5725 3850 5750 3450 
L 4000 3450 
L 3950 2700 
L 5800 2700 
Q 5750 2150 5725 1187 
Q 5700 225 5675 -12 
Q 5650 -250 5475 -387 
Q 5300 -525 4675 -625 
Q 4650 -325 4475 -100 
z
M 1650 -100 
Q 2225 -75 2350 12 
Q 2475 100 2475 950 
Q 1250 450 750 150 
Q 625 425 450 600 
Q 850 750 1300 912 
Q 1750 1075 2475 1400 
L 2475 2325 
L 750 2325 
Q 800 2875 812 3200 
Q 825 3525 875 3875 
L 2475 3875 
L 2475 4600 
L 1600 4600 
Q 1075 4600 750 4550 
L 750 5000 
Q 1075 4975 1550 4975 
L 2950 4975 
Q 2925 4625 2925 4225 
Q 2925 3850 2950 3450 
L 1275 3450 
L 1225 2700 
L 2950 2700 
Q 2925 2125 2912 1100 
Q 2900 75 2850 -100 
Q 2800 -275 2612 -375 
Q 2425 -475 1875 -625 
Q 1800 -350 1650 -100 
z
M 3600 1925 
Q 3800 2025 3975 2175 
Q 4250 1850 4600 1425 
Q 4375 1350 4200 1175 
Q 3925 1650 3600 1925 
z
M 1200 2175 
Q 1475 1900 1825 1475 
Q 1650 1350 1500 1200 
Q 1125 1650 900 1900 
Q 1075 2050 1200 2175 
z
" id="SimHei-5f31" transform="scale(0.015625)"/>
       <path d="M 3450 4525 
Q 3325 4075 3275 3750 
L 4050 3750 
L 4050 4275 
Q 4050 4700 4025 5100 
L 4550 5100 
Q 4525 4700 4525 4275 
L 4525 3750 
L 5025 3750 
Q 5350 3750 5800 3775 
L 5800 3300 
Q 5350 3325 5025 3325 
L 4525 3325 
L 4525 2000 
L 4975 2000 
Q 5350 2000 5725 2025 
L 5725 1550 
Q 5350 1575 4975 1575 
L 4525 1575 
L 4525 25 
L 5200 25 
Q 5625 25 6025 50 
L 6025 -400 
Q 5625 -375 5200 -375 
L 3275 -375 
Q 2825 -375 2400 -400 
L 2400 50 
Q 2825 25 3250 25 
L 4050 25 
L 4050 1575 
L 3625 1575 
Q 3300 1575 2875 1550 
L 2875 2025 
Q 3200 2000 3625 2000 
L 4050 2000 
L 4050 3325 
L 3175 3325 
Q 3100 2950 2775 2225 
Q 2500 2375 2325 2400 
Q 2675 3125 2775 3650 
Q 2875 4175 2950 4650 
Q 3200 4575 3450 4525 
z
M 1700 5150 
Q 1675 4650 1675 4175 
L 1675 425 
Q 1675 -100 1700 -625 
L 1175 -625 
Q 1200 -100 1200 425 
L 1200 4175 
Q 1200 4700 1175 5150 
L 1700 5150 
z
M 975 3725 
Q 825 2675 700 2150 
Q 450 2200 250 2250 
Q 425 2900 525 3800 
Q 725 3775 975 3725 
z
M 2125 4025 
Q 2325 3625 2525 3000 
Q 2300 2925 2125 2825 
Q 1950 3375 1750 3850 
Q 1950 3950 2125 4025 
z
" id="SimHei-6027" transform="scale(0.015625)"/>
       <path d="M 5625 2225 
Q 5600 1925 5600 1350 
L 5600 300 
Q 5600 -225 5625 -525 
L 5125 -525 
L 5125 -125 
L 3300 -125 
L 3300 -625 
L 2800 -625 
Q 2825 -300 2825 300 
L 2825 1350 
Q 2825 1925 2800 2225 
L 5625 2225 
z
M 500 25 
Q 1075 -25 1175 37 
Q 1275 100 1275 275 
L 1275 1675 
Q 1050 1600 925 1537 
Q 800 1475 475 1275 
Q 400 1525 225 1800 
Q 625 1900 825 1975 
Q 1025 2050 1275 2125 
L 1275 3300 
L 1100 3300 
Q 775 3300 450 3275 
L 450 3725 
Q 750 3700 1100 3700 
L 1275 3700 
L 1275 4450 
Q 1275 4800 1250 5125 
L 1775 5125 
Q 1750 4850 1750 4450 
L 1750 3700 
Q 2075 3700 2425 3725 
L 2425 3275 
Q 2050 3300 1750 3300 
L 1750 2325 
Q 1850 2350 2025 2425 
L 2375 2575 
Q 2350 2300 2375 2100 
Q 2225 2050 2062 1987 
Q 1900 1925 1750 1850 
L 1750 100 
Q 1725 -200 1575 -337 
Q 1425 -475 675 -525 
Q 625 -250 500 25 
z
M 3325 5025 
Q 3300 4675 3300 4125 
Q 4125 4275 4512 4412 
Q 4900 4550 5225 4725 
Q 5325 4475 5575 4250 
Q 5450 4225 5237 4175 
Q 5025 4125 4725 4050 
Q 4425 3975 4037 3887 
Q 3650 3800 3300 3725 
L 3300 3175 
Q 3275 2925 3700 2925 
L 4925 2925 
Q 5300 2925 5387 3087 
Q 5475 3250 5550 3600 
Q 5750 3400 6050 3300 
Q 5825 2725 5700 2637 
Q 5575 2550 5275 2525 
L 3350 2525 
Q 3050 2525 2937 2687 
Q 2825 2850 2825 2975 
L 2825 4125 
Q 2825 4775 2800 5025 
L 3325 5025 
z
M 5125 275 
L 5125 875 
L 3300 875 
L 3300 275 
L 5125 275 
z
M 5125 1250 
L 5125 1825 
L 3300 1825 
L 3300 1250 
L 5125 1250 
z
" id="SimHei-6307" transform="scale(0.015625)"/>
       <path d="M 1275 4400 
Q 1275 4800 1250 5175 
L 1750 5175 
Q 1725 4825 1725 4400 
L 1725 3800 
Q 2125 3800 2575 3825 
L 2575 3350 
Q 2125 3375 1725 3375 
L 1725 2525 
Q 1900 2650 2075 2800 
Q 2400 2275 2650 1775 
Q 2375 1650 2175 1500 
Q 2025 2000 1725 2425 
L 1725 475 
Q 1725 -50 1750 -575 
L 1250 -575 
Q 1275 -25 1275 475 
L 1275 2100 
Q 1025 1400 500 750 
Q 350 950 125 1125 
Q 550 1550 812 2187 
Q 1075 2825 1150 3375 
Q 675 3375 325 3325 
L 325 3825 
Q 800 3800 1275 3800 
L 1275 4400 
z
M 5175 3125 
Q 5675 3125 6050 3150 
L 6050 2675 
Q 5675 2700 5275 2700 
L 4500 2700 
L 4500 175 
Q 4500 -225 4275 -350 
Q 4050 -475 3475 -550 
Q 3425 -250 3275 25 
Q 3775 25 3900 62 
Q 4025 100 4025 350 
L 4025 2700 
L 3400 2700 
Q 2775 2700 2500 2650 
L 2500 3150 
Q 2825 3125 3400 3125 
L 5175 3125 
z
M 4900 4775 
Q 5425 4775 5750 4800 
L 5750 4300 
Q 5275 4350 4750 4350 
L 3525 4350 
Q 3125 4350 2750 4300 
L 2750 4800 
Q 3100 4775 3525 4775 
L 4900 4775 
z
M 5275 2025 
Q 5825 1175 6200 500 
Q 5925 375 5650 200 
Q 5375 925 4825 1725 
Q 5075 1850 5275 2025 
z
M 3600 1775 
Q 3500 1625 3225 975 
Q 2950 325 2800 50 
Q 2575 175 2300 275 
Q 2625 775 2787 1187 
Q 2950 1600 3050 2000 
Q 3325 1875 3600 1775 
z
" id="SimHei-6807" transform="scale(0.015625)"/>
      </defs>
      <use xlink:href="#SimHei-8106"/>
      <use x="100" xlink:href="#SimHei-5f31"/>
      <use x="200" xlink:href="#SimHei-6027"/>
      <use x="300" xlink:href="#SimHei-6307"/>
      <use x="400" xlink:href="#SimHei-6807"/>
     </g>
    </g>
   </g>
   <g id="matplotlib.axis_2">
    <g id="ytick_1">
     <g id="line2d_11">
      <defs>
       <path d="M 0 0 
L -3.5 0 
" id="m53257294e0" style="stroke:#000000;stroke-width:0.8;"/>
      </defs>
      <g>
       <use style="stroke:#000000;stroke-width:0.8;" x="58.254687" xlink:href="#m53257294e0" y="336.7975"/>
      </g>
     </g>
     <g id="text_12">
      <!-- 0.0000 -->
      <g transform="translate(21.254687 340.235)scale(0.1 -0.1)">
       <use xlink:href="#SimHei-30"/>
       <use x="50" xlink:href="#SimHei-2e"/>
       <use x="100" xlink:href="#SimHei-30"/>
       <use x="150" xlink:href="#SimHei-30"/>
       <use x="200" xlink:href="#SimHei-30"/>
       <use x="250" xlink:href="#SimHei-30"/>
      </g>
     </g>
    </g>
    <g id="ytick_2">
     <g id="line2d_12">
      <g>
       <use style="stroke:#000000;stroke-width:0.8;" x="58.254687" xlink:href="#m53257294e0" y="290.203214"/>
      </g>
     </g>
     <g id="text_13">
      <!-- 0.1000 -->
      <g transform="translate(21.254687 293.640714)scale(0.1 -0.1)">
       <use xlink:href="#SimHei-30"/>
       <use x="50" xlink:href="#SimHei-2e"/>
       <use x="100" xlink:href="#SimHei-31"/>
       <use x="150" xlink:href="#SimHei-30"/>
       <use x="200" xlink:href="#SimHei-30"/>
       <use x="250" xlink:href="#SimHei-30"/>
      </g>
     </g>
    </g>
    <g id="ytick_3">
     <g id="line2d_13">
      <g>
       <use style="stroke:#000000;stroke-width:0.8;" x="58.254687" xlink:href="#m53257294e0" y="243.608929"/>
      </g>
     </g>
     <g id="text_14">
      <!-- 0.2000 -->
      <g transform="translate(21.254687 247.046429)scale(0.1 -0.1)">
       <use xlink:href="#SimHei-30"/>
       <use x="50" xlink:href="#SimHei-2e"/>
       <use x="100" xlink:href="#SimHei-32"/>
       <use x="150" xlink:href="#SimHei-30"/>
       <use x="200" xlink:href="#SimHei-30"/>
       <use x="250" xlink:href="#SimHei-30"/>
      </g>
     </g>
    </g>
    <g id="ytick_4">
     <g id="line2d_14">
      <g>
       <use style="stroke:#000000;stroke-width:0.8;" x="58.254687" xlink:href="#m53257294e0" y="197.014643"/>
      </g>
     </g>
     <g id="text_15">
      <!-- 0.3000 -->
      <g transform="translate(21.254687 200.452143)scale(0.1 -0.1)">
       <defs>
        <path d="M 250 1225 
L 700 1300 
Q 800 975 1025 762 
Q 1250 550 1587 562 
Q 1925 575 2125 837 
Q 2325 1100 2300 1437 
Q 2275 1775 2037 1962 
Q 1800 2150 1275 2225 
L 1275 2550 
Q 1800 2600 2037 2825 
Q 2275 3050 2250 3412 
Q 2225 3775 1925 3937 
Q 1625 4100 1287 3975 
Q 950 3850 750 3275 
L 300 3350 
Q 450 3800 712 4100 
Q 975 4400 1425 4450 
Q 1875 4500 2212 4337 
Q 2550 4175 2687 3837 
Q 2825 3500 2725 3100 
Q 2625 2700 2150 2400 
Q 2500 2250 2687 1950 
Q 2875 1650 2812 1162 
Q 2750 675 2375 375 
Q 2000 75 1525 87 
Q 1050 100 700 387 
Q 350 675 250 1225 
z
" id="SimHei-33" transform="scale(0.015625)"/>
       </defs>
       <use xlink:href="#SimHei-30"/>
       <use x="50" xlink:href="#SimHei-2e"/>
       <use x="100" xlink:href="#SimHei-33"/>
       <use x="150" xlink:href="#SimHei-30"/>
       <use x="200" xlink:href="#SimHei-30"/>
       <use x="250" xlink:href="#SimHei-30"/>
      </g>
     </g>
    </g>
    <g id="ytick_5">
     <g id="line2d_15">
      <g>
       <use style="stroke:#000000;stroke-width:0.8;" x="58.254687" xlink:href="#m53257294e0" y="150.420357"/>
      </g>
     </g>
     <g id="text_16">
      <!-- 0.4000 -->
      <g transform="translate(21.254687 153.857857)scale(0.1 -0.1)">
       <use xlink:href="#SimHei-30"/>
       <use x="50" xlink:href="#SimHei-2e"/>
       <use x="100" xlink:href="#SimHei-34"/>
       <use x="150" xlink:href="#SimHei-30"/>
       <use x="200" xlink:href="#SimHei-30"/>
       <use x="250" xlink:href="#SimHei-30"/>
      </g>
     </g>
    </g>
    <g id="ytick_6">
     <g id="line2d_16">
      <g>
       <use style="stroke:#000000;stroke-width:0.8;" x="58.254687" xlink:href="#m53257294e0" y="103.826071"/>
      </g>
     </g>
     <g id="text_17">
      <!-- 0.5000 -->
      <g transform="translate(21.254687 107.263571)scale(0.1 -0.1)">
       <defs>
        <path d="M 550 1325 
Q 725 650 1150 575 
Q 1575 500 1837 662 
Q 2100 825 2212 1087 
Q 2325 1350 2312 1675 
Q 2300 2000 2137 2225 
Q 1975 2450 1725 2525 
Q 1475 2600 1162 2525 
Q 850 2450 650 2175 
L 225 2225 
Q 275 2375 700 4375 
L 2675 4375 
L 2675 3925 
L 1075 3925 
Q 950 3250 825 2850 
Q 1200 3025 1525 3012 
Q 1850 3000 2150 2862 
Q 2450 2725 2587 2487 
Q 2725 2250 2787 2012 
Q 2850 1775 2837 1500 
Q 2825 1225 2725 937 
Q 2625 650 2425 462 
Q 2225 275 1937 162 
Q 1650 50 1275 75 
Q 900 100 562 350 
Q 225 600 100 1200 
L 550 1325 
z
" id="SimHei-35" transform="scale(0.015625)"/>
       </defs>
       <use xlink:href="#SimHei-30"/>
       <use x="50" xlink:href="#SimHei-2e"/>
       <use x="100" xlink:href="#SimHei-35"/>
       <use x="150" xlink:href="#SimHei-30"/>
       <use x="200" xlink:href="#SimHei-30"/>
       <use x="250" xlink:href="#SimHei-30"/>
      </g>
     </g>
    </g>
    <g id="ytick_7">
     <g id="line2d_17">
      <g>
       <use style="stroke:#000000;stroke-width:0.8;" x="58.254687" xlink:href="#m53257294e0" y="57.231786"/>
      </g>
     </g>
     <g id="text_18">
      <!-- 0.6000 -->
      <g transform="translate(21.254687 60.669286)scale(0.1 -0.1)">
       <use xlink:href="#SimHei-30"/>
       <use x="50" xlink:href="#SimHei-2e"/>
       <use x="100" xlink:href="#SimHei-36"/>
       <use x="150" xlink:href="#SimHei-30"/>
       <use x="200" xlink:href="#SimHei-30"/>
       <use x="250" xlink:href="#SimHei-30"/>
      </g>
     </g>
    </g>
    <g id="ytick_8">
     <g id="line2d_18">
      <g>
       <use style="stroke:#000000;stroke-width:0.8;" x="58.254687" xlink:href="#m53257294e0" y="10.6375"/>
      </g>
     </g>
     <g id="text_19">
      <!-- 0.7000 -->
      <g transform="translate(21.254687 14.075)scale(0.1 -0.1)">
       <defs>
        <path d="M 850 150 
Q 1300 2050 2425 3925 
L 275 3925 
L 275 4375 
L 2950 4375 
L 2950 3950 
Q 1775 2050 1400 150 
L 850 150 
z
" id="SimHei-37" transform="scale(0.015625)"/>
       </defs>
       <use xlink:href="#SimHei-30"/>
       <use x="50" xlink:href="#SimHei-2e"/>
       <use x="100" xlink:href="#SimHei-37"/>
       <use x="150" xlink:href="#SimHei-30"/>
       <use x="200" xlink:href="#SimHei-30"/>
       <use x="250" xlink:href="#SimHei-30"/>
      </g>
     </g>
    </g>
    <g id="ytick_9">
     <g id="line2d_19">
      <g>
       <use style="stroke:#000000;stroke-width:0.8;" x="58.254687" xlink:href="#m53257294e0" y="125.945456"/>
      </g>
     </g>
     <g id="text_20">
      <!-- 0.4525 -->
      <g transform="translate(21.254687 129.382956)scale(0.1 -0.1)">
       <use xlink:href="#SimHei-30"/>
       <use x="50" xlink:href="#SimHei-2e"/>
       <use x="100" xlink:href="#SimHei-34"/>
       <use x="150" xlink:href="#SimHei-35"/>
       <use x="200" xlink:href="#SimHei-32"/>
       <use x="250" xlink:href="#SimHei-35"/>
      </g>
     </g>
    </g>
    <g id="text_21">
     <!-- 概率 -->
     <g transform="translate(15.879687 184.7175)rotate(-90)scale(0.11 -0.11)">
      <defs>
       <path d="M 3100 1150 
Q 3000 1350 2900 1475 
Q 3075 1600 3275 1725 
Q 3425 1475 3537 1262 
Q 3650 1050 3825 750 
Q 3675 625 3425 450 
Q 3375 600 3275 800 
Q 3075 625 2775 412 
Q 2475 200 2250 -50 
Q 2075 200 1925 350 
Q 2100 525 2125 875 
L 2125 4000 
Q 2125 4425 2100 4700 
L 3575 4700 
Q 3550 4325 3550 3475 
Q 3550 2650 3575 2200 
L 2550 2200 
L 2550 750 
Q 2725 850 3100 1150 
z
M 3325 -700 
Q 3200 -500 2950 -325 
Q 3400 -75 3850 637 
Q 4300 1350 4500 2350 
L 3800 2350 
Q 3825 2725 3825 3075 
Q 3825 3425 3800 3750 
L 4275 3750 
Q 4225 3550 4225 3250 
L 4225 2725 
L 4600 2725 
Q 4675 3500 4675 4400 
L 4425 4400 
Q 4075 4400 3800 4375 
L 3800 4800 
Q 4100 4775 4425 4775 
L 5150 4775 
Q 5625 4775 5850 4800 
L 5850 4375 
Q 5650 4400 5100 4400 
Q 5100 3700 5025 2725 
L 5375 2725 
Q 5600 2725 5925 2750 
L 5925 2325 
Q 5600 2350 5425 2350 
L 4950 2350 
Q 4625 1075 4287 462 
Q 3950 -150 3325 -700 
z
M 1000 4425 
Q 1000 4750 975 5050 
L 1475 5050 
Q 1425 4725 1425 4300 
L 1425 3800 
Q 1625 3800 1925 3825 
L 1925 3400 
Q 1600 3425 1425 3425 
L 1425 2650 
Q 1550 2725 1700 2825 
Q 1900 2350 2075 1875 
Q 1850 1825 1700 1700 
Q 1600 2050 1425 2450 
L 1425 300 
Q 1425 -125 1450 -575 
L 975 -575 
Q 1000 -50 1000 300 
L 1000 2025 
Q 825 1450 550 950 
Q 450 1150 175 1350 
Q 500 1825 662 2275 
Q 825 2725 950 3425 
Q 500 3425 350 3400 
L 350 3825 
Q 550 3800 1000 3800 
L 1000 4425 
z
M 5300 1725 
Q 5275 1050 5275 225 
Q 5275 -50 5412 -75 
Q 5550 -100 5625 -87 
Q 5700 -75 5737 37 
Q 5775 150 5775 475 
Q 6000 350 6250 300 
Q 6150 -225 6050 -350 
Q 5950 -475 5650 -475 
L 5350 -475 
Q 4800 -450 4850 50 
Q 4850 925 4850 1725 
L 5300 1725 
z
M 3125 2575 
L 3125 3275 
L 2550 3275 
L 2550 2575 
L 3125 2575 
z
M 3125 3650 
L 3125 4325 
L 2550 4325 
L 2550 3650 
L 3125 3650 
z
" id="SimHei-6982" transform="scale(0.015625)"/>
       <path d="M 3325 5150 
Q 3425 4900 3550 4525 
L 4800 4525 
Q 5250 4525 5800 4550 
L 5800 4125 
Q 5250 4175 4775 4175 
L 2800 4175 
Q 2975 4050 3300 3900 
Q 3075 3750 2875 3537 
Q 2675 3325 2475 3125 
L 3275 3125 
Q 3575 3425 3775 3775 
Q 4000 3600 4275 3425 
Q 3950 3250 3600 2875 
Q 3250 2500 2625 2000 
L 3850 2100 
Q 3725 2250 3600 2425 
Q 3750 2475 4000 2650 
Q 4250 2350 4700 1700 
Q 4475 1625 4225 1450 
Q 4175 1600 4025 1775 
Q 3700 1750 3425 1750 
L 3425 1050 
L 5150 1050 
Q 5675 1050 6100 1075 
L 6100 650 
Q 5700 675 5125 675 
L 3425 675 
L 3425 175 
Q 3425 -300 3450 -625 
L 2900 -625 
Q 2925 -300 2925 175 
L 2925 675 
L 1325 675 
Q 825 675 325 650 
L 325 1075 
Q 825 1050 1350 1050 
L 2925 1050 
L 2925 1700 
Q 2700 1675 2475 1637 
Q 2250 1600 2025 1525 
Q 1950 1775 1850 2000 
Q 2075 2025 2325 2200 
Q 2575 2375 2975 2800 
Q 2300 2725 2025 2625 
Q 1975 2875 1850 3175 
Q 2075 3175 2325 3487 
Q 2575 3800 2750 4175 
L 1700 4175 
Q 1150 4175 650 4125 
L 650 4550 
Q 1150 4525 1550 4525 
L 2975 4525 
Q 2900 4825 2800 5025 
Q 3025 5075 3325 5150 
z
M 1625 2575 
Q 1725 2400 1825 2200 
Q 1575 2050 1325 1862 
Q 1075 1675 800 1425 
Q 625 1675 475 1875 
Q 800 2025 1100 2212 
Q 1400 2400 1625 2575 
z
M 4850 2650 
Q 5125 2475 5337 2337 
Q 5550 2200 5875 1950 
Q 5675 1800 5500 1600 
Q 5300 1775 5062 1975 
Q 4825 2175 4575 2325 
Q 4725 2475 4850 2650 
z
M 5725 3525 
Q 5550 3450 5300 3262 
Q 5050 3075 4800 2825 
Q 4625 3050 4475 3175 
Q 4700 3325 4875 3487 
Q 5050 3650 5300 3925 
Q 5525 3700 5725 3525 
z
M 1050 3850 
Q 1425 3600 1775 3275 
Q 1575 3100 1425 2925 
Q 1075 3300 675 3525 
Q 875 3700 1050 3850 
z
" id="SimHei-7387" transform="scale(0.015625)"/>
      </defs>
      <use xlink:href="#SimHei-6982"/>
      <use x="100" xlink:href="#SimHei-7387"/>
     </g>
    </g>
   </g>
   <g id="line2d_20">
    <path clip-path="url(#p857e12ef89)" d="M 58.254687 125.945456 
L 616.254688 125.945456 
" style="fill:none;stroke:#000000;stroke-dasharray:3.7,1.6;stroke-dashoffset:0;"/>
   </g>
   <g id="line2d_21">
    <path clip-path="url(#p857e12ef89)" d="M 96.042117 336.7975 
L 96.042117 10.6375 
" style="fill:none;stroke:#000000;stroke-dasharray:3.7,1.6;stroke-dashoffset:0;"/>
   </g>
   <g id="patch_3">
    <path d="M 58.254687 336.7975 
L 58.254687 10.6375 
" style="fill:none;stroke:#000000;stroke-linecap:square;stroke-linejoin:miter;stroke-width:0.8;"/>
   </g>
   <g id="patch_4">
    <path d="M 58.254687 336.7975 
L 616.254688 336.7975 
" style="fill:none;stroke:#000000;stroke-linecap:square;stroke-linejoin:miter;stroke-width:0.8;"/>
   </g>
   <g id="text_22">
    <!-- 73 -->
    <g transform="translate(81.554617 119.911027)scale(0.11 -0.11)">
     <use xlink:href="#SimHei-37"/>
     <use x="50" xlink:href="#SimHei-33"/>
    </g>
   </g>
   <g id="text_23">
    <!-- 0 -->
    <g transform="translate(99.529617 119.911027)scale(0.11 -0.11)">
     <use xlink:href="#SimHei-30"/>
    </g>
   </g>
   <g id="text_24">
    <!-- 9 -->
    <g transform="translate(87.054617 138.167384)scale(0.11 -0.11)">
     <defs>
      <path d="M 800 75 
Q 1350 1000 1700 1750 
Q 1075 1650 662 1912 
Q 250 2175 162 2625 
Q 75 3075 175 3437 
Q 275 3800 487 4037 
Q 700 4275 1000 4375 
Q 1300 4475 1537 4475 
Q 1775 4475 2025 4375 
Q 2275 4275 2475 4075 
Q 2675 3875 2750 3662 
Q 2825 3450 2825 3112 
Q 2825 2775 2575 2250 
Q 2325 1725 1350 75 
L 800 75 
z
M 662 2875 
Q 700 2550 937 2337 
Q 1175 2125 1450 2150 
Q 1725 2175 1887 2300 
Q 2050 2425 2200 2725 
Q 2300 3100 2250 3362 
Q 2200 3625 1987 3800 
Q 1775 3975 1525 3975 
Q 1375 4000 1137 3900 
Q 900 3800 762 3500 
Q 625 3200 662 2875 
z
" id="SimHei-39" transform="scale(0.015625)"/>
     </defs>
     <use xlink:href="#SimHei-39"/>
    </g>
   </g>
   <g id="text_25">
    <!-- 26 -->
    <g transform="translate(99.529617 138.167384)scale(0.11 -0.11)">
     <use xlink:href="#SimHei-32"/>
     <use x="50" xlink:href="#SimHei-36"/>
    </g>
   </g>
   <g id="text_26">
    <!-- 图6 2020年各节点脆弱性的概率水平 -->
    <g transform="translate(249.254687 396.0295)scale(0.11 -0.11)">
     <defs>
      <path d="M 5800 4975 
Q 5775 4350 5775 3600 
L 5775 925 
Q 5775 150 5800 -600 
L 5300 -600 
L 5300 -275 
L 1125 -275 
L 1125 -650 
L 625 -650 
Q 650 125 650 950 
L 650 3600 
Q 650 4325 625 4975 
L 5800 4975 
z
M 5300 150 
L 5300 4575 
L 1125 4575 
L 1125 150 
L 5300 150 
z
M 3225 4250 
Q 3075 4100 2950 3925 
L 4625 3925 
Q 4525 3700 4300 3375 
Q 4075 3050 3600 2600 
Q 4350 2225 5075 2150 
Q 4900 1925 4775 1675 
Q 3850 1950 3225 2350 
Q 2500 1875 1675 1650 
Q 1600 1875 1400 2075 
Q 2200 2200 2875 2600 
Q 2525 2925 2375 3150 
Q 2150 2900 1900 2650 
Q 1725 2850 1525 2950 
Q 1950 3300 2250 3737 
Q 2550 4175 2675 4475 
Q 2925 4350 3225 4250 
z
M 2450 1275 
Q 3550 950 4100 725 
Q 3975 525 3850 300 
Q 2825 725 2275 850 
Q 2375 1050 2450 1275 
z
M 2925 2050 
Q 3775 1700 4075 1600 
Q 3950 1400 3850 1150 
Q 3000 1550 2700 1650 
Q 2825 1825 2925 2050 
z
M 2625 3450 
Q 3000 3025 3275 2850 
Q 3600 3100 3875 3525 
L 2675 3525 
L 2625 3450 
z
" id="SimHei-56fe" transform="scale(0.015625)"/>
      <path id="SimHei-20" transform="scale(0.015625)"/>
      <path d="M 350 2925 
Q 900 3450 1375 4200 
Q 1850 4950 1900 5275 
Q 2275 5125 2600 5050 
Q 2375 4825 2100 4325 
L 4625 4325 
Q 5175 4325 5750 4350 
L 5750 3925 
Q 5225 3950 4625 3950 
L 3800 3950 
L 3800 2925 
Q 4750 2925 5475 2950 
L 5475 2525 
Q 4725 2550 3800 2550 
L 3800 1375 
L 5075 1375 
Q 5625 1375 6100 1400 
L 6100 975 
Q 5650 1000 5075 1000 
L 3800 1000 
L 3800 425 
Q 3800 -150 3825 -625 
L 3275 -625 
Q 3300 -150 3300 375 
L 3300 1000 
L 1600 1000 
Q 900 1000 275 975 
L 275 1400 
Q 875 1375 1450 1375 
Q 1450 2350 1425 2925 
L 3300 2925 
L 3300 3950 
L 1875 3950 
Q 1350 3150 925 2650 
Q 650 2875 350 2925 
z
M 3300 1375 
L 3300 2550 
L 1925 2550 
L 1925 1375 
L 3300 1375 
z
" id="SimHei-5e74" transform="scale(0.015625)"/>
      <path d="M 5100 4425 
Q 4850 4000 4525 3600 
Q 4200 3200 3675 2750 
Q 4050 2500 4750 2325 
Q 5450 2150 6050 2125 
Q 5825 1825 5775 1600 
Q 5050 1750 4412 1962 
Q 3775 2175 3300 2475 
Q 2750 2150 2000 1875 
Q 1250 1600 550 1425 
Q 475 1625 275 1850 
Q 900 1950 1662 2200 
Q 2425 2450 2950 2750 
Q 2525 3150 2100 3900 
Q 1900 3575 1675 3300 
Q 1450 3025 1250 2800 
Q 1050 3000 850 3100 
Q 1200 3400 1587 3950 
Q 1975 4500 2175 5225 
Q 2450 5075 2725 5000 
Q 2600 4850 2375 4425 
L 5100 4425 
z
M 4975 1675 
Q 4950 1125 4950 400 
Q 4950 -325 4975 -575 
L 4475 -575 
L 4475 -225 
L 2050 -225 
L 2050 -625 
L 1550 -625 
Q 1575 -275 1575 400 
Q 1575 1075 1550 1675 
L 4975 1675 
z
M 4475 200 
L 4475 1250 
L 2050 1250 
L 2050 200 
L 4475 200 
z
M 3325 3000 
Q 3875 3450 4300 4025 
L 2500 4025 
Q 2975 3275 3325 3000 
z
" id="SimHei-5404" transform="scale(0.015625)"/>
      <path d="M 4200 200 
Q 4150 500 3950 800 
Q 4450 800 4712 850 
Q 4975 900 5000 1150 
L 5050 2500 
L 2925 2500 
L 2925 325 
Q 2925 -125 2950 -600 
L 2375 -600 
Q 2425 -150 2425 325 
L 2425 2500 
L 1875 2500 
Q 1050 2500 550 2475 
L 550 2950 
Q 1075 2925 1625 2925 
L 5625 2925 
Q 5550 1875 5525 1225 
Q 5500 575 5150 412 
Q 4800 250 4200 200 
z
M 2475 3950 
Q 2475 3500 2500 3175 
L 1950 3175 
Q 1975 3550 1975 3950 
L 1125 3950 
Q 775 3950 350 3900 
L 350 4400 
Q 775 4375 1125 4375 
L 1975 4375 
Q 1975 4850 1950 5175 
L 2500 5175 
Q 2475 4850 2475 4375 
L 3800 4375 
Q 3800 4875 3775 5175 
L 4350 5175 
Q 4325 4875 4325 4375 
L 5125 4375 
Q 5600 4375 6000 4400 
L 6000 3925 
Q 5600 3950 5125 3950 
L 4325 3950 
Q 4325 3550 4350 3175 
L 3775 3175 
Q 3800 3575 3800 3950 
L 2475 3950 
z
" id="SimHei-8282" transform="scale(0.015625)"/>
      <path d="M 3325 5200 
Q 3300 4925 3300 4375 
L 4900 4375 
Q 5275 4375 5725 4400 
L 5725 3925 
Q 5300 3950 4900 3950 
L 3300 3950 
L 3300 3225 
L 5225 3225 
Q 5200 2700 5200 2150 
Q 5200 1625 5225 1175 
L 1175 1175 
Q 1200 1625 1200 2175 
Q 1200 2725 1175 3225 
L 2775 3225 
L 2775 4500 
Q 2775 4900 2750 5200 
L 3325 5200 
z
M 4700 1600 
L 4700 2800 
L 1725 2800 
L 1725 1600 
L 4700 1600 
z
M 1500 750 
Q 1025 -250 825 -625 
Q 625 -475 325 -375 
Q 650 50 950 925 
Q 1200 800 1500 750 
z
M 5325 850 
Q 5775 150 6075 -350 
Q 5925 -425 5575 -625 
Q 5375 -150 4900 575 
Q 5150 700 5325 850 
z
M 3975 -575 
Q 3775 -100 3400 575 
Q 3575 675 3825 825 
Q 4350 -75 4450 -325 
Q 4200 -450 3975 -575 
z
M 2375 -575 
Q 2350 -300 1975 550 
Q 2200 625 2425 775 
Q 2800 -75 2900 -350 
Q 2625 -450 2375 -575 
z
" id="SimHei-70b9" transform="scale(0.015625)"/>
      <path d="M 2100 4975 
Q 1975 4750 1750 3950 
L 2875 3950 
Q 2850 3525 2850 2875 
L 2850 675 
Q 2850 300 2875 -400 
L 2375 -400 
L 2375 100 
L 1100 100 
L 1100 -450 
L 600 -450 
Q 625 350 625 550 
L 625 2850 
Q 625 3525 600 3950 
L 1325 3950 
Q 1450 4525 1525 5150 
Q 1875 5025 2100 4975 
z
M 5825 3075 
Q 5800 1550 5700 175 
Q 5650 -275 5225 -425 
Q 4800 -575 4275 -625 
Q 4250 -350 4050 -50 
Q 4550 -75 4837 -25 
Q 5125 25 5200 200 
Q 5275 375 5312 1225 
Q 5350 2075 5375 3600 
L 3925 3600 
Q 3725 3125 3350 2475 
Q 3175 2650 2925 2750 
Q 3150 3050 3350 3475 
Q 3550 3900 3700 4400 
Q 3850 4900 3875 5175 
Q 4225 5025 4475 4950 
Q 4350 4750 4262 4512 
Q 4175 4275 4075 4050 
L 5850 4050 
Q 5825 3525 5825 3075 
z
M 2375 525 
L 2375 1850 
L 1100 1850 
L 1100 525 
L 2375 525 
z
M 2375 2275 
L 2375 3525 
L 1100 3525 
L 1100 2275 
L 2375 2275 
z
M 4350 2050 
Q 4500 1750 4700 1275 
Q 4525 1200 4225 1025 
Q 4050 1500 3900 1837 
Q 3750 2175 3600 2400 
Q 3775 2500 4050 2650 
L 4350 2050 
z
" id="SimHei-7684" transform="scale(0.015625)"/>
      <path d="M 3450 5175 
Q 3450 4800 3437 4500 
Q 3425 4200 3487 3762 
Q 3550 3325 3950 2725 
Q 4975 3575 5175 4050 
Q 5450 3800 5675 3575 
Q 5350 3350 5037 3075 
Q 4725 2800 4175 2325 
Q 4375 1900 4900 1375 
Q 5425 850 6175 625 
Q 5750 425 5675 125 
Q 4725 700 4212 1400 
Q 3700 2100 3425 2800 
L 3425 25 
Q 3450 -325 3162 -475 
Q 2875 -625 2400 -675 
Q 2375 -400 2175 -75 
Q 2575 -150 2750 -100 
Q 2925 -50 2925 225 
L 2925 4175 
Q 2925 4800 2875 5175 
L 3450 5175 
z
M 2550 3575 
Q 2425 2900 2237 2362 
Q 2050 1825 1737 1300 
Q 1425 775 750 100 
Q 575 325 225 450 
Q 925 950 1337 1600 
Q 1750 2250 1950 3125 
L 1275 3125 
Q 900 3125 425 3075 
L 425 3600 
Q 875 3575 1250 3575 
L 2550 3575 
z
" id="SimHei-6c34" transform="scale(0.015625)"/>
      <path d="M 4525 4825 
Q 4900 4825 5450 4850 
L 5450 4375 
Q 4925 4400 4525 4400 
L 3475 4400 
L 3475 2025 
L 5000 2025 
Q 5550 2025 6025 2050 
L 6025 1575 
Q 5550 1600 5000 1600 
L 3475 1600 
L 3475 450 
Q 3475 -100 3500 -600 
L 2925 -600 
Q 2950 -100 2950 450 
L 2950 1600 
L 1125 1600 
Q 775 1600 375 1575 
L 375 2050 
Q 775 2025 1175 2025 
L 2950 2025 
L 2950 4400 
L 1775 4400 
Q 1400 4400 875 4375 
L 875 4850 
Q 1400 4825 1750 4825 
L 4525 4825 
z
M 3925 2600 
Q 4500 3300 4900 4125 
Q 5150 3950 5400 3825 
Q 4775 2850 4350 2300 
Q 4150 2475 3925 2600 
z
M 1975 2350 
Q 1600 3100 1050 3725 
Q 1250 3875 1450 4050 
Q 2075 3300 2450 2725 
Q 2150 2500 1975 2350 
z
" id="SimHei-5e73" transform="scale(0.015625)"/>
     </defs>
     <use xlink:href="#SimHei-56fe"/>
     <use x="100" xlink:href="#SimHei-36"/>
     <use x="150" xlink:href="#SimHei-20"/>
     <use x="200" xlink:href="#SimHei-32"/>
     <use x="250" xlink:href="#SimHei-30"/>
     <use x="300" xlink:href="#SimHei-32"/>
     <use x="350" xlink:href="#SimHei-30"/>
     <use x="400" xlink:href="#SimHei-5e74"/>
     <use x="500" xlink:href="#SimHei-5404"/>
     <use x="600" xlink:href="#SimHei-8282"/>
     <use x="700" xlink:href="#SimHei-70b9"/>
     <use x="800" xlink:href="#SimHei-8106"/>
     <use x="900" xlink:href="#SimHei-5f31"/>
     <use x="1000" xlink:href="#SimHei-6027"/>
     <use x="1100" xlink:href="#SimHei-7684"/>
     <use x="1200" xlink:href="#SimHei-6982"/>
     <use x="1300" xlink:href="#SimHei-7387"/>
     <use x="1400" xlink:href="#SimHei-6c34"/>
     <use x="1500" xlink:href="#SimHei-5e73"/>
    </g>
   </g>
  </g>
 </g>
 <defs>
  <clipPath id="p857e12ef89">
   <rect height="326.16" width="558" x="58.254687" y="10.6375"/>
  </clipPath>
 </defs>
</svg>
