<?xml version="1.0" encoding="utf-8" standalone="no"?>
<!DOCTYPE svg PUBLIC "-//W3C//DTD SVG 1.1//EN"
  "http://www.w3.org/Graphics/SVG/1.1/DTD/svg11.dtd">
<svg xmlns:xlink="http://www.w3.org/1999/xlink" width="382.881875pt" height="276.82521pt" viewBox="0 0 382.881875 276.82521" xmlns="http://www.w3.org/2000/svg" version="1.1">
 <metadata>
  <rdf:RDF xmlns:dc="http://purl.org/dc/elements/1.1/" xmlns:cc="http://creativecommons.org/ns#" xmlns:rdf="http://www.w3.org/1999/02/22-rdf-syntax-ns#">
   <cc:Work>
    <dc:type rdf:resource="http://purl.org/dc/dcmitype/StillImage"/>
    <dc:date>2022-01-19T17:29:19.538368</dc:date>
    <dc:format>image/svg+xml</dc:format>
    <dc:creator>
     <cc:Agent>
      <dc:title>Matplotlib v3.5.1, https://matplotlib.org/</dc:title>
     </cc:Agent>
    </dc:creator>
   </cc:Work>
  </rdf:RDF>
 </metadata>
 <defs>
  <style type="text/css">*{stroke-linejoin: round; stroke-linecap: butt}</style>
 </defs>
 <g id="figure_1">
  <g id="patch_1">
   <path d="M 0 276.82521 
L 382.881875 276.82521 
L 382.881875 0 
L 0 0 
L 0 276.82521 
z
" style="fill: none"/>
  </g>
  <g id="axes_1">
   <g id="patch_2">
    <path d="M 40.881875 240.584898 
L 375.681875 240.584898 
L 375.681875 23.144898 
L 40.881875 23.144898 
z
" style="fill: #ffffff"/>
   </g>
   <g id="patch_3">
    <path d="M 56.100057 240.584898 
L 61.789097 240.584898 
L 61.789097 237.973476 
L 56.100057 237.973476 
z
" clip-path="url(#pe2e3347ae9)" style="fill: #012e6b"/>
   </g>
   <g id="patch_4">
    <path d="M 73.167177 240.584898 
L 78.856217 240.584898 
L 78.856217 240.323756 
L 73.167177 240.323756 
z
" clip-path="url(#pe2e3347ae9)" style="fill: #012e6b"/>
   </g>
   <g id="patch_5">
    <path d="M 80.278477 240.584898 
L 85.967516 240.584898 
L 85.967516 239.279187 
L 80.278477 239.279187 
z
" clip-path="url(#pe2e3347ae9)" style="fill: #012e6b"/>
   </g>
   <g id="patch_6">
    <path d="M 87.389776 240.584898 
L 93.078816 240.584898 
L 93.078816 238.495761 
L 87.389776 238.495761 
z
" clip-path="url(#pe2e3347ae9)" style="fill: #012e6b"/>
   </g>
   <g id="patch_7">
    <path d="M 104.456896 240.584898 
L 110.145936 240.584898 
L 110.145936 239.540329 
L 104.456896 239.540329 
z
" clip-path="url(#pe2e3347ae9)" style="fill: #012e6b"/>
   </g>
   <g id="patch_8">
    <path d="M 111.568196 240.584898 
L 117.257236 240.584898 
L 117.257236 239.279187 
L 111.568196 239.279187 
z
" clip-path="url(#pe2e3347ae9)" style="fill: #012e6b"/>
   </g>
   <g id="patch_9">
    <path d="M 118.679496 240.584898 
L 124.368536 240.584898 
L 124.368536 239.018045 
L 118.679496 239.018045 
z
" clip-path="url(#pe2e3347ae9)" style="fill: #012e6b"/>
   </g>
   <g id="patch_10">
    <path d="M 125.790796 240.584898 
L 131.479836 240.584898 
L 131.479836 237.712334 
L 125.790796 237.712334 
z
" clip-path="url(#pe2e3347ae9)" style="fill: #012e6b"/>
   </g>
   <g id="patch_11">
    <path d="M 132.902096 240.584898 
L 138.591136 240.584898 
L 138.591136 235.362055 
L 132.902096 235.362055 
z
" clip-path="url(#pe2e3347ae9)" style="fill: #012e6b"/>
   </g>
   <g id="patch_12">
    <path d="M 149.969216 240.584898 
L 155.658256 240.584898 
L 155.658256 240.323756 
L 149.969216 240.323756 
z
" clip-path="url(#pe2e3347ae9)" style="fill: #012e6b"/>
   </g>
   <g id="patch_13">
    <path d="M 157.080516 240.584898 
L 162.769556 240.584898 
L 162.769556 240.323756 
L 157.080516 240.323756 
z
" clip-path="url(#pe2e3347ae9)" style="fill: #012e6b"/>
   </g>
   <g id="patch_14">
    <path d="M 164.191816 240.584898 
L 169.880855 240.584898 
L 169.880855 239.801471 
L 164.191816 239.801471 
z
" clip-path="url(#pe2e3347ae9)" style="fill: #012e6b"/>
   </g>
   <g id="patch_15">
    <path d="M 171.303115 240.584898 
L 176.992155 240.584898 
L 176.992155 239.540329 
L 171.303115 239.540329 
z
" clip-path="url(#pe2e3347ae9)" style="fill: #012e6b"/>
   </g>
   <g id="patch_16">
    <path d="M 178.414415 240.584898 
L 184.103455 240.584898 
L 184.103455 239.279187 
L 178.414415 239.279187 
z
" clip-path="url(#pe2e3347ae9)" style="fill: #012e6b"/>
   </g>
   <g id="patch_17">
    <path d="M 185.525715 240.584898 
L 191.214755 240.584898 
L 191.214755 239.279187 
L 185.525715 239.279187 
z
" clip-path="url(#pe2e3347ae9)" style="fill: #012e6b"/>
   </g>
   <g id="patch_18">
    <path d="M 192.637015 240.584898 
L 198.326055 240.584898 
L 198.326055 238.756903 
L 192.637015 238.756903 
z
" clip-path="url(#pe2e3347ae9)" style="fill: #012e6b"/>
   </g>
   <g id="patch_19">
    <path d="M 199.748315 240.584898 
L 205.437355 240.584898 
L 205.437355 237.973476 
L 199.748315 237.973476 
z
" clip-path="url(#pe2e3347ae9)" style="fill: #012e6b"/>
   </g>
   <g id="patch_20">
    <path d="M 216.815435 240.584898 
L 222.504475 240.584898 
L 222.504475 240.323756 
L 216.815435 240.323756 
z
" clip-path="url(#pe2e3347ae9)" style="fill: #012e6b"/>
   </g>
   <g id="patch_21">
    <path d="M 223.926735 240.584898 
L 229.615775 240.584898 
L 229.615775 240.323756 
L 223.926735 240.323756 
z
" clip-path="url(#pe2e3347ae9)" style="fill: #012e6b"/>
   </g>
   <g id="patch_22">
    <path d="M 231.038035 240.584898 
L 236.727075 240.584898 
L 236.727075 240.062614 
L 231.038035 240.062614 
z
" clip-path="url(#pe2e3347ae9)" style="fill: #012e6b"/>
   </g>
   <g id="patch_23">
    <path d="M 238.149335 240.584898 
L 243.838375 240.584898 
L 243.838375 239.801471 
L 238.149335 239.801471 
z
" clip-path="url(#pe2e3347ae9)" style="fill: #012e6b"/>
   </g>
   <g id="patch_24">
    <path d="M 245.260635 240.584898 
L 250.949674 240.584898 
L 250.949674 239.540329 
L 245.260635 239.540329 
z
" clip-path="url(#pe2e3347ae9)" style="fill: #012e6b"/>
   </g>
   <g id="patch_25">
    <path d="M 252.371934 240.584898 
L 258.060974 240.584898 
L 258.060974 239.279187 
L 252.371934 239.279187 
z
" clip-path="url(#pe2e3347ae9)" style="fill: #012e6b"/>
   </g>
   <g id="patch_26">
    <path d="M 259.483234 240.584898 
L 265.172274 240.584898 
L 265.172274 238.756903 
L 259.483234 238.756903 
z
" clip-path="url(#pe2e3347ae9)" style="fill: #012e6b"/>
   </g>
   <g id="patch_27">
    <path d="M 266.594534 240.584898 
L 272.283574 240.584898 
L 272.283574 235.623197 
L 266.594534 235.623197 
z
" clip-path="url(#pe2e3347ae9)" style="fill: #012e6b"/>
   </g>
   <g id="patch_28">
    <path d="M 283.661654 240.584898 
L 289.350694 240.584898 
L 289.350694 240.323756 
L 283.661654 240.323756 
z
" clip-path="url(#pe2e3347ae9)" style="fill: #012e6b"/>
   </g>
   <g id="patch_29">
    <path d="M 290.772954 240.584898 
L 296.461994 240.584898 
L 296.461994 240.062614 
L 290.772954 240.062614 
z
" clip-path="url(#pe2e3347ae9)" style="fill: #012e6b"/>
   </g>
   <g id="patch_30">
    <path d="M 297.884254 240.584898 
L 303.573294 240.584898 
L 303.573294 240.062614 
L 297.884254 240.062614 
z
" clip-path="url(#pe2e3347ae9)" style="fill: #012e6b"/>
   </g>
   <g id="patch_31">
    <path d="M 304.995554 240.584898 
L 310.684594 240.584898 
L 310.684594 240.062614 
L 304.995554 240.062614 
z
" clip-path="url(#pe2e3347ae9)" style="fill: #012e6b"/>
   </g>
   <g id="patch_32">
    <path d="M 312.106854 240.584898 
L 317.795894 240.584898 
L 317.795894 239.540329 
L 312.106854 239.540329 
z
" clip-path="url(#pe2e3347ae9)" style="fill: #012e6b"/>
   </g>
   <g id="patch_33">
    <path d="M 319.218154 240.584898 
L 324.907194 240.584898 
L 324.907194 238.756903 
L 319.218154 238.756903 
z
" clip-path="url(#pe2e3347ae9)" style="fill: #012e6b"/>
   </g>
   <g id="patch_34">
    <path d="M 326.329454 240.584898 
L 332.018494 240.584898 
L 332.018494 238.495761 
L 326.329454 238.495761 
z
" clip-path="url(#pe2e3347ae9)" style="fill: #012e6b"/>
   </g>
   <g id="patch_35">
    <path d="M 333.440754 240.584898 
L 339.129793 240.584898 
L 339.129793 235.100913 
L 333.440754 235.100913 
z
" clip-path="url(#pe2e3347ae9)" style="fill: #012e6b"/>
   </g>
   <g id="patch_36">
    <path d="M 340.552053 240.584898 
L 346.241093 240.584898 
L 346.241093 230.139212 
L 340.552053 230.139212 
z
" clip-path="url(#pe2e3347ae9)" style="fill: #012e6b"/>
   </g>
   <g id="patch_37">
    <path d="M 347.663353 240.584898 
L 353.352393 240.584898 
L 353.352393 202.719288 
L 347.663353 202.719288 
z
" clip-path="url(#pe2e3347ae9)" style="fill: #012e6b"/>
   </g>
   <g id="patch_38">
    <path d="M 354.774653 240.584898 
L 360.463693 240.584898 
L 360.463693 33.499184 
L 354.774653 33.499184 
z
" clip-path="url(#pe2e3347ae9)" style="fill: #012e6b"/>
   </g>
   <g id="matplotlib.axis_1">
    <g id="xtick_1">
     <g id="line2d_1">
      <defs>
       <path id="m85ed7e6f60" d="M 0 0 
L 0 3.5 
" style="stroke: #000000; stroke-width: 0.8"/>
      </defs>
      <g>
       <use xlink:href="#m85ed7e6f60" x="58.944577" y="240.584898" style="stroke: #000000; stroke-width: 0.8"/>
      </g>
     </g>
     <g id="text_1">
      <!-- 1 -->
      <g transform="translate(56.599264 254.784898)scale(0.1 -0.1)">
       <defs>
        <path id="STSongti-SC-Black-31" d="M 2464 365 
Q 2298 371 2045 377 
Q 1792 384 1523 384 
Q 1254 384 1001 377 
Q 749 371 582 365 
L 582 550 
L 979 608 
Q 1203 659 1203 858 
L 1203 3840 
L 442 3347 
L 333 3546 
Q 442 3616 608 3718 
Q 774 3821 960 3942 
Q 1146 4064 1331 4192 
Q 1517 4320 1670 4448 
L 1882 4448 
L 1882 858 
Q 1882 634 2106 602 
L 2464 550 
L 2464 365 
z
" transform="scale(0.015625)"/>
       </defs>
       <use xlink:href="#STSongti-SC-Black-31"/>
      </g>
     </g>
    </g>
    <g id="xtick_2">
     <g id="line2d_2">
      <g>
       <use xlink:href="#m85ed7e6f60" x="83.122996" y="240.584898" style="stroke: #000000; stroke-width: 0.8"/>
      </g>
     </g>
     <g id="text_2">
      <!-- 2 -->
      <g transform="translate(80.777684 254.784898)scale(0.1 -0.1)">
       <defs>
        <path id="STSongti-SC-Black-32" d="M 2726 365 
Q 2496 371 2227 377 
Q 1958 384 1542 384 
Q 1120 384 777 381 
Q 435 378 211 365 
Q 230 518 262 659 
Q 294 800 377 957 
Q 461 1114 605 1299 
Q 749 1485 992 1734 
L 1229 1978 
Q 1478 2227 1625 2412 
Q 1773 2598 1849 2748 
Q 1926 2899 1945 3033 
Q 1965 3168 1965 3322 
Q 1965 3622 1779 3801 
Q 1594 3981 1280 3981 
Q 954 3981 746 3769 
Q 538 3558 461 3162 
L 262 3238 
Q 352 3827 694 4137 
Q 1037 4448 1549 4448 
Q 1779 4448 1984 4384 
Q 2189 4320 2342 4195 
Q 2496 4070 2589 3888 
Q 2682 3706 2682 3469 
Q 2682 3219 2592 3008 
Q 2502 2797 2348 2608 
Q 2195 2419 1993 2246 
Q 1792 2074 1574 1907 
L 1382 1754 
Q 1216 1619 1030 1427 
Q 845 1235 685 979 
L 2074 979 
Q 2234 979 2317 1011 
Q 2400 1043 2448 1116 
Q 2496 1190 2531 1302 
Q 2566 1414 2624 1568 
L 2822 1568 
L 2726 365 
z
" transform="scale(0.015625)"/>
       </defs>
       <use xlink:href="#STSongti-SC-Black-32"/>
      </g>
     </g>
    </g>
    <g id="xtick_3">
     <g id="line2d_3">
      <g>
       <use xlink:href="#m85ed7e6f60" x="121.524016" y="240.584898" style="stroke: #000000; stroke-width: 0.8"/>
      </g>
     </g>
     <g id="text_3">
      <!-- 3 -->
      <g transform="translate(119.178704 254.784898)scale(0.1 -0.1)">
       <defs>
        <path id="STSongti-SC-Black-33" d="M 576 3430 
L 474 3526 
Q 550 3731 646 3900 
Q 742 4070 876 4192 
Q 1011 4314 1193 4381 
Q 1376 4448 1619 4448 
Q 1779 4448 1939 4409 
Q 2099 4371 2224 4288 
Q 2349 4205 2425 4083 
Q 2502 3962 2502 3789 
Q 2502 3539 2281 3289 
Q 2061 3040 1683 2822 
Q 1939 2842 2153 2771 
Q 2368 2701 2518 2560 
Q 2669 2419 2752 2214 
Q 2835 2010 2835 1760 
Q 2835 1446 2707 1174 
Q 2579 902 2355 704 
Q 2131 506 1833 394 
Q 1536 282 1203 282 
Q 762 282 518 403 
Q 275 525 275 717 
Q 275 787 323 854 
Q 371 922 457 950 
Q 544 979 653 950 
Q 762 922 890 800 
Q 986 704 1053 640 
Q 1120 576 1174 541 
Q 1229 506 1277 490 
Q 1325 474 1389 474 
Q 1581 474 1725 570 
Q 1869 666 1965 826 
Q 2061 986 2105 1184 
Q 2150 1382 2150 1587 
Q 2150 1997 1955 2198 
Q 1760 2400 1498 2400 
Q 1331 2400 1206 2345 
Q 1082 2291 954 2182 
L 845 2330 
Q 909 2387 979 2444 
Q 1050 2502 1126 2560 
Q 1478 2822 1676 3030 
Q 1875 3238 1875 3437 
Q 1875 3686 1731 3824 
Q 1587 3962 1306 3962 
Q 1101 3962 902 3843 
Q 704 3725 576 3430 
z
" transform="scale(0.015625)"/>
       </defs>
       <use xlink:href="#STSongti-SC-Black-33"/>
      </g>
     </g>
    </g>
    <g id="xtick_4">
     <g id="line2d_4">
      <g>
       <use xlink:href="#m85ed7e6f60" x="177.703285" y="240.584898" style="stroke: #000000; stroke-width: 0.8"/>
      </g>
     </g>
     <g id="text_4">
      <!-- 4 -->
      <g transform="translate(175.357973 254.784898)scale(0.1 -0.1)">
       <defs>
        <path id="STSongti-SC-Black-34" d="M 2086 4448 
L 2387 4448 
L 2387 1843 
L 2918 1843 
L 2918 1434 
L 2387 1434 
L 2387 282 
L 1670 282 
L 1670 1434 
L 122 1434 
L 122 1760 
L 966 2912 
Q 1254 3296 1529 3680 
Q 1805 4064 2086 4448 
z
M 1670 1843 
L 1670 3469 
Q 1453 3168 1289 2944 
Q 1126 2720 992 2537 
Q 858 2355 739 2188 
Q 621 2022 493 1843 
L 1670 1843 
z
" transform="scale(0.015625)"/>
       </defs>
       <use xlink:href="#STSongti-SC-Black-34"/>
      </g>
     </g>
    </g>
    <g id="xtick_5">
     <g id="line2d_5">
      <g>
       <use xlink:href="#m85ed7e6f60" x="244.549505" y="240.584898" style="stroke: #000000; stroke-width: 0.8"/>
      </g>
     </g>
     <g id="text_5">
      <!-- 5 -->
      <g transform="translate(242.204192 254.784898)scale(0.1 -0.1)">
       <defs>
        <path id="STSongti-SC-Black-35" d="M 2490 3763 
L 1536 3763 
Q 1286 3763 1094 3760 
Q 902 3757 877 3744 
L 819 2880 
Q 960 2950 1145 2982 
Q 1331 3014 1478 3014 
Q 1805 3014 2051 2908 
Q 2298 2803 2464 2627 
Q 2630 2451 2713 2220 
Q 2797 1990 2797 1741 
Q 2797 1414 2662 1145 
Q 2528 877 2310 685 
Q 2093 493 1817 387 
Q 1542 282 1254 282 
Q 1107 282 934 310 
Q 762 339 611 393 
Q 461 448 361 528 
Q 262 608 262 717 
Q 262 794 313 854 
Q 365 915 435 950 
Q 506 986 582 986 
Q 659 986 710 941 
Q 864 813 963 723 
Q 1062 634 1139 576 
Q 1216 518 1286 492 
Q 1357 467 1453 467 
Q 1632 467 1766 550 
Q 1901 634 1993 778 
Q 2086 922 2134 1114 
Q 2182 1306 2182 1523 
Q 2182 1728 2118 1897 
Q 2054 2067 1939 2192 
Q 1824 2317 1667 2387 
Q 1510 2458 1318 2458 
Q 1101 2458 957 2410 
Q 813 2362 723 2272 
L 614 2272 
L 736 4384 
L 1542 4384 
Q 1792 4384 1952 4384 
Q 2112 4384 2205 4400 
Q 2298 4416 2336 4451 
Q 2374 4486 2387 4557 
L 2547 4557 
L 2490 3763 
z
" transform="scale(0.015625)"/>
       </defs>
       <use xlink:href="#STSongti-SC-Black-35"/>
      </g>
     </g>
    </g>
    <g id="xtick_6">
     <g id="line2d_6">
      <g>
       <use xlink:href="#m85ed7e6f60" x="322.062674" y="240.584898" style="stroke: #000000; stroke-width: 0.8"/>
      </g>
     </g>
     <g id="text_6">
      <!-- 6 -->
      <g transform="translate(319.717361 254.784898)scale(0.1 -0.1)">
       <defs>
        <path id="STSongti-SC-Black-36" d="M 2458 4467 
L 2509 4346 
Q 2138 4141 1846 3926 
Q 1555 3712 1356 3430 
Q 1158 3149 1056 2761 
Q 954 2374 954 1824 
Q 954 1645 973 1414 
Q 992 1184 1053 976 
Q 1114 768 1235 627 
Q 1357 486 1562 486 
Q 1824 486 1987 739 
Q 2150 992 2150 1562 
Q 2150 2042 1996 2282 
Q 1843 2522 1555 2522 
Q 1434 2522 1318 2470 
L 1267 2637 
Q 1370 2682 1482 2704 
Q 1594 2726 1747 2726 
Q 2278 2726 2560 2425 
Q 2842 2125 2842 1626 
Q 2842 1318 2736 1072 
Q 2630 826 2451 650 
Q 2272 474 2035 378 
Q 1798 282 1530 282 
Q 1190 282 944 403 
Q 698 525 534 739 
Q 371 954 294 1242 
Q 218 1530 218 1862 
Q 218 2426 394 2864 
Q 570 3302 874 3622 
Q 1178 3942 1587 4150 
Q 1997 4358 2458 4467 
z
" transform="scale(0.015625)"/>
       </defs>
       <use xlink:href="#STSongti-SC-Black-36"/>
      </g>
     </g>
    </g>
    <g id="text_7">
     <!-- j -->
     <g transform="translate(206.918047 267.97521)scale(0.11 -0.11)">
      <defs>
       <path id="STSongti-SC-Black-6a" d="M -147 -819 
Q -6 -730 96 -630 
Q 198 -531 265 -396 
Q 333 -262 368 -83 
Q 403 96 403 346 
L 403 1958 
Q 403 2118 332 2220 
Q 262 2323 6 2349 
L 6 2522 
Q 122 2554 262 2598 
Q 403 2643 540 2697 
Q 678 2752 793 2813 
Q 909 2874 979 2938 
L 1139 2938 
L 1139 378 
Q 1139 90 1030 -128 
Q 922 -346 749 -506 
Q 576 -666 358 -774 
Q 141 -883 -77 -960 
L -147 -819 
z
M 794 4320 
Q 960 4320 1078 4195 
Q 1197 4070 1197 3904 
Q 1197 3757 1078 3635 
Q 960 3514 787 3514 
Q 621 3514 509 3626 
Q 397 3738 397 3904 
Q 397 4070 512 4195 
Q 627 4320 794 4320 
z
" transform="scale(0.015625)"/>
      </defs>
      <use xlink:href="#STSongti-SC-Black-6a"/>
     </g>
    </g>
   </g>
   <g id="matplotlib.axis_2">
    <g id="ytick_1">
     <g id="line2d_7">
      <defs>
       <path id="m34b786c6b4" d="M 0 0 
L -3.5 0 
" style="stroke: #000000; stroke-width: 0.8"/>
      </defs>
      <g>
       <use xlink:href="#m34b786c6b4" x="40.881875" y="240.584898" style="stroke: #000000; stroke-width: 0.8"/>
      </g>
     </g>
     <g id="text_8">
      <!-- 0.0 -->
      <g transform="translate(22.31 244.184898)scale(0.1 -0.1)">
       <defs>
        <path id="STSongti-SC-Black-30" d="M 1517 4448 
Q 1792 4448 2045 4285 
Q 2298 4122 2486 3840 
Q 2675 3558 2787 3177 
Q 2899 2797 2899 2362 
Q 2899 1933 2790 1555 
Q 2682 1178 2493 893 
Q 2304 608 2054 445 
Q 1805 282 1523 282 
Q 1248 282 995 442 
Q 742 602 550 880 
Q 358 1158 246 1539 
Q 134 1920 134 2355 
Q 134 2797 246 3181 
Q 358 3565 547 3846 
Q 736 4128 985 4288 
Q 1235 4448 1517 4448 
z
M 1517 518 
Q 1869 518 1997 966 
Q 2125 1414 2125 2362 
Q 2125 3309 1993 3760 
Q 1862 4211 1517 4211 
Q 1171 4211 1040 3763 
Q 909 3315 909 2362 
Q 909 518 1517 518 
z
" transform="scale(0.015625)"/>
        <path id="STSongti-SC-Black-2e" d="M 704 294 
Q 538 294 422 409 
Q 307 525 307 691 
Q 307 858 422 973 
Q 538 1088 704 1088 
Q 870 1088 985 973 
Q 1101 858 1101 691 
Q 1101 525 985 409 
Q 870 294 704 294 
z
" transform="scale(0.015625)"/>
       </defs>
       <use xlink:href="#STSongti-SC-Black-30"/>
       <use xlink:href="#STSongti-SC-Black-2e" x="46.899994"/>
       <use xlink:href="#STSongti-SC-Black-30" x="68.799988"/>
      </g>
     </g>
    </g>
    <g id="ytick_2">
     <g id="line2d_8">
      <g>
       <use xlink:href="#m34b786c6b4" x="40.881875" y="209.952925" style="stroke: #000000; stroke-width: 0.8"/>
      </g>
     </g>
     <g id="text_9">
      <!-- 0.1 -->
      <g transform="translate(22.31 213.552925)scale(0.1 -0.1)">
       <use xlink:href="#STSongti-SC-Black-30"/>
       <use xlink:href="#STSongti-SC-Black-2e" x="46.899994"/>
       <use xlink:href="#STSongti-SC-Black-31" x="68.799988"/>
      </g>
     </g>
    </g>
    <g id="ytick_3">
     <g id="line2d_9">
      <g>
       <use xlink:href="#m34b786c6b4" x="40.881875" y="179.320953" style="stroke: #000000; stroke-width: 0.8"/>
      </g>
     </g>
     <g id="text_10">
      <!-- 0.2 -->
      <g transform="translate(22.31 182.920953)scale(0.1 -0.1)">
       <use xlink:href="#STSongti-SC-Black-30"/>
       <use xlink:href="#STSongti-SC-Black-2e" x="46.899994"/>
       <use xlink:href="#STSongti-SC-Black-32" x="68.799988"/>
      </g>
     </g>
    </g>
    <g id="ytick_4">
     <g id="line2d_10">
      <g>
       <use xlink:href="#m34b786c6b4" x="40.881875" y="148.68898" style="stroke: #000000; stroke-width: 0.8"/>
      </g>
     </g>
     <g id="text_11">
      <!-- 0.3 -->
      <g transform="translate(22.31 152.28898)scale(0.1 -0.1)">
       <use xlink:href="#STSongti-SC-Black-30"/>
       <use xlink:href="#STSongti-SC-Black-2e" x="46.899994"/>
       <use xlink:href="#STSongti-SC-Black-33" x="68.799988"/>
      </g>
     </g>
    </g>
    <g id="ytick_5">
     <g id="line2d_11">
      <g>
       <use xlink:href="#m34b786c6b4" x="40.881875" y="118.057007" style="stroke: #000000; stroke-width: 0.8"/>
      </g>
     </g>
     <g id="text_12">
      <!-- 0.4 -->
      <g transform="translate(22.31 121.657007)scale(0.1 -0.1)">
       <use xlink:href="#STSongti-SC-Black-30"/>
       <use xlink:href="#STSongti-SC-Black-2e" x="46.899994"/>
       <use xlink:href="#STSongti-SC-Black-34" x="68.799988"/>
      </g>
     </g>
    </g>
    <g id="ytick_6">
     <g id="line2d_12">
      <g>
       <use xlink:href="#m34b786c6b4" x="40.881875" y="87.425035" style="stroke: #000000; stroke-width: 0.8"/>
      </g>
     </g>
     <g id="text_13">
      <!-- 0.5 -->
      <g transform="translate(22.31 91.025035)scale(0.1 -0.1)">
       <use xlink:href="#STSongti-SC-Black-30"/>
       <use xlink:href="#STSongti-SC-Black-2e" x="46.899994"/>
       <use xlink:href="#STSongti-SC-Black-35" x="68.799988"/>
      </g>
     </g>
    </g>
    <g id="ytick_7">
     <g id="line2d_13">
      <g>
       <use xlink:href="#m34b786c6b4" x="40.881875" y="56.793062" style="stroke: #000000; stroke-width: 0.8"/>
      </g>
     </g>
     <g id="text_14">
      <!-- 0.6 -->
      <g transform="translate(22.31 60.393062)scale(0.1 -0.1)">
       <use xlink:href="#STSongti-SC-Black-30"/>
       <use xlink:href="#STSongti-SC-Black-2e" x="46.899994"/>
       <use xlink:href="#STSongti-SC-Black-36" x="68.799988"/>
      </g>
     </g>
    </g>
    <g id="ytick_8">
     <g id="line2d_14">
      <g>
       <use xlink:href="#m34b786c6b4" x="40.881875" y="26.16109" style="stroke: #000000; stroke-width: 0.8"/>
      </g>
     </g>
     <g id="text_15">
      <!-- 0.7 -->
      <g transform="translate(22.31 29.76109)scale(0.1 -0.1)">
       <defs>
        <path id="STSongti-SC-Black-37" d="M 358 4384 
L 2822 4384 
L 2822 4275 
Q 2714 4083 2522 3596 
Q 2330 3110 2042 2310 
Q 1485 736 1427 384 
L 1043 384 
Q 1120 717 1222 1065 
Q 1325 1414 1462 1817 
Q 1600 2221 1779 2691 
Q 1958 3162 2189 3731 
L 634 3731 
Q 467 3731 461 3648 
L 410 3379 
L 269 3379 
L 358 4384 
z
" transform="scale(0.015625)"/>
       </defs>
       <use xlink:href="#STSongti-SC-Black-30"/>
       <use xlink:href="#STSongti-SC-Black-2e" x="46.899994"/>
       <use xlink:href="#STSongti-SC-Black-37" x="68.799988"/>
      </g>
     </g>
    </g>
    <g id="text_16">
     <!-- $P_{Path_l}$ -->
     <g transform="translate(15.23 144.844898)rotate(-90)scale(0.11 -0.11)">
      <defs>
       <path id="DejaVuSans-Oblique-50" d="M 1081 4666 
L 2541 4666 
Q 3178 4666 3512 4369 
Q 3847 4072 3847 3500 
Q 3847 2731 3353 2303 
Q 2859 1875 1966 1875 
L 1172 1875 
L 806 0 
L 172 0 
L 1081 4666 
z
M 1613 4147 
L 1275 2394 
L 2069 2394 
Q 2606 2394 2893 2669 
Q 3181 2944 3181 3456 
Q 3181 3784 2986 3965 
Q 2791 4147 2438 4147 
L 1613 4147 
z
" transform="scale(0.015625)"/>
       <path id="DejaVuSans-Oblique-61" d="M 3438 1997 
L 3047 0 
L 2472 0 
L 2578 531 
Q 2325 219 2001 64 
Q 1678 -91 1281 -91 
Q 834 -91 548 182 
Q 263 456 263 884 
Q 263 1497 752 1853 
Q 1241 2209 2100 2209 
L 2900 2209 
L 2931 2363 
Q 2938 2388 2941 2417 
Q 2944 2447 2944 2509 
Q 2944 2788 2717 2942 
Q 2491 3097 2081 3097 
Q 1800 3097 1504 3025 
Q 1209 2953 897 2809 
L 997 3341 
Q 1322 3463 1633 3523 
Q 1944 3584 2234 3584 
Q 2853 3584 3176 3315 
Q 3500 3047 3500 2534 
Q 3500 2431 3484 2292 
Q 3469 2153 3438 1997 
z
M 2816 1759 
L 2241 1759 
Q 1534 1759 1195 1570 
Q 856 1381 856 984 
Q 856 709 1029 553 
Q 1203 397 1509 397 
Q 1978 397 2328 733 
Q 2678 1069 2791 1631 
L 2816 1759 
z
" transform="scale(0.015625)"/>
       <path id="DejaVuSans-Oblique-74" d="M 2706 3500 
L 2619 3053 
L 1472 3053 
L 1100 1153 
Q 1081 1047 1072 975 
Q 1063 903 1063 863 
Q 1063 663 1183 572 
Q 1303 481 1569 481 
L 2150 481 
L 2053 0 
L 1503 0 
Q 991 0 739 200 
Q 488 400 488 806 
Q 488 878 497 964 
Q 506 1050 525 1153 
L 897 3053 
L 409 3053 
L 500 3500 
L 978 3500 
L 1172 4494 
L 1747 4494 
L 1556 3500 
L 2706 3500 
z
" transform="scale(0.015625)"/>
       <path id="DejaVuSans-Oblique-68" d="M 3566 2113 
L 3156 0 
L 2578 0 
L 2988 2091 
Q 3016 2238 3031 2350 
Q 3047 2463 3047 2528 
Q 3047 2791 2881 2937 
Q 2716 3084 2419 3084 
Q 1956 3084 1617 2771 
Q 1278 2459 1178 1941 
L 800 0 
L 225 0 
L 1172 4863 
L 1747 4863 
L 1375 2950 
Q 1594 3244 1934 3414 
Q 2275 3584 2650 3584 
Q 3113 3584 3367 3334 
Q 3622 3084 3622 2631 
Q 3622 2519 3608 2391 
Q 3594 2263 3566 2113 
z
" transform="scale(0.015625)"/>
       <path id="DejaVuSans-Oblique-6c" d="M 1172 4863 
L 1747 4863 
L 800 0 
L 225 0 
L 1172 4863 
z
" transform="scale(0.015625)"/>
      </defs>
      <use xlink:href="#DejaVuSans-Oblique-50" transform="translate(0 0.09375)"/>
      <use xlink:href="#DejaVuSans-Oblique-50" transform="translate(60.302734 -16.3125)scale(0.7)"/>
      <use xlink:href="#DejaVuSans-Oblique-61" transform="translate(102.514648 -16.3125)scale(0.7)"/>
      <use xlink:href="#DejaVuSans-Oblique-74" transform="translate(145.410156 -16.3125)scale(0.7)"/>
      <use xlink:href="#DejaVuSans-Oblique-68" transform="translate(172.856445 -16.3125)scale(0.7)"/>
      <use xlink:href="#DejaVuSans-Oblique-6c" transform="translate(217.22168 -27.796875)scale(0.49)"/>
     </g>
    </g>
   </g>
   <g id="patch_39">
    <path d="M 40.881875 240.584898 
L 40.881875 23.144898 
" style="fill: none; stroke: #000000; stroke-width: 0.8; stroke-linejoin: miter; stroke-linecap: square"/>
   </g>
   <g id="patch_40">
    <path d="M 40.881875 240.584898 
L 375.681875 240.584898 
" style="fill: none; stroke: #000000; stroke-width: 0.8; stroke-linejoin: miter; stroke-linecap: square"/>
   </g>
   <g id="text_17">
    <!-- 0.009 -->
    <g transform="translate(47.420358 231.847082)scale(0.11 -0.11)">
     <defs>
      <path id="STSongti-SC-Black-39" d="M 1658 2022 
Q 1485 1939 1299 1939 
Q 1069 1939 864 2009 
Q 659 2080 505 2221 
Q 352 2362 265 2579 
Q 179 2797 179 3091 
Q 179 3386 281 3635 
Q 384 3885 560 4067 
Q 736 4250 969 4349 
Q 1203 4448 1466 4448 
Q 1747 4448 1984 4339 
Q 2221 4230 2390 4022 
Q 2560 3814 2656 3520 
Q 2752 3226 2752 2861 
Q 2752 2374 2582 1932 
Q 2413 1491 2118 1142 
Q 1824 794 1417 560 
Q 1011 326 544 262 
L 518 403 
Q 915 506 1187 742 
Q 1459 979 1628 1308 
Q 1798 1638 1872 2051 
Q 1946 2464 1946 2918 
Q 1946 3194 1930 3446 
Q 1914 3699 1866 3891 
Q 1818 4083 1722 4195 
Q 1626 4307 1466 4307 
Q 1318 4307 1219 4204 
Q 1120 4102 1059 3939 
Q 998 3776 972 3571 
Q 947 3366 947 3162 
Q 947 2989 982 2806 
Q 1018 2624 1088 2477 
Q 1158 2330 1260 2234 
Q 1363 2138 1498 2138 
Q 1587 2138 1638 2157 
L 1658 2022 
z
" transform="scale(0.015625)"/>
     </defs>
     <use xlink:href="#STSongti-SC-Black-30"/>
     <use xlink:href="#STSongti-SC-Black-2e" x="46.899994"/>
     <use xlink:href="#STSongti-SC-Black-30" x="68.799988"/>
     <use xlink:href="#STSongti-SC-Black-30" x="115.699982"/>
     <use xlink:href="#STSongti-SC-Black-39" x="162.599976"/>
    </g>
   </g>
   <g id="text_18">
    <!-- 0.007 -->
    <g transform="translate(78.710078 232.369366)scale(0.11 -0.11)">
     <use xlink:href="#STSongti-SC-Black-30"/>
     <use xlink:href="#STSongti-SC-Black-2e" x="46.899994"/>
     <use xlink:href="#STSongti-SC-Black-30" x="68.799988"/>
     <use xlink:href="#STSongti-SC-Black-30" x="115.699982"/>
     <use xlink:href="#STSongti-SC-Black-37" x="162.599976"/>
    </g>
   </g>
   <g id="text_19">
    <!-- 0.017 -->
    <g transform="translate(124.222397 229.235661)scale(0.11 -0.11)">
     <use xlink:href="#STSongti-SC-Black-30"/>
     <use xlink:href="#STSongti-SC-Black-2e" x="46.899994"/>
     <use xlink:href="#STSongti-SC-Black-30" x="68.799988"/>
     <use xlink:href="#STSongti-SC-Black-31" x="115.699982"/>
     <use xlink:href="#STSongti-SC-Black-37" x="162.599976"/>
    </g>
   </g>
   <g id="text_20">
    <!-- 0.009 -->
    <g transform="translate(191.068616 231.847082)scale(0.11 -0.11)">
     <use xlink:href="#STSongti-SC-Black-30"/>
     <use xlink:href="#STSongti-SC-Black-2e" x="46.899994"/>
     <use xlink:href="#STSongti-SC-Black-30" x="68.799988"/>
     <use xlink:href="#STSongti-SC-Black-30" x="115.699982"/>
     <use xlink:href="#STSongti-SC-Black-39" x="162.599976"/>
    </g>
   </g>
   <g id="text_21">
    <!-- 0.016 -->
    <g transform="translate(257.914836 229.496803)scale(0.11 -0.11)">
     <use xlink:href="#STSongti-SC-Black-30"/>
     <use xlink:href="#STSongti-SC-Black-2e" x="46.899994"/>
     <use xlink:href="#STSongti-SC-Black-30" x="68.799988"/>
     <use xlink:href="#STSongti-SC-Black-31" x="115.699982"/>
     <use xlink:href="#STSongti-SC-Black-36" x="162.599976"/>
    </g>
   </g>
   <g id="text_22">
    <!-- 0.676 -->
    <g transform="translate(346.094954 27.372789)scale(0.11 -0.11)">
     <use xlink:href="#STSongti-SC-Black-30"/>
     <use xlink:href="#STSongti-SC-Black-2e" x="46.899994"/>
     <use xlink:href="#STSongti-SC-Black-36" x="68.799988"/>
     <use xlink:href="#STSongti-SC-Black-37" x="115.699982"/>
     <use xlink:href="#STSongti-SC-Black-36" x="162.599976"/>
    </g>
   </g>
   <g id="text_23">
    <!-- 1 -->
    <g transform="translate(56.364733 15.12)scale(0.11 -0.11)">
     <use xlink:href="#STSongti-SC-Black-31"/>
    </g>
   </g>
   <g id="text_24">
    <!-- 3 -->
    <g transform="translate(80.543153 15.12)scale(0.11 -0.11)">
     <use xlink:href="#STSongti-SC-Black-33"/>
    </g>
   </g>
   <g id="text_25">
    <!-- 5 -->
    <g transform="translate(118.944172 15.12)scale(0.11 -0.11)">
     <use xlink:href="#STSongti-SC-Black-35"/>
    </g>
   </g>
   <g id="text_26">
    <!-- 13 -->
    <g transform="translate(172.543598 15.12)scale(0.11 -0.11)">
     <use xlink:href="#STSongti-SC-Black-31"/>
     <use xlink:href="#STSongti-SC-Black-33" x="46.899994"/>
    </g>
   </g>
   <g id="text_27">
    <!-- 14 -->
    <g transform="translate(239.389817 15.12)scale(0.11 -0.11)">
     <use xlink:href="#STSongti-SC-Black-31"/>
     <use xlink:href="#STSongti-SC-Black-34" x="46.899994"/>
    </g>
   </g>
   <g id="text_28">
    <!-- 20 -->
    <g transform="translate(316.902986 15.12)scale(0.11 -0.11)">
     <use xlink:href="#STSongti-SC-Black-32"/>
     <use xlink:href="#STSongti-SC-Black-30" x="46.899994"/>
    </g>
   </g>
  </g>
 </g>
 <defs>
  <clipPath id="pe2e3347ae9">
   <rect x="40.881875" y="23.144898" width="334.8" height="217.44"/>
  </clipPath>
 </defs>
</svg>
