<?xml version="1.0" encoding="utf-8" standalone="no"?>
<!DOCTYPE svg PUBLIC "-//W3C//DTD SVG 1.1//EN"
  "http://www.w3.org/Graphics/SVG/1.1/DTD/svg11.dtd">
<svg xmlns:xlink="http://www.w3.org/1999/xlink" width="383.211875pt" height="263.686077pt" viewBox="0 0 383.211875 263.686077" xmlns="http://www.w3.org/2000/svg" version="1.1">
 <metadata>
  <rdf:RDF xmlns:dc="http://purl.org/dc/elements/1.1/" xmlns:cc="http://creativecommons.org/ns#" xmlns:rdf="http://www.w3.org/1999/02/22-rdf-syntax-ns#">
   <cc:Work>
    <dc:type rdf:resource="http://purl.org/dc/dcmitype/StillImage"/>
    <dc:date>2022-01-19T17:29:19.954698</dc:date>
    <dc:format>image/svg+xml</dc:format>
    <dc:creator>
     <cc:Agent>
      <dc:title>Matplotlib v3.5.1, https://matplotlib.org/</dc:title>
     </cc:Agent>
    </dc:creator>
   </cc:Work>
  </rdf:RDF>
 </metadata>
 <defs>
  <style type="text/css">*{stroke-linejoin: round; stroke-linecap: butt}</style>
 </defs>
 <g id="figure_1">
  <g id="patch_1">
   <path d="M 0 263.686077 
L 383.211875 263.686077 
L 383.211875 0 
L 0 0 
L 0 263.686077 
z
" style="fill: none"/>
  </g>
  <g id="axes_1">
   <g id="patch_2">
    <path d="M 41.211875 226.225452 
L 376.011875 226.225452 
L 376.011875 8.785452 
L 41.211875 8.785452 
z
" style="fill: #ffffff"/>
   </g>
   <g id="patch_3">
    <path d="M 56.430057 226.225452 
L 84.099478 226.225452 
L 84.099478 224.205103 
L 56.430057 224.205103 
z
" clip-path="url(#p35044d3205)" style="fill: #012e6b"/>
   </g>
   <g id="patch_4">
    <path d="M 111.7689 226.225452 
L 139.438321 226.225452 
L 139.438321 223.396964 
L 111.7689 223.396964 
z
" clip-path="url(#p35044d3205)" style="fill: #012e6b"/>
   </g>
   <g id="patch_5">
    <path d="M 167.107743 226.225452 
L 194.777164 226.225452 
L 194.777164 216.931849 
L 167.107743 216.931849 
z
" clip-path="url(#p35044d3205)" style="fill: #012e6b"/>
   </g>
   <g id="patch_6">
    <path d="M 222.446586 226.225452 
L 250.116007 226.225452 
L 250.116007 218.952197 
L 222.446586 218.952197 
z
" clip-path="url(#p35044d3205)" style="fill: #012e6b"/>
   </g>
   <g id="patch_7">
    <path d="M 277.785429 226.225452 
L 305.45485 226.225452 
L 305.45485 217.739988 
L 277.785429 217.739988 
z
" clip-path="url(#p35044d3205)" style="fill: #012e6b"/>
   </g>
   <g id="patch_8">
    <path d="M 333.124272 226.225452 
L 360.793693 226.225452 
L 360.793693 19.139737 
L 333.124272 19.139737 
z
" clip-path="url(#p35044d3205)" style="fill: #012e6b"/>
   </g>
   <g id="matplotlib.axis_1">
    <g id="xtick_1">
     <g id="line2d_1">
      <defs>
       <path id="m07306f3d77" d="M 0 0 
L 0 3.5 
" style="stroke: #000000; stroke-width: 0.8"/>
      </defs>
      <g>
       <use xlink:href="#m07306f3d77" x="70.264768" y="226.225452" style="stroke: #000000; stroke-width: 0.8"/>
      </g>
     </g>
     <g id="text_1">
      <!-- 1 -->
      <g transform="translate(67.919455 240.425452)scale(0.1 -0.1)">
       <defs>
        <path id="STSongti-SC-Black-31" d="M 2464 365 
Q 2298 371 2045 377 
Q 1792 384 1523 384 
Q 1254 384 1001 377 
Q 749 371 582 365 
L 582 550 
L 979 608 
Q 1203 659 1203 858 
L 1203 3840 
L 442 3347 
L 333 3546 
Q 442 3616 608 3718 
Q 774 3821 960 3942 
Q 1146 4064 1331 4192 
Q 1517 4320 1670 4448 
L 1882 4448 
L 1882 858 
Q 1882 634 2106 602 
L 2464 550 
L 2464 365 
z
" transform="scale(0.015625)"/>
       </defs>
       <use xlink:href="#STSongti-SC-Black-31"/>
      </g>
     </g>
    </g>
    <g id="xtick_2">
     <g id="line2d_2">
      <g>
       <use xlink:href="#m07306f3d77" x="125.603611" y="226.225452" style="stroke: #000000; stroke-width: 0.8"/>
      </g>
     </g>
     <g id="text_2">
      <!-- 2 -->
      <g transform="translate(123.258298 240.425452)scale(0.1 -0.1)">
       <defs>
        <path id="STSongti-SC-Black-32" d="M 2726 365 
Q 2496 371 2227 377 
Q 1958 384 1542 384 
Q 1120 384 777 381 
Q 435 378 211 365 
Q 230 518 262 659 
Q 294 800 377 957 
Q 461 1114 605 1299 
Q 749 1485 992 1734 
L 1229 1978 
Q 1478 2227 1625 2412 
Q 1773 2598 1849 2748 
Q 1926 2899 1945 3033 
Q 1965 3168 1965 3322 
Q 1965 3622 1779 3801 
Q 1594 3981 1280 3981 
Q 954 3981 746 3769 
Q 538 3558 461 3162 
L 262 3238 
Q 352 3827 694 4137 
Q 1037 4448 1549 4448 
Q 1779 4448 1984 4384 
Q 2189 4320 2342 4195 
Q 2496 4070 2589 3888 
Q 2682 3706 2682 3469 
Q 2682 3219 2592 3008 
Q 2502 2797 2348 2608 
Q 2195 2419 1993 2246 
Q 1792 2074 1574 1907 
L 1382 1754 
Q 1216 1619 1030 1427 
Q 845 1235 685 979 
L 2074 979 
Q 2234 979 2317 1011 
Q 2400 1043 2448 1116 
Q 2496 1190 2531 1302 
Q 2566 1414 2624 1568 
L 2822 1568 
L 2726 365 
z
" transform="scale(0.015625)"/>
       </defs>
       <use xlink:href="#STSongti-SC-Black-32"/>
      </g>
     </g>
    </g>
    <g id="xtick_3">
     <g id="line2d_3">
      <g>
       <use xlink:href="#m07306f3d77" x="180.942454" y="226.225452" style="stroke: #000000; stroke-width: 0.8"/>
      </g>
     </g>
     <g id="text_3">
      <!-- 3 -->
      <g transform="translate(178.597141 240.425452)scale(0.1 -0.1)">
       <defs>
        <path id="STSongti-SC-Black-33" d="M 576 3430 
L 474 3526 
Q 550 3731 646 3900 
Q 742 4070 876 4192 
Q 1011 4314 1193 4381 
Q 1376 4448 1619 4448 
Q 1779 4448 1939 4409 
Q 2099 4371 2224 4288 
Q 2349 4205 2425 4083 
Q 2502 3962 2502 3789 
Q 2502 3539 2281 3289 
Q 2061 3040 1683 2822 
Q 1939 2842 2153 2771 
Q 2368 2701 2518 2560 
Q 2669 2419 2752 2214 
Q 2835 2010 2835 1760 
Q 2835 1446 2707 1174 
Q 2579 902 2355 704 
Q 2131 506 1833 394 
Q 1536 282 1203 282 
Q 762 282 518 403 
Q 275 525 275 717 
Q 275 787 323 854 
Q 371 922 457 950 
Q 544 979 653 950 
Q 762 922 890 800 
Q 986 704 1053 640 
Q 1120 576 1174 541 
Q 1229 506 1277 490 
Q 1325 474 1389 474 
Q 1581 474 1725 570 
Q 1869 666 1965 826 
Q 2061 986 2105 1184 
Q 2150 1382 2150 1587 
Q 2150 1997 1955 2198 
Q 1760 2400 1498 2400 
Q 1331 2400 1206 2345 
Q 1082 2291 954 2182 
L 845 2330 
Q 909 2387 979 2444 
Q 1050 2502 1126 2560 
Q 1478 2822 1676 3030 
Q 1875 3238 1875 3437 
Q 1875 3686 1731 3824 
Q 1587 3962 1306 3962 
Q 1101 3962 902 3843 
Q 704 3725 576 3430 
z
" transform="scale(0.015625)"/>
       </defs>
       <use xlink:href="#STSongti-SC-Black-33"/>
      </g>
     </g>
    </g>
    <g id="xtick_4">
     <g id="line2d_4">
      <g>
       <use xlink:href="#m07306f3d77" x="236.281296" y="226.225452" style="stroke: #000000; stroke-width: 0.8"/>
      </g>
     </g>
     <g id="text_4">
      <!-- 4 -->
      <g transform="translate(233.935984 240.425452)scale(0.1 -0.1)">
       <defs>
        <path id="STSongti-SC-Black-34" d="M 2086 4448 
L 2387 4448 
L 2387 1843 
L 2918 1843 
L 2918 1434 
L 2387 1434 
L 2387 282 
L 1670 282 
L 1670 1434 
L 122 1434 
L 122 1760 
L 966 2912 
Q 1254 3296 1529 3680 
Q 1805 4064 2086 4448 
z
M 1670 1843 
L 1670 3469 
Q 1453 3168 1289 2944 
Q 1126 2720 992 2537 
Q 858 2355 739 2188 
Q 621 2022 493 1843 
L 1670 1843 
z
" transform="scale(0.015625)"/>
       </defs>
       <use xlink:href="#STSongti-SC-Black-34"/>
      </g>
     </g>
    </g>
    <g id="xtick_5">
     <g id="line2d_5">
      <g>
       <use xlink:href="#m07306f3d77" x="291.620139" y="226.225452" style="stroke: #000000; stroke-width: 0.8"/>
      </g>
     </g>
     <g id="text_5">
      <!-- 5 -->
      <g transform="translate(289.274827 240.425452)scale(0.1 -0.1)">
       <defs>
        <path id="STSongti-SC-Black-35" d="M 2490 3763 
L 1536 3763 
Q 1286 3763 1094 3760 
Q 902 3757 877 3744 
L 819 2880 
Q 960 2950 1145 2982 
Q 1331 3014 1478 3014 
Q 1805 3014 2051 2908 
Q 2298 2803 2464 2627 
Q 2630 2451 2713 2220 
Q 2797 1990 2797 1741 
Q 2797 1414 2662 1145 
Q 2528 877 2310 685 
Q 2093 493 1817 387 
Q 1542 282 1254 282 
Q 1107 282 934 310 
Q 762 339 611 393 
Q 461 448 361 528 
Q 262 608 262 717 
Q 262 794 313 854 
Q 365 915 435 950 
Q 506 986 582 986 
Q 659 986 710 941 
Q 864 813 963 723 
Q 1062 634 1139 576 
Q 1216 518 1286 492 
Q 1357 467 1453 467 
Q 1632 467 1766 550 
Q 1901 634 1993 778 
Q 2086 922 2134 1114 
Q 2182 1306 2182 1523 
Q 2182 1728 2118 1897 
Q 2054 2067 1939 2192 
Q 1824 2317 1667 2387 
Q 1510 2458 1318 2458 
Q 1101 2458 957 2410 
Q 813 2362 723 2272 
L 614 2272 
L 736 4384 
L 1542 4384 
Q 1792 4384 1952 4384 
Q 2112 4384 2205 4400 
Q 2298 4416 2336 4451 
Q 2374 4486 2387 4557 
L 2547 4557 
L 2490 3763 
z
" transform="scale(0.015625)"/>
       </defs>
       <use xlink:href="#STSongti-SC-Black-35"/>
      </g>
     </g>
    </g>
    <g id="xtick_6">
     <g id="line2d_6">
      <g>
       <use xlink:href="#m07306f3d77" x="346.958982" y="226.225452" style="stroke: #000000; stroke-width: 0.8"/>
      </g>
     </g>
     <g id="text_6">
      <!-- 6 -->
      <g transform="translate(344.61367 240.425452)scale(0.1 -0.1)">
       <defs>
        <path id="STSongti-SC-Black-36" d="M 2458 4467 
L 2509 4346 
Q 2138 4141 1846 3926 
Q 1555 3712 1356 3430 
Q 1158 3149 1056 2761 
Q 954 2374 954 1824 
Q 954 1645 973 1414 
Q 992 1184 1053 976 
Q 1114 768 1235 627 
Q 1357 486 1562 486 
Q 1824 486 1987 739 
Q 2150 992 2150 1562 
Q 2150 2042 1996 2282 
Q 1843 2522 1555 2522 
Q 1434 2522 1318 2470 
L 1267 2637 
Q 1370 2682 1482 2704 
Q 1594 2726 1747 2726 
Q 2278 2726 2560 2425 
Q 2842 2125 2842 1626 
Q 2842 1318 2736 1072 
Q 2630 826 2451 650 
Q 2272 474 2035 378 
Q 1798 282 1530 282 
Q 1190 282 944 403 
Q 698 525 534 739 
Q 371 954 294 1242 
Q 218 1530 218 1862 
Q 218 2426 394 2864 
Q 570 3302 874 3622 
Q 1178 3942 1587 4150 
Q 1997 4358 2458 4467 
z
" transform="scale(0.015625)"/>
       </defs>
       <use xlink:href="#STSongti-SC-Black-36"/>
      </g>
     </g>
    </g>
    <g id="text_7">
     <!-- $j$ -->
     <g transform="translate(207.071875 254.176077)scale(0.11 -0.11)">
      <defs>
       <path id="DejaVuSans-Oblique-6a" d="M 928 3500 
L 1503 3500 
L 813 -63 
L 809 -78 
Q 694 -675 544 -897 
Q 403 -1106 132 -1218 
Q -138 -1331 -506 -1331 
L -722 -1331 
L -628 -844 
L -481 -844 
Q -144 -844 -1 -703 
Q 141 -563 238 -63 
L 928 3500 
z
M 1197 4863 
L 1772 4863 
L 1631 4134 
L 1056 4134 
L 1197 4863 
z
" transform="scale(0.015625)"/>
      </defs>
      <use xlink:href="#DejaVuSans-Oblique-6a" transform="translate(0 0.015625)"/>
     </g>
    </g>
   </g>
   <g id="matplotlib.axis_2">
    <g id="ytick_1">
     <g id="line2d_7">
      <defs>
       <path id="m597031d597" d="M 0 0 
L -3.5 0 
" style="stroke: #000000; stroke-width: 0.8"/>
      </defs>
      <g>
       <use xlink:href="#m597031d597" x="41.211875" y="226.225452" style="stroke: #000000; stroke-width: 0.8"/>
      </g>
     </g>
     <g id="text_8">
      <!-- 0.0 -->
      <g transform="translate(22.64 229.825452)scale(0.1 -0.1)">
       <defs>
        <path id="STSongti-SC-Black-30" d="M 1517 4448 
Q 1792 4448 2045 4285 
Q 2298 4122 2486 3840 
Q 2675 3558 2787 3177 
Q 2899 2797 2899 2362 
Q 2899 1933 2790 1555 
Q 2682 1178 2493 893 
Q 2304 608 2054 445 
Q 1805 282 1523 282 
Q 1248 282 995 442 
Q 742 602 550 880 
Q 358 1158 246 1539 
Q 134 1920 134 2355 
Q 134 2797 246 3181 
Q 358 3565 547 3846 
Q 736 4128 985 4288 
Q 1235 4448 1517 4448 
z
M 1517 518 
Q 1869 518 1997 966 
Q 2125 1414 2125 2362 
Q 2125 3309 1993 3760 
Q 1862 4211 1517 4211 
Q 1171 4211 1040 3763 
Q 909 3315 909 2362 
Q 909 518 1517 518 
z
" transform="scale(0.015625)"/>
        <path id="STSongti-SC-Black-2e" d="M 704 294 
Q 538 294 422 409 
Q 307 525 307 691 
Q 307 858 422 973 
Q 538 1088 704 1088 
Q 870 1088 985 973 
Q 1101 858 1101 691 
Q 1101 525 985 409 
Q 870 294 704 294 
z
" transform="scale(0.015625)"/>
       </defs>
       <use xlink:href="#STSongti-SC-Black-30"/>
       <use xlink:href="#STSongti-SC-Black-2e" x="46.899994"/>
       <use xlink:href="#STSongti-SC-Black-30" x="68.799988"/>
      </g>
     </g>
    </g>
    <g id="ytick_2">
     <g id="line2d_8">
      <g>
       <use xlink:href="#m597031d597" x="41.211875" y="178.828077" style="stroke: #000000; stroke-width: 0.8"/>
      </g>
     </g>
     <g id="text_9">
      <!-- 0.2 -->
      <g transform="translate(22.64 182.428077)scale(0.1 -0.1)">
       <use xlink:href="#STSongti-SC-Black-30"/>
       <use xlink:href="#STSongti-SC-Black-2e" x="46.899994"/>
       <use xlink:href="#STSongti-SC-Black-32" x="68.799988"/>
      </g>
     </g>
    </g>
    <g id="ytick_3">
     <g id="line2d_9">
      <g>
       <use xlink:href="#m597031d597" x="41.211875" y="131.430703" style="stroke: #000000; stroke-width: 0.8"/>
      </g>
     </g>
     <g id="text_10">
      <!-- 0.4 -->
      <g transform="translate(22.64 135.030703)scale(0.1 -0.1)">
       <use xlink:href="#STSongti-SC-Black-30"/>
       <use xlink:href="#STSongti-SC-Black-2e" x="46.899994"/>
       <use xlink:href="#STSongti-SC-Black-34" x="68.799988"/>
      </g>
     </g>
    </g>
    <g id="ytick_4">
     <g id="line2d_10">
      <g>
       <use xlink:href="#m597031d597" x="41.211875" y="84.033329" style="stroke: #000000; stroke-width: 0.8"/>
      </g>
     </g>
     <g id="text_11">
      <!-- 0.6 -->
      <g transform="translate(22.64 87.633329)scale(0.1 -0.1)">
       <use xlink:href="#STSongti-SC-Black-30"/>
       <use xlink:href="#STSongti-SC-Black-2e" x="46.899994"/>
       <use xlink:href="#STSongti-SC-Black-36" x="68.799988"/>
      </g>
     </g>
    </g>
    <g id="ytick_5">
     <g id="line2d_11">
      <g>
       <use xlink:href="#m597031d597" x="41.211875" y="36.635955" style="stroke: #000000; stroke-width: 0.8"/>
      </g>
     </g>
     <g id="text_12">
      <!-- 0.8 -->
      <g transform="translate(22.64 40.235955)scale(0.1 -0.1)">
       <defs>
        <path id="STSongti-SC-Black-38" d="M 1069 2368 
Q 282 2758 282 3424 
Q 282 3622 368 3804 
Q 454 3987 617 4131 
Q 781 4275 1005 4361 
Q 1229 4448 1510 4448 
Q 1760 4448 1968 4377 
Q 2176 4307 2326 4185 
Q 2477 4064 2560 3901 
Q 2643 3738 2643 3552 
Q 2643 3366 2588 3232 
Q 2534 3098 2438 2992 
Q 2342 2886 2201 2793 
Q 2061 2701 1888 2598 
Q 2202 2445 2381 2297 
Q 2560 2150 2646 2006 
Q 2733 1862 2752 1718 
Q 2771 1574 2771 1434 
Q 2771 1190 2665 979 
Q 2560 768 2384 614 
Q 2208 461 1971 371 
Q 1734 282 1466 282 
Q 1184 282 950 362 
Q 717 442 550 576 
Q 384 710 294 892 
Q 205 1075 205 1280 
Q 205 1434 246 1584 
Q 288 1734 390 1875 
Q 493 2016 659 2137 
Q 826 2259 1069 2368 
z
M 1683 2707 
Q 1920 2854 2022 3046 
Q 2125 3238 2125 3526 
Q 2125 3827 1968 4019 
Q 1811 4211 1472 4211 
Q 1158 4211 1011 4035 
Q 864 3859 864 3597 
Q 864 3334 1046 3126 
Q 1229 2918 1683 2707 
z
M 1254 2266 
Q 1107 2176 1011 2077 
Q 915 1978 860 1866 
Q 806 1754 784 1622 
Q 762 1491 762 1331 
Q 762 941 976 710 
Q 1190 480 1517 480 
Q 2163 480 2163 1235 
Q 2163 1414 2108 1555 
Q 2054 1696 1942 1817 
Q 1830 1939 1657 2048 
Q 1485 2157 1254 2266 
z
" transform="scale(0.015625)"/>
       </defs>
       <use xlink:href="#STSongti-SC-Black-30"/>
       <use xlink:href="#STSongti-SC-Black-2e" x="46.899994"/>
       <use xlink:href="#STSongti-SC-Black-38" x="68.799988"/>
      </g>
     </g>
    </g>
    <g id="text_13">
     <!-- $P_j$ -->
     <g transform="translate(15.23 122.070452)rotate(-90)scale(0.11 -0.11)">
      <defs>
       <path id="DejaVuSans-Oblique-50" d="M 1081 4666 
L 2541 4666 
Q 3178 4666 3512 4369 
Q 3847 4072 3847 3500 
Q 3847 2731 3353 2303 
Q 2859 1875 1966 1875 
L 1172 1875 
L 806 0 
L 172 0 
L 1081 4666 
z
M 1613 4147 
L 1275 2394 
L 2069 2394 
Q 2606 2394 2893 2669 
Q 3181 2944 3181 3456 
Q 3181 3784 2986 3965 
Q 2791 4147 2438 4147 
L 1613 4147 
z
" transform="scale(0.015625)"/>
      </defs>
      <use xlink:href="#DejaVuSans-Oblique-50" transform="translate(0 0.09375)"/>
      <use xlink:href="#DejaVuSans-Oblique-6a" transform="translate(60.302734 -16.3125)scale(0.7)"/>
     </g>
    </g>
   </g>
   <g id="patch_9">
    <path d="M 41.211875 226.225452 
L 41.211875 8.785452 
" style="fill: none; stroke: #000000; stroke-width: 0.8; stroke-linejoin: miter; stroke-linecap: square"/>
   </g>
   <g id="patch_10">
    <path d="M 41.211875 226.225452 
L 376.011875 226.225452 
" style="fill: none; stroke: #000000; stroke-width: 0.8; stroke-linejoin: miter; stroke-linecap: square"/>
   </g>
   <g id="text_14">
    <!-- 0.009 -->
    <g transform="translate(59.788205 219.465366)scale(0.1 -0.1)">
     <defs>
      <path id="STSongti-SC-Black-39" d="M 1658 2022 
Q 1485 1939 1299 1939 
Q 1069 1939 864 2009 
Q 659 2080 505 2221 
Q 352 2362 265 2579 
Q 179 2797 179 3091 
Q 179 3386 281 3635 
Q 384 3885 560 4067 
Q 736 4250 969 4349 
Q 1203 4448 1466 4448 
Q 1747 4448 1984 4339 
Q 2221 4230 2390 4022 
Q 2560 3814 2656 3520 
Q 2752 3226 2752 2861 
Q 2752 2374 2582 1932 
Q 2413 1491 2118 1142 
Q 1824 794 1417 560 
Q 1011 326 544 262 
L 518 403 
Q 915 506 1187 742 
Q 1459 979 1628 1308 
Q 1798 1638 1872 2051 
Q 1946 2464 1946 2918 
Q 1946 3194 1930 3446 
Q 1914 3699 1866 3891 
Q 1818 4083 1722 4195 
Q 1626 4307 1466 4307 
Q 1318 4307 1219 4204 
Q 1120 4102 1059 3939 
Q 998 3776 972 3571 
Q 947 3366 947 3162 
Q 947 2989 982 2806 
Q 1018 2624 1088 2477 
Q 1158 2330 1260 2234 
Q 1363 2138 1498 2138 
Q 1587 2138 1638 2157 
L 1658 2022 
z
" transform="scale(0.015625)"/>
     </defs>
     <use xlink:href="#STSongti-SC-Black-30"/>
     <use xlink:href="#STSongti-SC-Black-2e" x="46.899994"/>
     <use xlink:href="#STSongti-SC-Black-30" x="68.799988"/>
     <use xlink:href="#STSongti-SC-Black-30" x="115.699982"/>
     <use xlink:href="#STSongti-SC-Black-39" x="162.599976"/>
    </g>
   </g>
   <g id="text_15">
    <!-- 0.012 -->
    <g transform="translate(115.127048 218.657226)scale(0.1 -0.1)">
     <use xlink:href="#STSongti-SC-Black-30"/>
     <use xlink:href="#STSongti-SC-Black-2e" x="46.899994"/>
     <use xlink:href="#STSongti-SC-Black-30" x="68.799988"/>
     <use xlink:href="#STSongti-SC-Black-31" x="115.699982"/>
     <use xlink:href="#STSongti-SC-Black-32" x="162.599976"/>
    </g>
   </g>
   <g id="text_16">
    <!-- 0.039 -->
    <g transform="translate(170.465891 212.192111)scale(0.1 -0.1)">
     <use xlink:href="#STSongti-SC-Black-30"/>
     <use xlink:href="#STSongti-SC-Black-2e" x="46.899994"/>
     <use xlink:href="#STSongti-SC-Black-30" x="68.799988"/>
     <use xlink:href="#STSongti-SC-Black-33" x="115.699982"/>
     <use xlink:href="#STSongti-SC-Black-39" x="162.599976"/>
    </g>
   </g>
   <g id="text_17">
    <!-- 0.031 -->
    <g transform="translate(225.804734 214.21246)scale(0.1 -0.1)">
     <use xlink:href="#STSongti-SC-Black-30"/>
     <use xlink:href="#STSongti-SC-Black-2e" x="46.899994"/>
     <use xlink:href="#STSongti-SC-Black-30" x="68.799988"/>
     <use xlink:href="#STSongti-SC-Black-33" x="115.699982"/>
     <use xlink:href="#STSongti-SC-Black-31" x="162.599976"/>
    </g>
   </g>
   <g id="text_18">
    <!-- 0.036 -->
    <g transform="translate(281.143577 213.000251)scale(0.1 -0.1)">
     <use xlink:href="#STSongti-SC-Black-30"/>
     <use xlink:href="#STSongti-SC-Black-2e" x="46.899994"/>
     <use xlink:href="#STSongti-SC-Black-30" x="68.799988"/>
     <use xlink:href="#STSongti-SC-Black-33" x="115.699982"/>
     <use xlink:href="#STSongti-SC-Black-36" x="162.599976"/>
    </g>
   </g>
   <g id="text_19">
    <!-- 0.874 -->
    <g transform="translate(336.48242 14.4)scale(0.1 -0.1)">
     <defs>
      <path id="STSongti-SC-Black-37" d="M 358 4384 
L 2822 4384 
L 2822 4275 
Q 2714 4083 2522 3596 
Q 2330 3110 2042 2310 
Q 1485 736 1427 384 
L 1043 384 
Q 1120 717 1222 1065 
Q 1325 1414 1462 1817 
Q 1600 2221 1779 2691 
Q 1958 3162 2189 3731 
L 634 3731 
Q 467 3731 461 3648 
L 410 3379 
L 269 3379 
L 358 4384 
z
" transform="scale(0.015625)"/>
     </defs>
     <use xlink:href="#STSongti-SC-Black-30"/>
     <use xlink:href="#STSongti-SC-Black-2e" x="46.899994"/>
     <use xlink:href="#STSongti-SC-Black-38" x="68.799988"/>
     <use xlink:href="#STSongti-SC-Black-37" x="115.699982"/>
     <use xlink:href="#STSongti-SC-Black-34" x="162.599976"/>
    </g>
   </g>
  </g>
 </g>
 <defs>
  <clipPath id="p35044d3205">
   <rect x="41.211875" y="8.785452" width="334.8" height="217.44"/>
  </clipPath>
 </defs>
</svg>
