<?xml version="1.0" encoding="utf-8" standalone="no"?>
<!DOCTYPE svg PUBLIC "-//W3C//DTD SVG 1.1//EN"
  "http://www.w3.org/Graphics/SVG/1.1/DTD/svg11.dtd">
<svg xmlns:xlink="http://www.w3.org/1999/xlink" width="629.925625pt" height="374.298594pt" viewBox="0 0 629.925625 374.298594" xmlns="http://www.w3.org/2000/svg" version="1.1">
 <metadata>
  <rdf:RDF xmlns:dc="http://purl.org/dc/elements/1.1/" xmlns:cc="http://creativecommons.org/ns#" xmlns:rdf="http://www.w3.org/1999/02/22-rdf-syntax-ns#">
   <cc:Work>
    <dc:type rdf:resource="http://purl.org/dc/dcmitype/StillImage"/>
    <dc:date>2022-01-19T17:29:20.684941</dc:date>
    <dc:format>image/svg+xml</dc:format>
    <dc:creator>
     <cc:Agent>
      <dc:title>Matplotlib v3.5.1, https://matplotlib.org/</dc:title>
     </cc:Agent>
    </dc:creator>
   </cc:Work>
  </rdf:RDF>
 </metadata>
 <defs>
  <style type="text/css">*{stroke-linejoin: round; stroke-linecap: butt}</style>
 </defs>
 <g id="figure_1">
  <g id="patch_1">
   <path d="M 0 374.298594 
L 629.925625 374.298594 
L 629.925625 0 
L 0 0 
L 0 374.298594 
z
" style="fill: none"/>
  </g>
  <g id="axes_1">
   <g id="patch_2">
    <path d="M 54.249063 336.96 
L 612.249063 336.96 
L 612.249063 10.8 
L 54.249063 10.8 
z
" style="fill: #ffffff"/>
   </g>
   <g id="PathCollection_1">
    <defs>
     <path id="mac67138860" d="M 0 -3 
L -0.673542 -0.927051 
L -2.85317 -0.927051 
L -1.089814 0.354102 
L -1.763356 2.427051 
L -0 1.145898 
L 1.763356 2.427051 
L 1.089814 0.354102 
L 2.85317 -0.927051 
L 0.673542 -0.927051 
z
" style="stroke: #012e6b; stroke-width: 0.5"/>
    </defs>
    <g clip-path="url(#pc3f45a3d1e)">
     <use xlink:href="#mac67138860" x="571.712882" y="336.210896" style="fill: #012e6b; stroke: #012e6b; stroke-width: 0.5"/>
     <use xlink:href="#mac67138860" x="354.142676" y="332.465374" style="fill: #012e6b; stroke: #012e6b; stroke-width: 0.5"/>
     <use xlink:href="#mac67138860" x="347.061219" y="332.465374" style="fill: #012e6b; stroke: #012e6b; stroke-width: 0.5"/>
     <use xlink:href="#mac67138860" x="309.266673" y="335.087239" style="fill: #012e6b; stroke: #012e6b; stroke-width: 0.5"/>
     <use xlink:href="#mac67138860" x="296.975498" y="335.836344" style="fill: #012e6b; stroke: #012e6b; stroke-width: 0.5"/>
     <use xlink:href="#mac67138860" x="284.049897" y="335.461791" style="fill: #012e6b; stroke: #012e6b; stroke-width: 0.5"/>
     <use xlink:href="#mac67138860" x="277.769971" y="335.836344" style="fill: #012e6b; stroke: #012e6b; stroke-width: 0.5"/>
     <use xlink:href="#mac67138860" x="259.982239" y="335.087239" style="fill: #012e6b; stroke: #012e6b; stroke-width: 0.5"/>
     <use xlink:href="#mac67138860" x="245.139273" y="333.963583" style="fill: #012e6b; stroke: #012e6b; stroke-width: 0.5"/>
     <use xlink:href="#mac67138860" x="225.317743" y="334.712687" style="fill: #012e6b; stroke: #012e6b; stroke-width: 0.5"/>
     <use xlink:href="#mac67138860" x="176.275241" y="335.461791" style="fill: #012e6b; stroke: #012e6b; stroke-width: 0.5"/>
     <use xlink:href="#mac67138860" x="156.802243" y="334.338135" style="fill: #012e6b; stroke: #012e6b; stroke-width: 0.5"/>
     <use xlink:href="#mac67138860" x="153.071145" y="334.338135" style="fill: #012e6b; stroke: #012e6b; stroke-width: 0.5"/>
     <use xlink:href="#mac67138860" x="146.249988" y="332.465374" style="fill: #012e6b; stroke: #012e6b; stroke-width: 0.5"/>
     <use xlink:href="#mac67138860" x="131.703352" y="332.839927" style="fill: #012e6b; stroke: #012e6b; stroke-width: 0.5"/>
     <use xlink:href="#mac67138860" x="130.901861" y="332.839927" style="fill: #012e6b; stroke: #012e6b; stroke-width: 0.5"/>
     <use xlink:href="#mac67138860" x="128.230605" y="331.341718" style="fill: #012e6b; stroke: #012e6b; stroke-width: 0.5"/>
     <use xlink:href="#mac67138860" x="120.447785" y="331.341718" style="fill: #012e6b; stroke: #012e6b; stroke-width: 0.5"/>
     <use xlink:href="#mac67138860" x="119.684463" y="331.341718" style="fill: #012e6b; stroke: #012e6b; stroke-width: 0.5"/>
     <use xlink:href="#mac67138860" x="115.905474" y="323.476123" style="fill: #012e6b; stroke: #012e6b; stroke-width: 0.5"/>
     <use xlink:href="#mac67138860" x="115.053753" y="323.476123" style="fill: #012e6b; stroke: #012e6b; stroke-width: 0.5"/>
     <use xlink:href="#mac67138860" x="111.628432" y="323.476123" style="fill: #012e6b; stroke: #012e6b; stroke-width: 0.5"/>
     <use xlink:href="#mac67138860" x="110.972687" y="323.476123" style="fill: #012e6b; stroke: #012e6b; stroke-width: 0.5"/>
     <use xlink:href="#mac67138860" x="108.889116" y="323.476123" style="fill: #012e6b; stroke: #012e6b; stroke-width: 0.5"/>
     <use xlink:href="#mac67138860" x="107.402792" y="323.476123" style="fill: #012e6b; stroke: #012e6b; stroke-width: 0.5"/>
     <use xlink:href="#mac67138860" x="102.107968" y="327.596197" style="fill: #012e6b; stroke: #012e6b; stroke-width: 0.5"/>
     <use xlink:href="#mac67138860" x="90.262948" y="315.98508" style="fill: #012e6b; stroke: #012e6b; stroke-width: 0.5"/>
     <use xlink:href="#mac67138860" x="88.399889" y="315.98508" style="fill: #012e6b; stroke: #012e6b; stroke-width: 0.5"/>
     <use xlink:href="#mac67138860" x="85.641315" y="315.98508" style="fill: #012e6b; stroke: #012e6b; stroke-width: 0.5"/>
     <use xlink:href="#mac67138860" x="80.941046" y="313.737768" style="fill: #012e6b; stroke: #012e6b; stroke-width: 0.5"/>
     <use xlink:href="#mac67138860" x="74.358639" y="313.737768" style="fill: #012e6b; stroke: #012e6b; stroke-width: 0.5"/>
     <use xlink:href="#mac67138860" x="72.319365" y="313.737768" style="fill: #012e6b; stroke: #012e6b; stroke-width: 0.5"/>
     <use xlink:href="#mac67138860" x="69.511153" y="313.737768" style="fill: #012e6b; stroke: #012e6b; stroke-width: 0.5"/>
     <use xlink:href="#mac67138860" x="66.157437" y="313.737768" style="fill: #012e6b; stroke: #012e6b; stroke-width: 0.5"/>
     <use xlink:href="#mac67138860" x="64.765221" y="313.737768" style="fill: #012e6b; stroke: #012e6b; stroke-width: 0.5"/>
     <use xlink:href="#mac67138860" x="62.275026" y="29.827249" style="fill: #012e6b; stroke: #012e6b; stroke-width: 0.5"/>
     <use xlink:href="#mac67138860" x="61.829092" y="29.827249" style="fill: #012e6b; stroke: #012e6b; stroke-width: 0.5"/>
     <use xlink:href="#mac67138860" x="61.089652" y="29.827249" style="fill: #012e6b; stroke: #012e6b; stroke-width: 0.5"/>
     <use xlink:href="#mac67138860" x="60.271046" y="29.827249" style="fill: #012e6b; stroke: #012e6b; stroke-width: 0.5"/>
     <use xlink:href="#mac67138860" x="59.774574" y="29.827249" style="fill: #012e6b; stroke: #012e6b; stroke-width: 0.5"/>
     <use xlink:href="#mac67138860" x="59.735846" y="29.827249" style="fill: #012e6b; stroke: #012e6b; stroke-width: 0.5"/>
     <use xlink:href="#mac67138860" x="59.240499" y="29.827249" style="fill: #012e6b; stroke: #012e6b; stroke-width: 0.5"/>
     <use xlink:href="#mac67138860" x="58.929745" y="29.827249" style="fill: #012e6b; stroke: #012e6b; stroke-width: 0.5"/>
     <use xlink:href="#mac67138860" x="58.823962" y="29.827249" style="fill: #012e6b; stroke: #012e6b; stroke-width: 0.5"/>
     <use xlink:href="#mac67138860" x="58.301592" y="29.827249" style="fill: #012e6b; stroke: #012e6b; stroke-width: 0.5"/>
     <use xlink:href="#mac67138860" x="57.268453" y="29.827249" style="fill: #012e6b; stroke: #012e6b; stroke-width: 0.5"/>
     <use xlink:href="#mac67138860" x="56.549721" y="29.827249" style="fill: #012e6b; stroke: #012e6b; stroke-width: 0.5"/>
     <use xlink:href="#mac67138860" x="56.446776" y="29.827249" style="fill: #012e6b; stroke: #012e6b; stroke-width: 0.5"/>
     <use xlink:href="#mac67138860" x="56.277299" y="29.827249" style="fill: #012e6b; stroke: #012e6b; stroke-width: 0.5"/>
     <use xlink:href="#mac67138860" x="55.802788" y="29.827249" style="fill: #012e6b; stroke: #012e6b; stroke-width: 0.5"/>
     <use xlink:href="#mac67138860" x="55.637258" y="29.827249" style="fill: #012e6b; stroke: #012e6b; stroke-width: 0.5"/>
     <use xlink:href="#mac67138860" x="55.545884" y="29.827249" style="fill: #012e6b; stroke: #012e6b; stroke-width: 0.5"/>
     <use xlink:href="#mac67138860" x="55.331006" y="29.827249" style="fill: #012e6b; stroke: #012e6b; stroke-width: 0.5"/>
     <use xlink:href="#mac67138860" x="55.108151" y="29.827249" style="fill: #012e6b; stroke: #012e6b; stroke-width: 0.5"/>
     <use xlink:href="#mac67138860" x="55.052065" y="29.827249" style="fill: #012e6b; stroke: #012e6b; stroke-width: 0.5"/>
     <use xlink:href="#mac67138860" x="54.98541" y="29.827249" style="fill: #012e6b; stroke: #012e6b; stroke-width: 0.5"/>
     <use xlink:href="#mac67138860" x="54.948896" y="29.827249" style="fill: #012e6b; stroke: #012e6b; stroke-width: 0.5"/>
     <use xlink:href="#mac67138860" x="54.934096" y="29.827249" style="fill: #012e6b; stroke: #012e6b; stroke-width: 0.5"/>
     <use xlink:href="#mac67138860" x="54.848979" y="29.827249" style="fill: #012e6b; stroke: #012e6b; stroke-width: 0.5"/>
     <use xlink:href="#mac67138860" x="54.799178" y="29.827249" style="fill: #012e6b; stroke: #012e6b; stroke-width: 0.5"/>
     <use xlink:href="#mac67138860" x="54.758502" y="29.827249" style="fill: #012e6b; stroke: #012e6b; stroke-width: 0.5"/>
     <use xlink:href="#mac67138860" x="54.687907" y="29.827249" style="fill: #012e6b; stroke: #012e6b; stroke-width: 0.5"/>
     <use xlink:href="#mac67138860" x="54.665" y="29.827249" style="fill: #012e6b; stroke: #012e6b; stroke-width: 0.5"/>
     <use xlink:href="#mac67138860" x="54.635378" y="29.827249" style="fill: #012e6b; stroke: #012e6b; stroke-width: 0.5"/>
     <use xlink:href="#mac67138860" x="54.468584" y="29.827249" style="fill: #012e6b; stroke: #012e6b; stroke-width: 0.5"/>
     <use xlink:href="#mac67138860" x="54.460862" y="29.827249" style="fill: #012e6b; stroke: #012e6b; stroke-width: 0.5"/>
     <use xlink:href="#mac67138860" x="54.438705" y="29.827249" style="fill: #012e6b; stroke: #012e6b; stroke-width: 0.5"/>
     <use xlink:href="#mac67138860" x="54.437385" y="29.827249" style="fill: #012e6b; stroke: #012e6b; stroke-width: 0.5"/>
     <use xlink:href="#mac67138860" x="54.337258" y="29.827249" style="fill: #012e6b; stroke: #012e6b; stroke-width: 0.5"/>
     <use xlink:href="#mac67138860" x="54.333418" y="29.827249" style="fill: #012e6b; stroke: #012e6b; stroke-width: 0.5"/>
     <use xlink:href="#mac67138860" x="54.318684" y="29.827249" style="fill: #012e6b; stroke: #012e6b; stroke-width: 0.5"/>
     <use xlink:href="#mac67138860" x="54.316494" y="29.827249" style="fill: #012e6b; stroke: #012e6b; stroke-width: 0.5"/>
     <use xlink:href="#mac67138860" x="54.306172" y="29.827249" style="fill: #012e6b; stroke: #012e6b; stroke-width: 0.5"/>
     <use xlink:href="#mac67138860" x="54.281309" y="29.827249" style="fill: #012e6b; stroke: #012e6b; stroke-width: 0.5"/>
     <use xlink:href="#mac67138860" x="54.278026" y="29.827249" style="fill: #012e6b; stroke: #012e6b; stroke-width: 0.5"/>
     <use xlink:href="#mac67138860" x="54.270837" y="29.827249" style="fill: #012e6b; stroke: #012e6b; stroke-width: 0.5"/>
     <use xlink:href="#mac67138860" x="54.268204" y="29.827249" style="fill: #012e6b; stroke: #012e6b; stroke-width: 0.5"/>
     <use xlink:href="#mac67138860" x="54.25968" y="29.827249" style="fill: #012e6b; stroke: #012e6b; stroke-width: 0.5"/>
     <use xlink:href="#mac67138860" x="54.256753" y="29.827249" style="fill: #012e6b; stroke: #012e6b; stroke-width: 0.5"/>
     <use xlink:href="#mac67138860" x="54.256747" y="29.827249" style="fill: #012e6b; stroke: #012e6b; stroke-width: 0.5"/>
     <use xlink:href="#mac67138860" x="54.255322" y="29.827249" style="fill: #012e6b; stroke: #012e6b; stroke-width: 0.5"/>
     <use xlink:href="#mac67138860" x="54.25221" y="29.827249" style="fill: #012e6b; stroke: #012e6b; stroke-width: 0.5"/>
     <use xlink:href="#mac67138860" x="54.251702" y="29.827249" style="fill: #012e6b; stroke: #012e6b; stroke-width: 0.5"/>
     <use xlink:href="#mac67138860" x="54.251463" y="29.827249" style="fill: #012e6b; stroke: #012e6b; stroke-width: 0.5"/>
     <use xlink:href="#mac67138860" x="54.250876" y="29.827249" style="fill: #012e6b; stroke: #012e6b; stroke-width: 0.5"/>
     <use xlink:href="#mac67138860" x="54.250158" y="29.827249" style="fill: #012e6b; stroke: #012e6b; stroke-width: 0.5"/>
     <use xlink:href="#mac67138860" x="54.249945" y="29.827249" style="fill: #012e6b; stroke: #012e6b; stroke-width: 0.5"/>
     <use xlink:href="#mac67138860" x="54.249859" y="29.827249" style="fill: #012e6b; stroke: #012e6b; stroke-width: 0.5"/>
     <use xlink:href="#mac67138860" x="54.249853" y="29.827249" style="fill: #012e6b; stroke: #012e6b; stroke-width: 0.5"/>
     <use xlink:href="#mac67138860" x="54.249527" y="29.827249" style="fill: #012e6b; stroke: #012e6b; stroke-width: 0.5"/>
     <use xlink:href="#mac67138860" x="54.249516" y="29.827249" style="fill: #012e6b; stroke: #012e6b; stroke-width: 0.5"/>
     <use xlink:href="#mac67138860" x="54.249403" y="29.827249" style="fill: #012e6b; stroke: #012e6b; stroke-width: 0.5"/>
     <use xlink:href="#mac67138860" x="54.249388" y="29.827249" style="fill: #012e6b; stroke: #012e6b; stroke-width: 0.5"/>
     <use xlink:href="#mac67138860" x="54.249358" y="29.827249" style="fill: #012e6b; stroke: #012e6b; stroke-width: 0.5"/>
     <use xlink:href="#mac67138860" x="54.249265" y="29.827249" style="fill: #012e6b; stroke: #012e6b; stroke-width: 0.5"/>
     <use xlink:href="#mac67138860" x="54.249239" y="29.827249" style="fill: #012e6b; stroke: #012e6b; stroke-width: 0.5"/>
     <use xlink:href="#mac67138860" x="54.249225" y="29.827249" style="fill: #012e6b; stroke: #012e6b; stroke-width: 0.5"/>
     <use xlink:href="#mac67138860" x="54.249199" y="29.827249" style="fill: #012e6b; stroke: #012e6b; stroke-width: 0.5"/>
     <use xlink:href="#mac67138860" x="54.249095" y="29.827249" style="fill: #012e6b; stroke: #012e6b; stroke-width: 0.5"/>
     <use xlink:href="#mac67138860" x="54.249089" y="29.827249" style="fill: #012e6b; stroke: #012e6b; stroke-width: 0.5"/>
     <use xlink:href="#mac67138860" x="54.249085" y="29.827249" style="fill: #012e6b; stroke: #012e6b; stroke-width: 0.5"/>
     <use xlink:href="#mac67138860" x="54.24907" y="29.827249" style="fill: #012e6b; stroke: #012e6b; stroke-width: 0.5"/>
     <use xlink:href="#mac67138860" x="54.249069" y="29.827249" style="fill: #012e6b; stroke: #012e6b; stroke-width: 0.5"/>
     <use xlink:href="#mac67138860" x="54.249065" y="29.827249" style="fill: #012e6b; stroke: #012e6b; stroke-width: 0.5"/>
     <use xlink:href="#mac67138860" x="54.249064" y="29.827249" style="fill: #012e6b; stroke: #012e6b; stroke-width: 0.5"/>
     <use xlink:href="#mac67138860" x="54.249063" y="29.827249" style="fill: #012e6b; stroke: #012e6b; stroke-width: 0.5"/>
     <use xlink:href="#mac67138860" x="54.249063" y="29.827249" style="fill: #012e6b; stroke: #012e6b; stroke-width: 0.5"/>
     <use xlink:href="#mac67138860" x="54.249063" y="29.827249" style="fill: #012e6b; stroke: #012e6b; stroke-width: 0.5"/>
    </g>
   </g>
   <g id="matplotlib.axis_1">
    <g id="xtick_1">
     <g id="line2d_1">
      <defs>
       <path id="ma46614cc30" d="M 0 0 
L 0 3.5 
" style="stroke: #000000; stroke-width: 0.8"/>
      </defs>
      <g>
       <use xlink:href="#ma46614cc30" x="54.249063" y="336.96" style="stroke: #000000; stroke-width: 0.8"/>
      </g>
     </g>
     <g id="text_1">
      <!-- 0.00 -->
      <g transform="translate(46.117812 351.16)scale(0.1 -0.1)">
       <defs>
        <path id="STSongti-SC-Black-30" d="M 1517 4448 
Q 1792 4448 2045 4285 
Q 2298 4122 2486 3840 
Q 2675 3558 2787 3177 
Q 2899 2797 2899 2362 
Q 2899 1933 2790 1555 
Q 2682 1178 2493 893 
Q 2304 608 2054 445 
Q 1805 282 1523 282 
Q 1248 282 995 442 
Q 742 602 550 880 
Q 358 1158 246 1539 
Q 134 1920 134 2355 
Q 134 2797 246 3181 
Q 358 3565 547 3846 
Q 736 4128 985 4288 
Q 1235 4448 1517 4448 
z
M 1517 518 
Q 1869 518 1997 966 
Q 2125 1414 2125 2362 
Q 2125 3309 1993 3760 
Q 1862 4211 1517 4211 
Q 1171 4211 1040 3763 
Q 909 3315 909 2362 
Q 909 518 1517 518 
z
" transform="scale(0.015625)"/>
        <path id="STSongti-SC-Black-2e" d="M 704 294 
Q 538 294 422 409 
Q 307 525 307 691 
Q 307 858 422 973 
Q 538 1088 704 1088 
Q 870 1088 985 973 
Q 1101 858 1101 691 
Q 1101 525 985 409 
Q 870 294 704 294 
z
" transform="scale(0.015625)"/>
       </defs>
       <use xlink:href="#STSongti-SC-Black-30"/>
       <use xlink:href="#STSongti-SC-Black-2e" x="46.899994"/>
       <use xlink:href="#STSongti-SC-Black-30" x="68.799988"/>
       <use xlink:href="#STSongti-SC-Black-30" x="115.699982"/>
      </g>
     </g>
    </g>
    <g id="xtick_2">
     <g id="line2d_2">
      <g>
       <use xlink:href="#ma46614cc30" x="123.999063" y="336.96" style="stroke: #000000; stroke-width: 0.8"/>
      </g>
     </g>
     <g id="text_2">
      <!-- 2.00 -->
      <g transform="translate(115.867813 351.16)scale(0.1 -0.1)">
       <defs>
        <path id="STSongti-SC-Black-32" d="M 2726 365 
Q 2496 371 2227 377 
Q 1958 384 1542 384 
Q 1120 384 777 381 
Q 435 378 211 365 
Q 230 518 262 659 
Q 294 800 377 957 
Q 461 1114 605 1299 
Q 749 1485 992 1734 
L 1229 1978 
Q 1478 2227 1625 2412 
Q 1773 2598 1849 2748 
Q 1926 2899 1945 3033 
Q 1965 3168 1965 3322 
Q 1965 3622 1779 3801 
Q 1594 3981 1280 3981 
Q 954 3981 746 3769 
Q 538 3558 461 3162 
L 262 3238 
Q 352 3827 694 4137 
Q 1037 4448 1549 4448 
Q 1779 4448 1984 4384 
Q 2189 4320 2342 4195 
Q 2496 4070 2589 3888 
Q 2682 3706 2682 3469 
Q 2682 3219 2592 3008 
Q 2502 2797 2348 2608 
Q 2195 2419 1993 2246 
Q 1792 2074 1574 1907 
L 1382 1754 
Q 1216 1619 1030 1427 
Q 845 1235 685 979 
L 2074 979 
Q 2234 979 2317 1011 
Q 2400 1043 2448 1116 
Q 2496 1190 2531 1302 
Q 2566 1414 2624 1568 
L 2822 1568 
L 2726 365 
z
" transform="scale(0.015625)"/>
       </defs>
       <use xlink:href="#STSongti-SC-Black-32"/>
       <use xlink:href="#STSongti-SC-Black-2e" x="46.899994"/>
       <use xlink:href="#STSongti-SC-Black-30" x="68.799988"/>
       <use xlink:href="#STSongti-SC-Black-30" x="115.699982"/>
      </g>
     </g>
    </g>
    <g id="xtick_3">
     <g id="line2d_3">
      <g>
       <use xlink:href="#ma46614cc30" x="193.749063" y="336.96" style="stroke: #000000; stroke-width: 0.8"/>
      </g>
     </g>
     <g id="text_3">
      <!-- 4.00 -->
      <g transform="translate(185.617813 351.16)scale(0.1 -0.1)">
       <defs>
        <path id="STSongti-SC-Black-34" d="M 2086 4448 
L 2387 4448 
L 2387 1843 
L 2918 1843 
L 2918 1434 
L 2387 1434 
L 2387 282 
L 1670 282 
L 1670 1434 
L 122 1434 
L 122 1760 
L 966 2912 
Q 1254 3296 1529 3680 
Q 1805 4064 2086 4448 
z
M 1670 1843 
L 1670 3469 
Q 1453 3168 1289 2944 
Q 1126 2720 992 2537 
Q 858 2355 739 2188 
Q 621 2022 493 1843 
L 1670 1843 
z
" transform="scale(0.015625)"/>
       </defs>
       <use xlink:href="#STSongti-SC-Black-34"/>
       <use xlink:href="#STSongti-SC-Black-2e" x="46.899994"/>
       <use xlink:href="#STSongti-SC-Black-30" x="68.799988"/>
       <use xlink:href="#STSongti-SC-Black-30" x="115.699982"/>
      </g>
     </g>
    </g>
    <g id="xtick_4">
     <g id="line2d_4">
      <g>
       <use xlink:href="#ma46614cc30" x="263.499062" y="336.96" style="stroke: #000000; stroke-width: 0.8"/>
      </g>
     </g>
     <g id="text_4">
      <!-- 6.00 -->
      <g transform="translate(255.367812 351.16)scale(0.1 -0.1)">
       <defs>
        <path id="STSongti-SC-Black-36" d="M 2458 4467 
L 2509 4346 
Q 2138 4141 1846 3926 
Q 1555 3712 1356 3430 
Q 1158 3149 1056 2761 
Q 954 2374 954 1824 
Q 954 1645 973 1414 
Q 992 1184 1053 976 
Q 1114 768 1235 627 
Q 1357 486 1562 486 
Q 1824 486 1987 739 
Q 2150 992 2150 1562 
Q 2150 2042 1996 2282 
Q 1843 2522 1555 2522 
Q 1434 2522 1318 2470 
L 1267 2637 
Q 1370 2682 1482 2704 
Q 1594 2726 1747 2726 
Q 2278 2726 2560 2425 
Q 2842 2125 2842 1626 
Q 2842 1318 2736 1072 
Q 2630 826 2451 650 
Q 2272 474 2035 378 
Q 1798 282 1530 282 
Q 1190 282 944 403 
Q 698 525 534 739 
Q 371 954 294 1242 
Q 218 1530 218 1862 
Q 218 2426 394 2864 
Q 570 3302 874 3622 
Q 1178 3942 1587 4150 
Q 1997 4358 2458 4467 
z
" transform="scale(0.015625)"/>
       </defs>
       <use xlink:href="#STSongti-SC-Black-36"/>
       <use xlink:href="#STSongti-SC-Black-2e" x="46.899994"/>
       <use xlink:href="#STSongti-SC-Black-30" x="68.799988"/>
       <use xlink:href="#STSongti-SC-Black-30" x="115.699982"/>
      </g>
     </g>
    </g>
    <g id="xtick_5">
     <g id="line2d_5">
      <g>
       <use xlink:href="#ma46614cc30" x="333.249062" y="336.96" style="stroke: #000000; stroke-width: 0.8"/>
      </g>
     </g>
     <g id="text_5">
      <!-- 8.00 -->
      <g transform="translate(325.117812 351.16)scale(0.1 -0.1)">
       <defs>
        <path id="STSongti-SC-Black-38" d="M 1069 2368 
Q 282 2758 282 3424 
Q 282 3622 368 3804 
Q 454 3987 617 4131 
Q 781 4275 1005 4361 
Q 1229 4448 1510 4448 
Q 1760 4448 1968 4377 
Q 2176 4307 2326 4185 
Q 2477 4064 2560 3901 
Q 2643 3738 2643 3552 
Q 2643 3366 2588 3232 
Q 2534 3098 2438 2992 
Q 2342 2886 2201 2793 
Q 2061 2701 1888 2598 
Q 2202 2445 2381 2297 
Q 2560 2150 2646 2006 
Q 2733 1862 2752 1718 
Q 2771 1574 2771 1434 
Q 2771 1190 2665 979 
Q 2560 768 2384 614 
Q 2208 461 1971 371 
Q 1734 282 1466 282 
Q 1184 282 950 362 
Q 717 442 550 576 
Q 384 710 294 892 
Q 205 1075 205 1280 
Q 205 1434 246 1584 
Q 288 1734 390 1875 
Q 493 2016 659 2137 
Q 826 2259 1069 2368 
z
M 1683 2707 
Q 1920 2854 2022 3046 
Q 2125 3238 2125 3526 
Q 2125 3827 1968 4019 
Q 1811 4211 1472 4211 
Q 1158 4211 1011 4035 
Q 864 3859 864 3597 
Q 864 3334 1046 3126 
Q 1229 2918 1683 2707 
z
M 1254 2266 
Q 1107 2176 1011 2077 
Q 915 1978 860 1866 
Q 806 1754 784 1622 
Q 762 1491 762 1331 
Q 762 941 976 710 
Q 1190 480 1517 480 
Q 2163 480 2163 1235 
Q 2163 1414 2108 1555 
Q 2054 1696 1942 1817 
Q 1830 1939 1657 2048 
Q 1485 2157 1254 2266 
z
" transform="scale(0.015625)"/>
       </defs>
       <use xlink:href="#STSongti-SC-Black-38"/>
       <use xlink:href="#STSongti-SC-Black-2e" x="46.899994"/>
       <use xlink:href="#STSongti-SC-Black-30" x="68.799988"/>
       <use xlink:href="#STSongti-SC-Black-30" x="115.699982"/>
      </g>
     </g>
    </g>
    <g id="xtick_6">
     <g id="line2d_6">
      <g>
       <use xlink:href="#ma46614cc30" x="402.999062" y="336.96" style="stroke: #000000; stroke-width: 0.8"/>
      </g>
     </g>
     <g id="text_6">
      <!-- 10.00 -->
      <g transform="translate(392.5225 351.16)scale(0.1 -0.1)">
       <defs>
        <path id="STSongti-SC-Black-31" d="M 2464 365 
Q 2298 371 2045 377 
Q 1792 384 1523 384 
Q 1254 384 1001 377 
Q 749 371 582 365 
L 582 550 
L 979 608 
Q 1203 659 1203 858 
L 1203 3840 
L 442 3347 
L 333 3546 
Q 442 3616 608 3718 
Q 774 3821 960 3942 
Q 1146 4064 1331 4192 
Q 1517 4320 1670 4448 
L 1882 4448 
L 1882 858 
Q 1882 634 2106 602 
L 2464 550 
L 2464 365 
z
" transform="scale(0.015625)"/>
       </defs>
       <use xlink:href="#STSongti-SC-Black-31"/>
       <use xlink:href="#STSongti-SC-Black-30" x="46.899994"/>
       <use xlink:href="#STSongti-SC-Black-2e" x="93.799988"/>
       <use xlink:href="#STSongti-SC-Black-30" x="115.699982"/>
       <use xlink:href="#STSongti-SC-Black-30" x="162.599976"/>
      </g>
     </g>
    </g>
    <g id="xtick_7">
     <g id="line2d_7">
      <g>
       <use xlink:href="#ma46614cc30" x="472.749062" y="336.96" style="stroke: #000000; stroke-width: 0.8"/>
      </g>
     </g>
     <g id="text_7">
      <!-- 12.00 -->
      <g transform="translate(462.2725 351.16)scale(0.1 -0.1)">
       <use xlink:href="#STSongti-SC-Black-31"/>
       <use xlink:href="#STSongti-SC-Black-32" x="46.899994"/>
       <use xlink:href="#STSongti-SC-Black-2e" x="93.799988"/>
       <use xlink:href="#STSongti-SC-Black-30" x="115.699982"/>
       <use xlink:href="#STSongti-SC-Black-30" x="162.599976"/>
      </g>
     </g>
    </g>
    <g id="xtick_8">
     <g id="line2d_8">
      <g>
       <use xlink:href="#ma46614cc30" x="542.499063" y="336.96" style="stroke: #000000; stroke-width: 0.8"/>
      </g>
     </g>
     <g id="text_8">
      <!-- 14.00 -->
      <g transform="translate(532.0225 351.16)scale(0.1 -0.1)">
       <use xlink:href="#STSongti-SC-Black-31"/>
       <use xlink:href="#STSongti-SC-Black-34" x="46.899994"/>
       <use xlink:href="#STSongti-SC-Black-2e" x="93.799988"/>
       <use xlink:href="#STSongti-SC-Black-30" x="115.699982"/>
       <use xlink:href="#STSongti-SC-Black-30" x="162.599976"/>
      </g>
     </g>
    </g>
    <g id="xtick_9">
     <g id="line2d_9">
      <g>
       <use xlink:href="#ma46614cc30" x="612.249063" y="336.96" style="stroke: #000000; stroke-width: 0.8"/>
      </g>
     </g>
     <g id="text_9">
      <!-- 16.00 -->
      <g transform="translate(601.7725 351.16)scale(0.1 -0.1)">
       <use xlink:href="#STSongti-SC-Black-31"/>
       <use xlink:href="#STSongti-SC-Black-36" x="46.899994"/>
       <use xlink:href="#STSongti-SC-Black-2e" x="93.799988"/>
       <use xlink:href="#STSongti-SC-Black-30" x="115.699982"/>
       <use xlink:href="#STSongti-SC-Black-30" x="162.599976"/>
      </g>
     </g>
    </g>
    <g id="xtick_10">
     <g id="line2d_10">
      <g>
       <use xlink:href="#ma46614cc30" x="92.036492" y="336.96" style="stroke: #000000; stroke-width: 0.8"/>
      </g>
     </g>
     <g id="text_10">
      <!-- 1.08 -->
      <g transform="translate(83.905242 351.16)scale(0.1 -0.1)">
       <use xlink:href="#STSongti-SC-Black-31"/>
       <use xlink:href="#STSongti-SC-Black-2e" x="46.899994"/>
       <use xlink:href="#STSongti-SC-Black-30" x="68.799988"/>
       <use xlink:href="#STSongti-SC-Black-38" x="115.699982"/>
      </g>
     </g>
    </g>
    <g id="text_11">
     <!-- 脆弱性指标 -->
     <g transform="translate(305.749062 365.568906)scale(0.11 -0.11)">
      <defs>
       <path id="STSongti-SC-Black-8106" d="M 2835 3283 
Q 2605 3091 2477 3002 
L 2477 186 
Q 2477 -115 2358 -243 
Q 2240 -371 2035 -441 
Q 1830 -512 1754 -512 
Q 1613 -512 1613 -349 
Q 1613 -186 1507 -83 
Q 1402 19 1101 90 
Q 1037 109 1037 131 
Q 1037 154 1094 154 
L 1318 147 
Q 1798 147 1798 346 
L 1798 1754 
L 1382 1754 
Q 1293 704 813 3 
Q 333 -698 250 -698 
Q 230 -698 230 -675 
Q 230 -653 256 -608 
Q 486 -166 582 173 
Q 678 512 720 1149 
Q 762 1786 762 2688 
Q 762 3590 704 4979 
Q 1133 4864 1408 4723 
L 1709 4723 
Q 1779 4870 1849 4976 
Q 1920 5082 1965 5082 
Q 2035 5082 2348 4826 
Q 2662 4570 2662 4506 
Q 2662 4442 2477 4378 
L 2477 3136 
Q 3149 4102 3322 5331 
Q 3674 5267 3965 5184 
Q 4256 5101 4304 5065 
Q 4352 5030 4352 4979 
Q 4352 4928 4237 4896 
Q 4019 4838 3808 4435 
L 4486 4435 
Q 4646 4698 4697 4755 
Q 4749 4813 4794 4813 
Q 4858 4813 5226 4589 
Q 5594 4365 5594 4265 
Q 5594 4166 5459 4166 
Q 5325 4166 5161 4044 
Q 4998 3923 4506 3456 
L 5178 3456 
Q 5446 3987 5549 3987 
Q 5613 3987 5766 3859 
L 6074 3584 
Q 6234 3437 6234 3341 
Q 6234 3245 6080 3245 
L 3590 3245 
Q 3539 3168 3526 2982 
Q 3494 1549 3411 1081 
Q 3328 614 3145 268 
Q 2963 -77 2614 -441 
Q 2266 -806 2195 -806 
Q 2170 -806 2170 -774 
Q 2170 -742 2227 -685 
Q 2502 -397 2624 -64 
Q 2746 269 2806 829 
Q 2867 1389 2867 2006 
Q 2867 2624 2835 3283 
z
M 1421 3366 
L 1798 3366 
L 1798 4512 
L 1453 4512 
Q 1414 4467 1414 4365 
L 1421 3981 
Q 1427 3546 1421 3366 
z
M 3686 4224 
Q 3482 3904 3104 3533 
Q 3251 3501 3379 3456 
L 4288 3456 
Q 4442 3891 4531 4224 
L 3686 4224 
z
M 1798 3155 
L 1421 3155 
Q 1421 2266 1395 1965 
L 1798 1965 
L 1798 3155 
z
M 4358 2682 
L 4979 2682 
Q 5069 2861 5120 2944 
Q 5171 3027 5216 3027 
Q 5306 3027 5674 2806 
Q 6042 2586 6042 2486 
Q 6042 2387 5805 2355 
Q 5811 1856 5766 1558 
Q 5722 1261 5619 1101 
Q 5517 941 5337 870 
Q 5158 800 4992 800 
Q 4928 800 4896 822 
Q 4864 845 4858 922 
Q 4826 1267 4358 1350 
L 4358 416 
Q 4358 218 4428 154 
Q 4499 90 4768 90 
Q 5229 90 5379 157 
Q 5530 224 5622 425 
Q 5715 627 5843 1165 
Q 5869 1267 5894 1267 
Q 5920 1267 5920 1184 
L 5914 883 
Q 5914 582 5971 403 
Q 6029 224 6227 96 
Q 6362 6 6362 -99 
Q 6362 -205 6240 -342 
Q 6118 -480 5696 -537 
Q 5274 -595 4736 -595 
Q 4198 -595 3952 -470 
Q 3706 -346 3706 205 
L 3706 2195 
Q 3706 2630 3686 2912 
Q 4122 2797 4358 2682 
z
M 4358 1434 
Q 4640 1427 4771 1440 
Q 4902 1453 4960 1488 
Q 5018 1523 5027 1574 
Q 5037 1626 5053 1923 
Q 5069 2221 5075 2470 
L 4486 2470 
Q 4442 2438 4358 2400 
L 4358 1434 
z
" transform="scale(0.015625)"/>
       <path id="STSongti-SC-Black-5f31" d="M 4928 3827 
L 4928 4614 
L 3616 4614 
Q 3494 4614 3386 4570 
L 3219 4858 
Q 3398 4826 3539 4826 
L 4691 4826 
Q 4941 5037 5050 5146 
Q 5082 5178 5139 5178 
Q 5197 5178 5424 5043 
Q 5651 4909 5795 4813 
Q 5939 4717 5939 4640 
Q 5939 4563 5702 4506 
L 5702 3962 
Q 5702 3827 5709 3712 
L 5722 3520 
Q 5722 3430 5520 3376 
Q 5318 3322 5075 3322 
Q 4973 3322 4950 3328 
Q 4928 3334 4928 3386 
L 4928 3616 
L 4211 3616 
Q 4192 3558 4134 3552 
L 4064 2842 
L 5062 2842 
Q 5254 3162 5325 3162 
Q 5363 3162 5670 2989 
Q 5978 2816 6064 2736 
Q 6150 2656 6150 2605 
Q 6150 2496 5914 2438 
Q 5894 1594 5856 998 
Q 5818 403 5766 112 
Q 5715 -179 5539 -332 
Q 5363 -486 5113 -550 
Q 4864 -614 4726 -614 
Q 4589 -614 4582 -506 
Q 4570 -262 4442 -147 
Q 4314 -32 4042 38 
Q 3770 109 3770 137 
Q 3770 166 3866 166 
L 4256 154 
Q 4634 154 4800 237 
Q 4966 320 5024 521 
Q 5082 723 5107 1453 
Q 4531 1094 4076 784 
Q 3622 474 3552 394 
Q 3482 314 3456 314 
Q 3430 314 3414 342 
Q 3398 371 3302 627 
Q 3206 883 3117 1152 
Q 4102 1306 5114 1613 
L 5139 2630 
L 4064 2630 
L 3930 2451 
Q 3866 2374 3830 2374 
Q 3795 2374 3674 2438 
L 3405 2592 
Q 3258 2682 3238 2701 
Q 3219 2720 3219 2755 
Q 3219 2790 3270 2828 
Q 3322 2867 3347 2931 
Q 3373 2995 3386 3149 
L 3430 3667 
Q 3450 3898 3443 4090 
Q 3821 3987 4205 3827 
L 4928 3827 
z
M 2202 3827 
L 2202 4614 
L 800 4614 
Q 678 4614 570 4570 
L 403 4858 
Q 582 4826 723 4826 
L 2093 4826 
Q 2285 5114 2310 5139 
Q 2336 5165 2381 5165 
Q 2426 5165 2630 5043 
Q 2835 4922 2985 4819 
Q 3136 4717 3136 4633 
Q 3136 4550 2925 4499 
L 2925 4166 
Q 2925 3910 2934 3731 
Q 2944 3552 2944 3517 
Q 2944 3482 2873 3440 
Q 2803 3398 2636 3360 
Q 2470 3322 2278 3322 
Q 2234 3322 2218 3334 
Q 2202 3347 2202 3386 
L 2202 3616 
L 1536 3616 
Q 1517 3565 1453 3552 
L 1363 2797 
L 2176 2797 
Q 2374 3123 2448 3123 
Q 2522 3123 2720 2982 
L 3066 2733 
Q 3213 2630 3213 2541 
Q 3213 2419 2995 2394 
Q 2970 1338 2934 803 
Q 2899 269 2848 77 
Q 2797 -115 2665 -240 
Q 2534 -365 2288 -438 
Q 2042 -512 1907 -512 
Q 1798 -512 1779 -403 
Q 1741 -179 1629 -70 
Q 1517 38 1283 105 
Q 1050 173 1050 201 
Q 1050 230 1248 230 
Q 1722 230 1904 297 
Q 2086 365 2140 553 
Q 2195 742 2221 1382 
Q 1696 1018 1299 704 
Q 902 390 828 307 
Q 755 224 726 224 
Q 698 224 675 256 
Q 653 288 547 531 
Q 442 774 346 1037 
Q 1382 1203 2221 1485 
Q 2240 1946 2240 2586 
L 1363 2586 
L 1235 2432 
Q 1178 2355 1133 2355 
Q 1088 2355 845 2470 
Q 602 2586 550 2618 
Q 499 2650 499 2685 
Q 499 2720 557 2765 
Q 685 2861 710 3085 
L 774 3667 
Q 794 3898 787 4090 
Q 1152 3987 1536 3827 
L 2202 3827 
z
M 3494 2349 
Q 4173 2349 4345 2189 
Q 4518 2029 4518 1846 
Q 4518 1664 4403 1555 
Q 4288 1446 4137 1446 
Q 3987 1446 3904 1520 
Q 3821 1594 3795 1773 
Q 3770 1952 3674 2080 
Q 3578 2208 3440 2249 
Q 3302 2291 3302 2320 
Q 3302 2349 3494 2349 
z
M 666 2349 
Q 1146 2349 1443 2198 
Q 1741 2048 1741 1747 
Q 1741 1581 1609 1459 
Q 1478 1338 1334 1338 
Q 1190 1338 1100 1437 
Q 1011 1536 998 1737 
Q 986 1939 909 2044 
Q 832 2150 627 2266 
Q 557 2304 557 2326 
Q 557 2349 666 2349 
z
" transform="scale(0.015625)"/>
       <path id="STSongti-SC-Black-6027" d="M 3354 3494 
L 3750 3494 
L 3750 4666 
Q 3750 4986 3738 5229 
Q 4403 5178 4560 5142 
Q 4717 5107 4717 5027 
Q 4717 4947 4576 4883 
L 4576 3494 
L 4992 3494 
Q 5094 3706 5171 3850 
Q 5248 3994 5270 4010 
Q 5293 4026 5318 4026 
Q 5395 4026 5769 3725 
Q 6144 3424 6144 3353 
Q 6144 3283 5997 3283 
L 4576 3283 
L 4576 1888 
L 4909 1888 
Q 5024 2138 5104 2272 
Q 5184 2406 5229 2406 
Q 5299 2406 5641 2128 
Q 5984 1850 5984 1763 
Q 5984 1677 5798 1677 
L 4576 1677 
L 4576 -128 
L 5158 -128 
L 5446 320 
Q 5498 397 5546 397 
Q 5594 397 5798 224 
L 6157 -64 
Q 6310 -186 6310 -262 
Q 6310 -339 6118 -339 
L 2304 -339 
Q 2176 -339 2074 -410 
L 1907 -109 
Q 2061 -128 2227 -128 
L 3750 -128 
L 3750 1677 
L 2982 1677 
Q 2854 1677 2752 1606 
L 2586 1907 
Q 2739 1888 2906 1888 
L 3750 1888 
L 3750 3283 
L 3283 3283 
Q 3046 2605 2588 2041 
Q 2131 1478 2042 1478 
Q 2016 1478 2016 1513 
Q 2016 1549 2054 1619 
Q 2387 2227 2547 2889 
Q 2707 3552 2714 4685 
Q 3091 4627 3353 4572 
Q 3616 4518 3654 4489 
Q 3693 4461 3693 4413 
Q 3693 4365 3597 4320 
Q 3546 4294 3475 3977 
Q 3405 3661 3354 3494 
z
M 1805 3994 
Q 2182 3910 2380 3744 
Q 2579 3578 2579 3370 
Q 2579 3162 2454 3037 
Q 2330 2912 2179 2912 
Q 2029 2912 1939 3017 
Q 1850 3123 1872 3222 
Q 1894 3322 1894 3411 
Q 1894 3597 1805 3738 
L 1805 -429 
Q 1805 -499 1776 -537 
Q 1747 -576 1584 -617 
Q 1421 -659 1277 -659 
Q 1133 -659 1091 -624 
Q 1050 -589 1050 -506 
L 1062 -230 
Q 1069 77 1069 339 
L 1069 4653 
Q 1069 4973 1056 5222 
Q 1632 5165 1789 5123 
Q 1946 5082 1946 5014 
Q 1946 4947 1805 4870 
L 1805 3994 
z
M 966 2822 
Q 966 2541 841 2381 
Q 717 2221 553 2221 
Q 390 2221 275 2313 
Q 160 2406 160 2569 
Q 160 2733 294 2854 
Q 429 2976 509 3158 
Q 589 3341 589 3485 
Q 589 3629 573 3693 
Q 557 3757 557 3789 
Q 557 3821 576 3821 
Q 653 3821 809 3485 
Q 966 3149 966 2822 
z
" transform="scale(0.015625)"/>
       <path id="STSongti-SC-Black-6307" d="M 1210 3411 
L 576 3411 
Q 422 3411 301 3373 
L 192 3648 
Q 339 3622 512 3622 
L 1210 3622 
L 1210 4518 
Q 1210 4909 1184 5210 
Q 1728 5184 1929 5145 
Q 2131 5107 2131 5027 
Q 2131 4947 1907 4870 
L 1907 3622 
L 2048 3622 
Q 2278 4083 2362 4083 
Q 2387 4083 2480 4006 
Q 2573 3930 2918 3597 
L 2918 4506 
Q 2918 4941 2899 5222 
Q 3501 5203 3664 5158 
Q 3827 5114 3827 5046 
Q 3827 4979 3648 4922 
L 3648 3917 
Q 4166 4173 4483 4403 
Q 4800 4634 5171 5005 
Q 5907 4416 5907 4320 
Q 5907 4269 5740 4269 
Q 5574 4269 5011 4122 
L 3648 3789 
L 3648 3437 
Q 3648 3226 3763 3181 
Q 3878 3136 4249 3136 
Q 4621 3136 4867 3161 
Q 5114 3187 5187 3222 
Q 5261 3258 5331 3350 
Q 5402 3443 5469 3600 
Q 5536 3757 5600 3939 
Q 5664 4122 5677 4122 
Q 5690 4122 5693 3866 
Q 5696 3610 5741 3462 
Q 5786 3315 5968 3225 
Q 6150 3136 6150 3046 
Q 6150 2944 5984 2784 
Q 5818 2624 5485 2569 
Q 5152 2515 4387 2515 
Q 3622 2515 3392 2550 
Q 3162 2586 3040 2752 
Q 2918 2918 2918 3270 
L 2918 3411 
L 1907 3411 
L 1907 2451 
Q 2765 2669 2835 2669 
Q 2854 2669 2854 2662 
Q 2854 2643 2694 2560 
Q 2534 2477 1907 2106 
L 1907 166 
Q 1907 -192 1820 -355 
Q 1734 -518 1504 -588 
Q 1274 -659 1101 -659 
Q 928 -659 928 -525 
Q 922 -314 800 -189 
Q 678 -64 496 -3 
Q 314 58 314 70 
Q 314 83 358 83 
L 717 64 
Q 973 64 1091 121 
Q 1210 179 1210 403 
L 1210 1690 
Q 723 1389 630 1318 
Q 538 1248 509 1248 
Q 480 1248 467 1280 
L 384 1523 
Q 314 1728 218 2086 
Q 602 2157 1210 2291 
L 1210 3411 
z
M 3584 1990 
L 4704 1990 
Q 4845 2349 4925 2349 
Q 5005 2349 5305 2176 
Q 5606 2003 5702 1936 
Q 5798 1869 5798 1789 
Q 5798 1709 5581 1638 
L 5581 192 
L 5594 -397 
Q 5594 -454 5571 -483 
Q 5549 -512 5437 -563 
Q 5325 -614 5145 -649 
Q 4966 -685 4886 -685 
Q 4806 -685 4793 -653 
Q 4781 -621 4781 -538 
L 4781 -224 
L 3546 -224 
L 3546 -467 
Q 3546 -525 3485 -566 
Q 3424 -608 3177 -656 
Q 2931 -704 2797 -704 
Q 2746 -704 2746 -653 
L 2758 -371 
Q 2771 -179 2771 -19 
L 2771 1664 
Q 2771 1946 2752 2221 
Q 3398 2080 3584 1990 
z
M 3546 1005 
L 4781 1005 
L 4781 1779 
L 3661 1779 
Q 3642 1702 3546 1670 
L 3546 1005 
z
M 4781 794 
L 3546 794 
L 3546 -13 
L 4781 -13 
L 4781 794 
z
" transform="scale(0.015625)"/>
       <path id="STSongti-SC-Black-6807" d="M 2010 3706 
L 2323 3706 
L 2592 4141 
Q 2637 4211 2688 4211 
Q 2739 4211 3036 3920 
Q 3334 3629 3334 3561 
Q 3334 3494 3213 3494 
L 2010 3494 
L 2010 3040 
Q 2438 2931 2662 2716 
Q 2886 2502 2886 2227 
Q 2886 2074 2761 1955 
Q 2637 1837 2512 1837 
Q 2387 1837 2316 1885 
Q 2246 1933 2220 2006 
Q 2195 2080 2195 2253 
Q 2195 2803 2010 2931 
L 2010 -403 
Q 2010 -544 1786 -601 
Q 1562 -659 1344 -659 
Q 1267 -659 1267 -570 
L 1280 -307 
Q 1286 -38 1286 288 
L 1286 2054 
Q 1120 1709 704 1229 
Q 288 749 230 749 
Q 173 749 173 813 
Q 173 877 205 928 
Q 608 1562 803 2173 
Q 998 2784 1082 3494 
L 608 3494 
Q 480 3494 378 3424 
L 211 3725 
Q 365 3706 531 3706 
L 1286 3706 
L 1286 4448 
Q 1286 4870 1267 5178 
Q 1824 5126 1997 5088 
Q 2170 5050 2170 4992 
Q 2170 4934 2010 4858 
L 2010 3706 
z
M 4768 4621 
Q 4806 4698 4931 4883 
Q 5056 5069 5097 5110 
Q 5139 5152 5196 5152 
Q 5254 5152 5433 4973 
Q 5613 4794 5757 4662 
Q 5901 4531 5901 4470 
Q 5901 4410 5773 4410 
L 3488 4410 
Q 3360 4410 3258 4339 
L 3091 4640 
Q 3245 4621 3411 4621 
L 4768 4621 
z
M 4013 2982 
L 3059 2982 
Q 2931 2982 2829 2912 
L 2662 3213 
Q 2816 3194 2982 3194 
L 5190 3194 
Q 5261 3315 5369 3488 
Q 5478 3661 5507 3686 
Q 5536 3712 5568 3712 
Q 5645 3712 5850 3526 
L 6182 3219 
Q 6310 3104 6310 3043 
Q 6310 2982 6182 2982 
L 4934 2982 
Q 4896 2899 4774 2874 
L 4774 2451 
Q 5568 2150 5910 1785 
Q 6253 1421 6253 986 
Q 6253 723 6102 560 
Q 5952 397 5747 397 
Q 5619 397 5491 534 
Q 5363 672 5363 992 
Q 5363 1824 4774 2304 
L 4774 262 
Q 4774 -58 4678 -218 
Q 4582 -378 4352 -454 
Q 4122 -531 3898 -531 
Q 3706 -531 3706 -384 
Q 3706 -147 3549 -22 
Q 3392 102 3046 160 
Q 2970 173 2970 208 
Q 2970 243 3142 227 
Q 3315 211 3539 211 
Q 3763 211 3888 278 
Q 4013 346 4013 557 
L 4013 2227 
Q 3994 2214 3917 2204 
Q 3840 2195 3779 2124 
Q 3718 2054 3616 1862 
Q 3302 1286 2780 713 
Q 2259 141 2163 141 
Q 2150 141 2150 166 
Q 2150 192 2208 275 
Q 2586 806 2774 1350 
Q 2963 1894 3066 2643 
Q 3386 2566 3683 2454 
Q 3981 2342 4013 2310 
L 4013 2982 
z
" transform="scale(0.015625)"/>
      </defs>
      <use xlink:href="#STSongti-SC-Black-8106"/>
      <use xlink:href="#STSongti-SC-Black-5f31" x="99.999985"/>
      <use xlink:href="#STSongti-SC-Black-6027" x="199.999969"/>
      <use xlink:href="#STSongti-SC-Black-6307" x="299.999954"/>
      <use xlink:href="#STSongti-SC-Black-6807" x="399.999939"/>
     </g>
    </g>
   </g>
   <g id="matplotlib.axis_2">
    <g id="ytick_1">
     <g id="line2d_11">
      <defs>
       <path id="m5eb009d33b" d="M 0 0 
L -3.5 0 
" style="stroke: #000000; stroke-width: 0.8"/>
      </defs>
      <g>
       <use xlink:href="#m5eb009d33b" x="54.249063" y="336.96" style="stroke: #000000; stroke-width: 0.8"/>
      </g>
     </g>
     <g id="text_12">
      <!-- 0.0000 -->
      <g transform="translate(21.605313 340.56)scale(0.1 -0.1)">
       <use xlink:href="#STSongti-SC-Black-30"/>
       <use xlink:href="#STSongti-SC-Black-2e" x="46.899994"/>
       <use xlink:href="#STSongti-SC-Black-30" x="68.799988"/>
       <use xlink:href="#STSongti-SC-Black-30" x="115.699982"/>
       <use xlink:href="#STSongti-SC-Black-30" x="162.599976"/>
       <use xlink:href="#STSongti-SC-Black-30" x="209.499969"/>
      </g>
     </g>
    </g>
    <g id="ytick_2">
     <g id="line2d_12">
      <g>
       <use xlink:href="#m5eb009d33b" x="54.249063" y="290.365714" style="stroke: #000000; stroke-width: 0.8"/>
      </g>
     </g>
     <g id="text_13">
      <!-- 0.1000 -->
      <g transform="translate(21.605313 293.965714)scale(0.1 -0.1)">
       <use xlink:href="#STSongti-SC-Black-30"/>
       <use xlink:href="#STSongti-SC-Black-2e" x="46.899994"/>
       <use xlink:href="#STSongti-SC-Black-31" x="68.799988"/>
       <use xlink:href="#STSongti-SC-Black-30" x="115.699982"/>
       <use xlink:href="#STSongti-SC-Black-30" x="162.599976"/>
       <use xlink:href="#STSongti-SC-Black-30" x="209.499969"/>
      </g>
     </g>
    </g>
    <g id="ytick_3">
     <g id="line2d_13">
      <g>
       <use xlink:href="#m5eb009d33b" x="54.249063" y="243.771429" style="stroke: #000000; stroke-width: 0.8"/>
      </g>
     </g>
     <g id="text_14">
      <!-- 0.2000 -->
      <g transform="translate(21.605313 247.371429)scale(0.1 -0.1)">
       <use xlink:href="#STSongti-SC-Black-30"/>
       <use xlink:href="#STSongti-SC-Black-2e" x="46.899994"/>
       <use xlink:href="#STSongti-SC-Black-32" x="68.799988"/>
       <use xlink:href="#STSongti-SC-Black-30" x="115.699982"/>
       <use xlink:href="#STSongti-SC-Black-30" x="162.599976"/>
       <use xlink:href="#STSongti-SC-Black-30" x="209.499969"/>
      </g>
     </g>
    </g>
    <g id="ytick_4">
     <g id="line2d_14">
      <g>
       <use xlink:href="#m5eb009d33b" x="54.249063" y="197.177143" style="stroke: #000000; stroke-width: 0.8"/>
      </g>
     </g>
     <g id="text_15">
      <!-- 0.3000 -->
      <g transform="translate(21.605313 200.777143)scale(0.1 -0.1)">
       <defs>
        <path id="STSongti-SC-Black-33" d="M 576 3430 
L 474 3526 
Q 550 3731 646 3900 
Q 742 4070 876 4192 
Q 1011 4314 1193 4381 
Q 1376 4448 1619 4448 
Q 1779 4448 1939 4409 
Q 2099 4371 2224 4288 
Q 2349 4205 2425 4083 
Q 2502 3962 2502 3789 
Q 2502 3539 2281 3289 
Q 2061 3040 1683 2822 
Q 1939 2842 2153 2771 
Q 2368 2701 2518 2560 
Q 2669 2419 2752 2214 
Q 2835 2010 2835 1760 
Q 2835 1446 2707 1174 
Q 2579 902 2355 704 
Q 2131 506 1833 394 
Q 1536 282 1203 282 
Q 762 282 518 403 
Q 275 525 275 717 
Q 275 787 323 854 
Q 371 922 457 950 
Q 544 979 653 950 
Q 762 922 890 800 
Q 986 704 1053 640 
Q 1120 576 1174 541 
Q 1229 506 1277 490 
Q 1325 474 1389 474 
Q 1581 474 1725 570 
Q 1869 666 1965 826 
Q 2061 986 2105 1184 
Q 2150 1382 2150 1587 
Q 2150 1997 1955 2198 
Q 1760 2400 1498 2400 
Q 1331 2400 1206 2345 
Q 1082 2291 954 2182 
L 845 2330 
Q 909 2387 979 2444 
Q 1050 2502 1126 2560 
Q 1478 2822 1676 3030 
Q 1875 3238 1875 3437 
Q 1875 3686 1731 3824 
Q 1587 3962 1306 3962 
Q 1101 3962 902 3843 
Q 704 3725 576 3430 
z
" transform="scale(0.015625)"/>
       </defs>
       <use xlink:href="#STSongti-SC-Black-30"/>
       <use xlink:href="#STSongti-SC-Black-2e" x="46.899994"/>
       <use xlink:href="#STSongti-SC-Black-33" x="68.799988"/>
       <use xlink:href="#STSongti-SC-Black-30" x="115.699982"/>
       <use xlink:href="#STSongti-SC-Black-30" x="162.599976"/>
       <use xlink:href="#STSongti-SC-Black-30" x="209.499969"/>
      </g>
     </g>
    </g>
    <g id="ytick_5">
     <g id="line2d_15">
      <g>
       <use xlink:href="#m5eb009d33b" x="54.249063" y="150.582857" style="stroke: #000000; stroke-width: 0.8"/>
      </g>
     </g>
     <g id="text_16">
      <!-- 0.4000 -->
      <g transform="translate(21.605313 154.182857)scale(0.1 -0.1)">
       <use xlink:href="#STSongti-SC-Black-30"/>
       <use xlink:href="#STSongti-SC-Black-2e" x="46.899994"/>
       <use xlink:href="#STSongti-SC-Black-34" x="68.799988"/>
       <use xlink:href="#STSongti-SC-Black-30" x="115.699982"/>
       <use xlink:href="#STSongti-SC-Black-30" x="162.599976"/>
       <use xlink:href="#STSongti-SC-Black-30" x="209.499969"/>
      </g>
     </g>
    </g>
    <g id="ytick_6">
     <g id="line2d_16">
      <g>
       <use xlink:href="#m5eb009d33b" x="54.249063" y="103.988571" style="stroke: #000000; stroke-width: 0.8"/>
      </g>
     </g>
     <g id="text_17">
      <!-- 0.5000 -->
      <g transform="translate(21.605313 107.588571)scale(0.1 -0.1)">
       <defs>
        <path id="STSongti-SC-Black-35" d="M 2490 3763 
L 1536 3763 
Q 1286 3763 1094 3760 
Q 902 3757 877 3744 
L 819 2880 
Q 960 2950 1145 2982 
Q 1331 3014 1478 3014 
Q 1805 3014 2051 2908 
Q 2298 2803 2464 2627 
Q 2630 2451 2713 2220 
Q 2797 1990 2797 1741 
Q 2797 1414 2662 1145 
Q 2528 877 2310 685 
Q 2093 493 1817 387 
Q 1542 282 1254 282 
Q 1107 282 934 310 
Q 762 339 611 393 
Q 461 448 361 528 
Q 262 608 262 717 
Q 262 794 313 854 
Q 365 915 435 950 
Q 506 986 582 986 
Q 659 986 710 941 
Q 864 813 963 723 
Q 1062 634 1139 576 
Q 1216 518 1286 492 
Q 1357 467 1453 467 
Q 1632 467 1766 550 
Q 1901 634 1993 778 
Q 2086 922 2134 1114 
Q 2182 1306 2182 1523 
Q 2182 1728 2118 1897 
Q 2054 2067 1939 2192 
Q 1824 2317 1667 2387 
Q 1510 2458 1318 2458 
Q 1101 2458 957 2410 
Q 813 2362 723 2272 
L 614 2272 
L 736 4384 
L 1542 4384 
Q 1792 4384 1952 4384 
Q 2112 4384 2205 4400 
Q 2298 4416 2336 4451 
Q 2374 4486 2387 4557 
L 2547 4557 
L 2490 3763 
z
" transform="scale(0.015625)"/>
       </defs>
       <use xlink:href="#STSongti-SC-Black-30"/>
       <use xlink:href="#STSongti-SC-Black-2e" x="46.899994"/>
       <use xlink:href="#STSongti-SC-Black-35" x="68.799988"/>
       <use xlink:href="#STSongti-SC-Black-30" x="115.699982"/>
       <use xlink:href="#STSongti-SC-Black-30" x="162.599976"/>
       <use xlink:href="#STSongti-SC-Black-30" x="209.499969"/>
      </g>
     </g>
    </g>
    <g id="ytick_7">
     <g id="line2d_17">
      <g>
       <use xlink:href="#m5eb009d33b" x="54.249063" y="57.394286" style="stroke: #000000; stroke-width: 0.8"/>
      </g>
     </g>
     <g id="text_18">
      <!-- 0.6000 -->
      <g transform="translate(21.605313 60.994286)scale(0.1 -0.1)">
       <use xlink:href="#STSongti-SC-Black-30"/>
       <use xlink:href="#STSongti-SC-Black-2e" x="46.899994"/>
       <use xlink:href="#STSongti-SC-Black-36" x="68.799988"/>
       <use xlink:href="#STSongti-SC-Black-30" x="115.699982"/>
       <use xlink:href="#STSongti-SC-Black-30" x="162.599976"/>
       <use xlink:href="#STSongti-SC-Black-30" x="209.499969"/>
      </g>
     </g>
    </g>
    <g id="ytick_8">
     <g id="line2d_18">
      <g>
       <use xlink:href="#m5eb009d33b" x="54.249063" y="10.8" style="stroke: #000000; stroke-width: 0.8"/>
      </g>
     </g>
     <g id="text_19">
      <!-- 0.7000 -->
      <g transform="translate(21.605313 14.4)scale(0.1 -0.1)">
       <defs>
        <path id="STSongti-SC-Black-37" d="M 358 4384 
L 2822 4384 
L 2822 4275 
Q 2714 4083 2522 3596 
Q 2330 3110 2042 2310 
Q 1485 736 1427 384 
L 1043 384 
Q 1120 717 1222 1065 
Q 1325 1414 1462 1817 
Q 1600 2221 1779 2691 
Q 1958 3162 2189 3731 
L 634 3731 
Q 467 3731 461 3648 
L 410 3379 
L 269 3379 
L 358 4384 
z
" transform="scale(0.015625)"/>
       </defs>
       <use xlink:href="#STSongti-SC-Black-30"/>
       <use xlink:href="#STSongti-SC-Black-2e" x="46.899994"/>
       <use xlink:href="#STSongti-SC-Black-37" x="68.799988"/>
       <use xlink:href="#STSongti-SC-Black-30" x="115.699982"/>
       <use xlink:href="#STSongti-SC-Black-30" x="162.599976"/>
       <use xlink:href="#STSongti-SC-Black-30" x="209.499969"/>
      </g>
     </g>
    </g>
    <g id="ytick_9">
     <g id="line2d_19">
      <g>
       <use xlink:href="#m5eb009d33b" x="54.249063" y="126.107956" style="stroke: #000000; stroke-width: 0.8"/>
      </g>
     </g>
     <g id="text_20">
      <!-- 0.4525 -->
      <g transform="translate(21.605313 129.707956)scale(0.1 -0.1)">
       <use xlink:href="#STSongti-SC-Black-30"/>
       <use xlink:href="#STSongti-SC-Black-2e" x="46.899994"/>
       <use xlink:href="#STSongti-SC-Black-34" x="68.799988"/>
       <use xlink:href="#STSongti-SC-Black-35" x="115.699982"/>
       <use xlink:href="#STSongti-SC-Black-32" x="162.599976"/>
       <use xlink:href="#STSongti-SC-Black-35" x="209.499969"/>
      </g>
     </g>
    </g>
    <g id="text_21">
     <!-- 概率 -->
     <g transform="translate(16.075625 184.88)rotate(-90)scale(0.11 -0.11)">
      <defs>
       <path id="STSongti-SC-Black-6982" d="M 3885 4826 
L 5325 4826 
Q 5510 5133 5561 5200 
Q 5613 5267 5651 5267 
Q 5715 5267 5996 5040 
Q 6278 4813 6278 4713 
Q 6278 4614 6131 4614 
L 5754 4614 
Q 5715 4544 5606 4499 
Q 5523 3411 5402 2701 
L 5485 2701 
Q 5600 2931 5661 3027 
Q 5722 3123 5766 3123 
Q 5811 3123 6067 2905 
Q 6323 2688 6323 2589 
Q 6323 2490 6189 2490 
L 5363 2490 
L 5312 2246 
Q 5581 2214 5645 2185 
Q 5709 2157 5709 2105 
Q 5709 2054 5594 1997 
L 5594 326 
Q 5594 218 5696 218 
Q 5907 218 6016 1043 
Q 6029 1126 6057 1126 
Q 6086 1126 6073 966 
Q 6061 806 6061 633 
Q 6061 461 6093 336 
Q 6125 211 6230 115 
Q 6336 19 6336 -58 
Q 6336 -173 6198 -326 
Q 6061 -480 5600 -480 
Q 5210 -480 5078 -349 
Q 4947 -218 4947 186 
L 4947 1210 
Q 4531 390 3740 -112 
Q 2950 -614 2816 -614 
Q 2797 -614 2797 -602 
Q 2797 -570 2880 -506 
Q 3827 198 4224 886 
Q 4621 1574 4762 2490 
L 4621 2490 
L 4531 2355 
Q 4499 2304 4457 2304 
Q 4416 2304 4243 2387 
Q 4070 2470 3891 2598 
L 3904 2298 
Q 3904 2227 3766 2153 
Q 3629 2080 3472 2080 
Q 3315 2080 3289 2121 
Q 3264 2163 3264 2234 
L 2880 2234 
L 2880 1043 
L 3514 1440 
Q 3450 1651 3213 1926 
Q 3155 1990 3155 2009 
Q 3155 2029 3174 2029 
Q 3238 2029 3532 1885 
Q 3827 1741 4012 1545 
Q 4198 1350 4198 1155 
Q 4198 960 4086 816 
Q 3974 672 3827 672 
Q 3680 672 3600 755 
Q 3520 838 3536 969 
Q 3552 1101 3552 1168 
Q 3552 1235 3546 1286 
Q 2746 224 2678 105 
Q 2611 -13 2563 -13 
Q 2515 -13 2464 64 
L 2259 416 
Q 2099 678 2099 716 
Q 2099 755 2144 774 
Q 2253 819 2253 960 
L 2253 2163 
Q 2170 1997 2038 1997 
Q 1907 1997 1865 2070 
Q 1824 2144 1824 2317 
Q 1824 2765 1702 2880 
L 1702 -442 
Q 1702 -499 1660 -531 
Q 1619 -563 1481 -604 
Q 1344 -646 1225 -646 
Q 1107 -646 1068 -611 
Q 1030 -576 1030 -531 
L 1037 301 
L 1037 2093 
Q 947 1894 809 1680 
Q 672 1466 477 1213 
Q 282 960 246 931 
Q 211 902 192 902 
Q 173 902 173 934 
Q 173 966 192 1018 
Q 512 1786 672 2307 
Q 832 2829 909 3603 
L 550 3603 
Q 422 3603 320 3533 
L 154 3834 
Q 307 3814 474 3814 
L 1037 3814 
L 1037 4538 
Q 1037 4960 1018 5267 
Q 1811 5248 1811 5120 
Q 1811 5069 1702 5030 
L 1702 3827 
Q 1779 3968 1836 4057 
Q 1894 4147 1920 4147 
Q 1971 4147 2108 4022 
Q 2246 3898 2253 3885 
L 2253 4499 
Q 2253 4819 2240 5069 
Q 2630 4954 2886 4819 
L 3200 4819 
Q 3386 5101 3440 5101 
Q 3494 5101 3625 5021 
Q 3757 4941 3885 4826 
z
M 4896 4614 
L 4032 4614 
Q 4019 4570 3891 4506 
L 3891 2682 
Q 4058 2746 4070 3053 
L 4096 3629 
Q 4102 3878 4096 4102 
Q 4301 4083 4493 4041 
Q 4685 4000 4729 3968 
Q 4774 3936 4774 3885 
Q 4774 3834 4659 3789 
L 4602 2701 
L 4794 2701 
Q 4896 3475 4896 4614 
z
M 3264 3635 
L 3264 4608 
L 2976 4608 
Q 2950 4570 2880 4550 
L 2880 3635 
L 3264 3635 
z
M 2253 3603 
L 1702 3603 
L 1702 3085 
Q 2112 2931 2253 2643 
L 2253 3603 
z
M 3264 2445 
L 3264 3424 
L 2880 3424 
L 2880 2445 
L 3264 2445 
z
" transform="scale(0.015625)"/>
       <path id="STSongti-SC-Black-7387" d="M 2976 4538 
Q 2938 4576 2915 4627 
Q 2893 4678 2893 4736 
L 2899 4832 
Q 2899 5114 2650 5254 
Q 2566 5299 2566 5325 
Q 2566 5363 2950 5363 
Q 3750 5363 3750 4922 
Q 3750 4672 3475 4538 
L 4890 4538 
Q 5139 4960 5180 5005 
Q 5222 5050 5261 5050 
Q 5357 5050 5699 4762 
Q 6042 4474 6042 4400 
Q 6042 4326 5914 4326 
L 3302 4326 
Q 3533 4230 3613 4172 
Q 3693 4115 3693 4054 
Q 3693 3994 3613 3994 
Q 3533 3994 3449 3958 
Q 3366 3923 3088 3724 
Q 2810 3526 2605 3341 
L 3430 3334 
Q 3661 3642 3744 3814 
Q 3872 3738 4102 3558 
Q 4333 3379 4358 3350 
Q 4384 3322 4384 3296 
Q 4384 3245 4307 3241 
Q 4230 3238 3932 3017 
Q 3635 2797 3443 2669 
Q 3923 2592 4246 2393 
Q 4570 2195 4570 1888 
Q 4570 1709 4419 1587 
Q 4269 1466 4160 1466 
Q 4051 1466 3984 1514 
Q 3917 1562 3897 1619 
Q 3878 1677 3878 1776 
Q 3878 1875 3846 1990 
L 2989 1734 
Q 3091 1728 3366 1686 
Q 3642 1645 3680 1616 
Q 3718 1587 3718 1532 
Q 3718 1478 3616 1421 
L 3616 941 
L 5062 941 
Q 5306 1350 5357 1421 
Q 5146 1408 5056 1523 
Q 4966 1638 4902 1926 
Q 4864 2080 4672 2320 
Q 4480 2560 4256 2714 
Q 4678 3494 4781 4160 
Q 4954 4109 5245 3977 
Q 5536 3846 5632 3788 
Q 5728 3731 5728 3680 
Q 5728 3597 5574 3584 
Q 5466 3571 5373 3516 
Q 5280 3462 4941 3190 
Q 4602 2918 4378 2714 
Q 5101 2586 5411 2381 
Q 5722 2176 5722 1894 
Q 5722 1613 5510 1478 
Q 5658 1414 5971 1142 
Q 6285 870 6285 800 
Q 6285 730 6157 730 
L 3616 730 
L 3616 211 
Q 3616 -109 3622 -230 
L 3629 -454 
Q 3629 -563 3395 -627 
Q 3162 -691 3024 -691 
Q 2886 -691 2844 -665 
Q 2803 -640 2803 -557 
L 2816 -307 
Q 2822 -58 2822 243 
L 2822 730 
L 634 730 
Q 506 730 403 659 
L 237 960 
Q 390 941 557 941 
L 2822 941 
L 2822 1190 
L 2816 1670 
Q 2438 1555 2352 1510 
Q 2266 1466 2253 1466 
Q 2227 1466 2217 1507 
Q 2208 1549 2125 1798 
Q 2042 2048 2042 2086 
Q 2042 2157 2102 2144 
Q 2163 2131 2195 2131 
Q 2336 2131 2646 2428 
Q 2957 2726 3206 3040 
Q 2586 2880 2362 2771 
Q 2336 2758 2307 2758 
Q 2278 2758 2265 2780 
Q 2253 2803 2169 3049 
Q 2086 3296 2086 3334 
Q 2086 3373 2125 3379 
Q 2349 3411 2502 3648 
Q 2656 3885 2803 4326 
L 883 4326 
Q 755 4326 653 4256 
L 486 4557 
Q 640 4538 806 4538 
L 2976 4538 
z
M 3379 2624 
Q 2842 2272 2630 2125 
L 3789 2138 
Q 3654 2426 3379 2624 
z
M 787 4070 
Q 883 4070 1180 3961 
Q 1478 3853 1670 3667 
Q 1862 3482 1862 3277 
Q 1862 3072 1740 2937 
Q 1619 2803 1402 2803 
Q 1274 2803 1181 2912 
Q 1088 3021 1088 3162 
L 1094 3296 
Q 1094 3501 1014 3696 
Q 934 3891 800 3994 
Q 749 4032 749 4051 
Q 749 4070 787 4070 
z
M 410 2208 
Q 787 2298 1292 2470 
Q 1798 2643 1977 2736 
Q 2157 2829 2185 2829 
Q 2214 2829 2214 2816 
Q 2214 2784 2012 2601 
Q 1811 2419 1446 2035 
Q 1082 1651 1005 1536 
Q 928 1421 905 1421 
Q 883 1421 864 1440 
Q 845 1459 678 1712 
Q 512 1965 410 2208 
z
" transform="scale(0.015625)"/>
      </defs>
      <use xlink:href="#STSongti-SC-Black-6982"/>
      <use xlink:href="#STSongti-SC-Black-7387" x="99.999985"/>
     </g>
    </g>
   </g>
   <g id="line2d_20">
    <path d="M 54.249063 126.107956 
L 612.249063 126.107956 
" clip-path="url(#pc3f45a3d1e)" style="fill: none; stroke-dasharray: 3.7,1.6; stroke-dashoffset: 0; stroke: #012e6b"/>
   </g>
   <g id="line2d_21">
    <path d="M 92.036492 336.96 
L 92.036492 10.8 
" clip-path="url(#pc3f45a3d1e)" style="fill: none; stroke-dasharray: 3.7,1.6; stroke-dashoffset: 0; stroke: #012e6b"/>
   </g>
   <g id="patch_3">
    <path d="M 54.249063 336.96 
L 54.249063 10.8 
" style="fill: none; stroke: #000000; stroke-width: 0.8; stroke-linejoin: miter; stroke-linecap: square"/>
   </g>
   <g id="patch_4">
    <path d="M 54.249063 336.96 
L 612.249063 336.96 
" style="fill: none; stroke: #000000; stroke-width: 0.8; stroke-linejoin: miter; stroke-linecap: square"/>
   </g>
   <g id="text_22">
    <!-- 73 -->
    <g transform="translate(78.229617 119.91884)scale(0.11 -0.11)">
     <use xlink:href="#STSongti-SC-Black-37"/>
     <use xlink:href="#STSongti-SC-Black-33" x="46.899994"/>
    </g>
   </g>
   <g id="text_23">
    <!-- 0 -->
    <g transform="translate(95.523992 119.91884)scale(0.11 -0.11)">
     <use xlink:href="#STSongti-SC-Black-30"/>
    </g>
   </g>
   <g id="text_24">
    <!-- 9 -->
    <g transform="translate(83.389304 138.687384)scale(0.11 -0.11)">
     <defs>
      <path id="STSongti-SC-Black-39" d="M 1658 2022 
Q 1485 1939 1299 1939 
Q 1069 1939 864 2009 
Q 659 2080 505 2221 
Q 352 2362 265 2579 
Q 179 2797 179 3091 
Q 179 3386 281 3635 
Q 384 3885 560 4067 
Q 736 4250 969 4349 
Q 1203 4448 1466 4448 
Q 1747 4448 1984 4339 
Q 2221 4230 2390 4022 
Q 2560 3814 2656 3520 
Q 2752 3226 2752 2861 
Q 2752 2374 2582 1932 
Q 2413 1491 2118 1142 
Q 1824 794 1417 560 
Q 1011 326 544 262 
L 518 403 
Q 915 506 1187 742 
Q 1459 979 1628 1308 
Q 1798 1638 1872 2051 
Q 1946 2464 1946 2918 
Q 1946 3194 1930 3446 
Q 1914 3699 1866 3891 
Q 1818 4083 1722 4195 
Q 1626 4307 1466 4307 
Q 1318 4307 1219 4204 
Q 1120 4102 1059 3939 
Q 998 3776 972 3571 
Q 947 3366 947 3162 
Q 947 2989 982 2806 
Q 1018 2624 1088 2477 
Q 1158 2330 1260 2234 
Q 1363 2138 1498 2138 
Q 1587 2138 1638 2157 
L 1658 2022 
z
" transform="scale(0.015625)"/>
     </defs>
     <use xlink:href="#STSongti-SC-Black-39"/>
    </g>
   </g>
   <g id="text_25">
    <!-- 26 -->
    <g transform="translate(95.523992 138.687384)scale(0.11 -0.11)">
     <use xlink:href="#STSongti-SC-Black-32"/>
     <use xlink:href="#STSongti-SC-Black-36" x="46.899994"/>
    </g>
   </g>
  </g>
 </g>
 <defs>
  <clipPath id="pc3f45a3d1e">
   <rect x="54.249063" y="10.8" width="558" height="326.16"/>
  </clipPath>
 </defs>
</svg>
